{"glyphs":{"0":{"ha":926,"x_min":47,"x_max":879,"o":"m 463 -21 q 240 39 333 -21 q 97 212 146 99 q 47 482 47 325 q 97 753 47 640 q 239 926 146 867 q 463 986 332 986 q 769 853 660 986 q 879 482 879 721 q 830 212 879 325 q 687 39 781 99 q 463 -21 593 -21 m 463 153 q 601 237 553 153 q 649 482 649 321 q 601 728 649 643 q 463 813 553 813 q 326 728 374 813 q 278 482 278 643 q 326 237 278 321 q 463 153 374 153 z "},"1":{"ha":608,"x_min":42,"x_max":472,"o":"m 249 663 q 177 624 222 638 q 81 610 132 610 l 42 610 l 42 811 l 68 811 q 208 850 156 814 q 290 965 261 886 l 472 965 l 472 0 l 249 0 l 249 663 z "},"2":{"ha":815,"x_min":39,"x_max":768,"o":"m 40 164 q 389 414 271 304 q 490 538 460 479 q 521 668 521 597 q 489 773 521 736 q 396 810 457 810 q 300 773 335 810 q 265 671 265 736 q 275 592 265 643 l 47 614 q 39 689 39 651 q 84 846 39 779 q 212 949 129 913 q 407 986 294 986 q 667 907 574 986 q 760 685 760 828 q 717 505 760 589 q 586 342 674 421 q 346 178 490 258 l 768 178 l 768 0 l 40 0 l 40 164 z "},"3":{"ha":839,"x_min":35,"x_max":792,"o":"m 415 -21 q 215 17 300 -21 q 83 126 129 56 q 35 293 36 197 l 261 314 q 304 194 263 238 q 417 151 346 151 q 521 186 485 151 q 557 285 557 221 q 390 414 557 414 l 338 414 l 338 567 l 388 567 q 499 599 461 567 q 536 694 536 632 q 502 785 536 753 q 407 817 468 817 q 302 772 339 817 q 265 647 265 728 l 44 676 q 90 840 44 769 q 221 948 136 910 q 418 986 306 986 q 676 917 585 986 q 767 721 767 847 q 714 580 767 640 q 574 500 661 519 q 736 426 681 485 q 792 269 792 367 q 745 116 792 182 q 614 15 699 50 q 415 -21 529 -21 z "},"4":{"ha":893,"x_min":35,"x_max":844,"o":"m 700 213 l 700 0 l 479 0 l 479 213 l 35 213 l 35 364 l 453 965 l 700 965 l 700 376 l 844 376 l 844 213 l 700 213 m 488 654 q 490 761 488 726 l 488 761 q 432 663 474 726 l 294 460 q 231 376 256 403 l 488 376 l 488 654 z "},"5":{"ha":826,"x_min":43,"x_max":781,"o":"m 408 -21 q 161 51 258 -21 q 43 247 64 122 l 261 282 q 310 188 272 222 q 407 154 349 154 q 519 199 479 154 q 558 322 558 243 q 519 451 558 403 q 411 500 481 500 q 317 470 356 500 q 264 385 279 440 l 64 404 l 124 965 l 731 965 l 731 788 l 288 788 l 261 567 q 347 638 293 614 q 474 663 401 663 q 699 574 617 663 q 781 329 781 485 q 681 73 781 167 q 408 -21 582 -21 z "},"6":{"ha":843,"x_min":47,"x_max":801,"o":"m 503 651 q 722 565 642 651 q 801 328 801 478 q 756 147 801 226 q 628 24 710 68 q 443 -21 547 -21 q 152 107 257 -21 q 47 465 47 235 q 95 744 47 626 q 233 924 143 861 q 447 986 324 986 q 680 922 594 986 q 786 733 765 858 l 575 700 q 443 818 547 818 q 313 744 361 818 q 263 539 265 671 q 503 651 339 651 m 439 149 q 548 194 508 149 q 588 318 588 239 q 546 442 588 394 q 436 489 504 489 q 332 454 376 489 q 264 357 288 419 q 319 204 274 260 q 439 149 365 149 z "},"7":{"ha":744,"x_min":31,"x_max":724,"o":"m 163 17 q 251 415 163 219 q 501 779 340 610 l 31 779 l 31 965 l 724 965 l 724 793 q 487 443 567 629 q 407 35 407 257 l 407 0 l 163 0 l 163 17 z "},"8":{"ha":875,"x_min":42,"x_max":833,"o":"m 638 533 q 786 431 739 494 q 833 268 833 367 q 784 117 833 182 q 644 15 735 51 q 435 -21 554 -21 q 228 13 318 -21 q 90 109 139 47 q 42 251 42 171 q 86 398 42 342 q 226 483 131 454 q 108 578 146 521 q 71 718 71 636 q 115 858 71 797 q 240 953 160 919 q 428 986 321 986 q 618 956 536 986 q 744 870 700 926 q 789 740 789 814 q 752 613 789 664 q 638 533 715 561 m 429 835 q 324 804 361 835 q 286 718 286 774 q 322 640 286 671 q 438 589 358 608 l 493 574 q 557 630 538 597 q 576 708 576 663 q 538 801 576 768 q 429 835 499 835 m 439 143 q 560 178 515 143 q 606 274 606 214 q 568 360 606 326 q 450 417 531 394 l 375 436 q 295 374 319 410 q 271 282 271 338 q 317 181 271 219 q 439 143 363 143 z "},"9":{"ha":844,"x_min":42,"x_max":797,"o":"m 408 986 q 698 863 599 986 q 797 499 797 739 q 699 115 797 251 q 403 -21 601 -21 q 168 46 258 -21 q 57 238 78 113 l 268 275 q 318 185 281 217 q 414 153 356 153 q 540 229 497 153 q 583 446 582 306 q 494 369 550 394 q 367 343 438 343 q 196 381 269 343 q 82 490 122 419 q 42 656 42 561 q 86 828 42 753 q 214 944 131 903 q 408 986 297 986 m 408 506 q 513 540 465 506 q 582 632 561 575 q 535 769 578 715 q 411 822 493 822 q 298 778 340 822 q 256 663 256 735 q 298 549 256 593 q 408 506 340 506 z "},"\u0000":{"ha":0,"x_min":0,"x_max":0,"o":""},"\r":{"ha":0,"x_min":0,"x_max":0,"o":""}," ":{"ha":343,"x_min":0,"x_max":0,"o":""},"A":{"ha":1022,"x_min":19,"x_max":1004,"o":"m 693 231 l 329 231 l 254 0 l 19 0 l 378 986 l 646 986 l 1004 0 l 768 0 l 693 231 m 639 396 l 549 671 q 513 810 525 742 l 510 810 q 474 671 500 754 l 383 396 l 639 396 z "},"B":{"ha":946,"x_min":103,"x_max":900,"o":"m 697 514 q 847 437 793 499 q 900 278 900 375 q 863 135 900 199 q 749 36 825 72 q 565 0 674 0 l 103 0 l 103 986 l 547 986 q 792 916 710 986 q 875 732 875 846 q 828 594 875 653 q 697 514 782 536 m 338 821 l 338 581 l 485 581 q 595 614 560 581 q 631 701 631 647 q 594 788 631 756 q 485 821 558 821 l 338 821 m 500 165 q 616 201 576 165 q 656 297 656 238 q 617 390 656 356 q 506 425 578 425 l 338 425 l 338 165 l 500 165 z "},"C":{"ha":999,"x_min":40,"x_max":965,"o":"m 521 -24 q 259 40 367 -24 q 96 219 151 103 q 40 492 40 335 q 99 764 40 647 q 266 945 157 881 q 524 1010 375 1010 q 825 915 710 1010 q 960 656 940 819 l 722 614 q 658 767 711 713 q 518 821 606 821 q 344 733 407 821 q 281 493 281 644 q 345 256 281 344 q 525 167 410 167 q 660 220 607 167 q 728 369 713 274 l 965 318 q 815 67 929 158 q 521 -24 700 -24 z "},"D":{"ha":1024,"x_min":103,"x_max":983,"o":"m 103 986 l 496 986 q 752 925 642 986 q 923 753 863 864 q 983 499 983 643 q 923 238 983 351 q 751 63 863 125 q 493 0 640 0 l 103 0 l 103 986 m 483 172 q 622 216 564 172 q 711 334 681 260 q 742 499 742 408 q 675 726 742 639 q 486 814 608 814 l 338 814 l 338 172 l 483 172 z "},"E":{"ha":856,"x_min":103,"x_max":788,"o":"m 788 174 l 788 0 l 103 0 l 103 986 l 778 986 l 778 813 l 338 813 l 338 590 l 754 590 l 754 418 l 338 418 l 338 174 l 788 174 z "},"F":{"ha":815,"x_min":103,"x_max":778,"o":"m 338 808 l 338 581 l 753 581 l 753 406 l 338 406 l 338 0 l 103 0 l 103 986 l 778 986 l 778 808 l 338 808 z "},"G":{"ha":1035,"x_min":40,"x_max":963,"o":"m 478 -24 q 244 40 343 -24 q 93 219 146 103 q 40 492 40 336 q 99 763 40 646 q 269 945 158 881 q 529 1010 381 1010 q 744 969 653 1010 q 890 860 836 929 q 958 707 943 792 l 726 664 q 663 786 713 739 q 528 833 614 833 q 346 742 411 833 q 281 494 281 651 q 344 247 281 336 q 531 157 408 157 q 651 188 601 157 q 724 267 700 219 q 749 360 749 314 l 749 381 l 506 381 l 506 549 l 963 549 l 963 0 l 796 0 l 786 144 q 669 21 749 65 q 478 -24 589 -24 z "},"H":{"ha":1054,"x_min":103,"x_max":951,"o":"m 951 0 l 717 0 l 717 410 l 338 410 l 338 0 l 103 0 l 103 986 l 338 986 l 338 590 l 717 590 l 717 986 l 951 986 l 951 0 z "},"I":{"ha":440,"x_min":103,"x_max":338,"o":"m 103 0 l 103 986 l 338 986 l 338 0 l 103 0 z "},"J":{"ha":582,"x_min":24,"x_max":496,"o":"m 496 292 q 410 60 496 136 q 169 -17 324 -17 q 24 -4 78 -17 l 24 186 q 118 179 72 179 q 224 216 188 179 q 261 338 261 253 l 261 986 l 496 986 l 496 292 z "},"K":{"ha":992,"x_min":103,"x_max":974,"o":"m 450 421 l 338 290 l 338 0 l 103 0 l 103 986 l 338 986 l 338 563 l 686 986 l 954 986 l 608 586 l 974 0 l 707 0 l 450 421 z "},"L":{"ha":761,"x_min":103,"x_max":738,"o":"m 103 986 l 338 986 l 338 190 l 738 190 l 738 0 l 103 0 l 103 986 z "},"M":{"ha":1261,"x_min":103,"x_max":1158,"o":"m 103 986 l 425 986 l 607 382 q 631 263 622 329 l 633 263 q 658 385 640 322 l 832 986 l 1158 986 l 1158 0 l 944 0 l 944 672 q 950 783 944 733 l 946 783 q 925 688 942 740 l 726 0 l 529 0 l 322 688 q 301 782 307 729 l 297 782 q 303 672 303 715 l 303 0 l 103 0 l 103 986 z "},"N":{"ha":1058,"x_min":103,"x_max":956,"o":"m 103 986 l 363 986 l 679 424 q 739 296 724 340 l 742 296 l 740 422 l 740 986 l 956 986 l 956 0 l 706 0 l 378 568 q 319 689 342 631 l 317 689 l 318 558 l 318 0 l 103 0 l 103 986 z "},"O":{"ha":1053,"x_min":40,"x_max":1013,"o":"m 526 -24 q 269 40 379 -24 q 100 219 160 103 q 40 493 40 336 q 100 767 40 650 q 269 947 160 883 q 526 1010 379 1010 q 783 947 674 1010 q 953 767 893 883 q 1013 493 1013 650 q 953 219 1013 336 q 783 40 893 103 q 526 -24 674 -24 m 526 160 q 706 248 642 160 q 771 493 771 336 q 706 738 771 650 q 526 826 642 826 q 346 738 411 826 q 281 493 281 650 q 346 249 281 338 q 526 160 411 160 z "},"P":{"ha":913,"x_min":103,"x_max":894,"o":"m 540 986 q 726 948 646 986 q 851 840 807 910 q 894 676 894 769 q 798 444 894 529 q 535 358 701 358 l 338 358 l 338 0 l 103 0 l 103 986 l 540 986 m 483 522 q 605 561 561 522 q 649 669 649 600 q 606 778 649 739 q 483 817 563 817 l 338 817 l 338 522 l 483 522 z "},"Q":{"ha":1053,"x_min":40,"x_max":1013,"o":"m 739 17 q 894 -35 794 -35 q 972 -24 931 -35 l 972 -206 q 868 -214 917 -214 q 664 -165 746 -214 q 546 -24 582 -115 l 526 -24 q 269 40 379 -24 q 100 219 160 103 q 40 493 40 336 q 100 767 40 650 q 269 947 160 883 q 526 1010 379 1010 q 783 947 674 1010 q 953 767 893 883 q 1013 493 1013 650 q 940 196 1013 319 q 739 17 868 72 m 281 493 q 346 249 281 338 q 526 160 411 160 q 706 248 642 160 q 771 493 771 336 q 706 738 771 650 q 526 826 642 826 q 346 738 411 826 q 281 493 281 650 z "},"R":{"ha":963,"x_min":103,"x_max":922,"o":"m 479 378 l 338 378 l 338 0 l 103 0 l 103 986 l 536 986 q 808 906 718 986 q 897 683 897 825 q 847 517 897 589 q 704 413 797 444 l 922 0 l 668 0 l 479 378 m 338 539 l 489 539 q 613 576 572 539 q 653 683 653 614 q 489 821 653 821 l 338 821 l 338 539 z "},"S":{"ha":869,"x_min":-3,"x_max":838,"o":"m 431 -24 q 163 38 275 -24 q -3 206 50 99 l 171 328 q 278 203 211 247 q 439 158 344 158 q 561 187 514 158 q 608 271 608 215 q 576 351 608 325 q 465 393 543 376 l 333 421 q 61 717 61 481 q 108 873 61 807 q 241 974 154 939 q 446 1010 328 1010 q 683 960 581 1010 q 838 814 786 911 l 685 685 q 581 797 647 757 q 431 836 515 836 q 319 809 361 836 q 278 735 278 782 q 310 660 278 688 q 421 615 343 633 l 564 585 q 767 485 700 554 q 833 293 833 417 q 786 127 833 199 q 648 16 739 56 q 431 -24 557 -24 z "},"T":{"ha":825,"x_min":10,"x_max":817,"o":"m 817 800 l 529 800 l 529 0 l 296 0 l 296 800 l 10 800 l 10 986 l 817 986 l 817 800 z "},"U":{"ha":1008,"x_min":86,"x_max":922,"o":"m 321 986 l 321 354 q 369 217 321 267 q 504 167 418 167 q 639 217 590 167 q 688 354 688 267 l 688 986 l 922 986 l 922 344 q 872 149 922 232 q 728 22 822 67 q 504 -24 633 -24 q 281 22 375 -24 q 136 149 186 67 q 86 344 86 232 l 86 986 l 321 986 z "},"V":{"ha":940,"x_min":3,"x_max":938,"o":"m 3 986 l 253 986 l 436 350 q 467 214 461 261 l 472 214 q 504 350 481 275 l 688 986 l 938 986 l 606 0 l 335 0 l 3 986 z "},"W":{"ha":1338,"x_min":26,"x_max":1313,"o":"m 26 986 l 263 986 l 388 346 q 397 264 394 304 l 401 264 q 413 346 404 307 l 551 986 l 786 986 l 926 346 q 938 264 935 307 l 942 264 q 950 346 944 315 l 1076 986 l 1313 986 l 1078 0 l 815 0 l 679 669 q 672 742 675 693 l 667 742 q 658 669 665 703 l 522 0 l 261 0 l 26 986 z "},"X":{"ha":971,"x_min":13,"x_max":960,"o":"m 339 513 l 32 986 l 292 986 l 454 710 q 483 647 476 671 l 486 647 q 515 710 493 671 l 682 986 l 936 986 l 631 499 l 960 0 l 696 0 l 517 292 q 478 365 489 336 l 475 365 q 438 289 463 329 l 267 0 l 13 0 l 339 513 z "},"Y":{"ha":883,"x_min":-4,"x_max":888,"o":"m 324 357 l -4 986 l 243 986 l 417 622 q 440 550 435 583 l 443 550 q 467 622 449 583 l 639 986 l 888 986 l 560 357 l 560 0 l 324 0 l 324 357 z "},"Z":{"ha":844,"x_min":49,"x_max":813,"o":"m 524 804 l 68 804 l 68 986 l 792 986 l 792 817 l 319 181 l 813 181 l 813 0 l 49 0 l 49 169 l 524 804 z "},"Á":{"ha":1022,"x_min":19,"x_max":1004,"o":"m 596 1046 l 426 1046 l 564 1210 l 757 1210 l 596 1046 m 693 231 l 329 231 l 254 0 l 19 0 l 378 986 l 646 986 l 1004 0 l 768 0 l 693 231 m 639 396 l 549 671 q 513 810 525 742 l 510 810 q 474 671 500 754 l 383 396 l 639 396 z "},"Ă":{"ha":1022,"x_min":19,"x_max":1004,"o":"m 513 1039 q 341 1083 403 1039 q 271 1210 279 1128 l 411 1210 q 442 1160 415 1178 q 513 1143 468 1143 q 582 1160 556 1143 q 613 1210 608 1178 l 753 1210 q 683 1083 744 1128 q 513 1039 622 1039 m 693 231 l 329 231 l 254 0 l 19 0 l 378 986 l 646 986 l 1004 0 l 768 0 l 693 231 m 639 396 l 549 671 q 513 810 525 742 l 510 810 q 474 671 500 754 l 383 396 l 639 396 z "},"Â":{"ha":1022,"x_min":19,"x_max":1004,"o":"m 418 1046 l 246 1046 l 393 1210 l 628 1210 l 775 1046 l 604 1046 l 511 1149 l 418 1046 m 693 231 l 329 231 l 254 0 l 19 0 l 378 986 l 646 986 l 1004 0 l 768 0 l 693 231 m 639 396 l 549 671 q 513 810 525 742 l 510 810 q 474 671 500 754 l 383 396 l 639 396 z "},"Ä":{"ha":1022,"x_min":19,"x_max":1004,"o":"m 446 1046 l 261 1046 l 261 1206 l 446 1206 l 446 1046 m 761 1046 l 576 1046 l 576 1206 l 761 1206 l 761 1046 m 693 231 l 329 231 l 254 0 l 19 0 l 378 986 l 646 986 l 1004 0 l 768 0 l 693 231 m 639 396 l 549 671 q 513 810 525 742 l 510 810 q 474 671 500 754 l 383 396 l 639 396 z "},"Æ":{"ha":1385,"x_min":-18,"x_max":1317,"o":"m 1317 174 l 1317 0 l 658 0 l 658 217 l 331 217 l 215 0 l -18 0 l 549 986 l 1307 986 l 1307 813 l 892 813 l 892 590 l 1283 590 l 1283 418 l 892 418 l 892 174 l 1317 174 m 658 383 l 658 836 l 418 383 l 658 383 z "},"Ǽ":{"ha":1385,"x_min":-18,"x_max":1317,"o":"m 1036 1046 l 867 1046 l 1004 1210 l 1197 1210 l 1036 1046 m 1317 174 l 1317 0 l 658 0 l 658 217 l 331 217 l 215 0 l -18 0 l 549 986 l 1307 986 l 1307 813 l 892 813 l 892 590 l 1283 590 l 1283 418 l 892 418 l 892 174 l 1317 174 m 658 383 l 658 836 l 418 383 l 658 383 z "},"À":{"ha":1022,"x_min":19,"x_max":1004,"o":"m 418 1046 l 257 1210 l 450 1210 l 588 1046 l 418 1046 m 693 231 l 329 231 l 254 0 l 19 0 l 378 986 l 646 986 l 1004 0 l 768 0 l 693 231 m 639 396 l 549 671 q 513 810 525 742 l 510 810 q 474 671 500 754 l 383 396 l 639 396 z "},"Ā":{"ha":1022,"x_min":19,"x_max":1004,"o":"m 761 1053 l 261 1053 l 261 1188 l 761 1188 l 761 1053 m 693 231 l 329 231 l 254 0 l 19 0 l 378 986 l 646 986 l 1004 0 l 768 0 l 693 231 m 639 396 l 549 671 q 513 810 525 742 l 510 810 q 474 671 500 754 l 383 396 l 639 396 z "},"Ą":{"ha":1022,"x_min":19,"x_max":1004,"o":"m 693 231 l 329 231 l 254 0 l 19 0 l 378 986 l 646 986 l 1004 0 l 768 0 l 693 231 m 639 396 l 549 671 q 513 810 525 742 l 510 810 q 474 671 500 754 l 383 396 l 639 396 m 993 -174 q 919 -256 963 -229 q 810 -282 875 -282 q 685 -248 729 -282 q 640 -153 640 -214 q 768 0 640 -54 l 926 0 q 808 -56 846 -19 q 771 -132 771 -92 q 784 -169 771 -156 q 822 -182 797 -182 q 863 -168 844 -182 q 900 -125 882 -154 l 993 -174 z "},"Å":{"ha":1022,"x_min":19,"x_max":1004,"o":"m 511 1033 q 383 1078 432 1033 q 335 1197 335 1124 q 383 1315 335 1271 q 511 1360 432 1360 q 640 1315 590 1360 q 689 1197 689 1269 q 640 1078 689 1124 q 511 1033 590 1033 m 511 1271 q 459 1250 479 1271 q 439 1197 439 1229 q 459 1144 439 1165 q 511 1124 479 1124 q 563 1144 543 1124 q 583 1197 583 1165 q 563 1250 583 1229 q 511 1271 543 1271 m 693 231 l 329 231 l 254 0 l 19 0 l 378 986 l 646 986 l 1004 0 l 768 0 l 693 231 m 639 396 l 549 671 q 513 810 525 742 l 510 810 q 474 671 500 754 l 383 396 l 639 396 z "},"Ã":{"ha":1022,"x_min":19,"x_max":1004,"o":"m 410 1115 q 369 1098 385 1115 q 343 1040 354 1081 l 235 1078 q 294 1197 249 1154 q 408 1239 340 1239 q 476 1226 449 1239 q 536 1188 504 1213 q 577 1161 561 1169 q 613 1153 593 1153 q 653 1170 638 1153 q 679 1228 668 1188 l 786 1190 q 727 1072 772 1114 q 614 1031 682 1031 q 547 1043 575 1031 q 485 1081 519 1056 q 444 1107 460 1099 q 410 1115 428 1115 m 693 231 l 329 231 l 254 0 l 19 0 l 378 986 l 646 986 l 1004 0 l 768 0 l 693 231 m 639 396 l 549 671 q 513 810 525 742 l 510 810 q 474 671 500 754 l 383 396 l 639 396 z "},"Ć":{"ha":999,"x_min":40,"x_max":965,"o":"m 564 1210 l 757 1210 l 596 1046 l 426 1046 l 564 1210 m 521 -24 q 259 40 367 -24 q 96 219 151 103 q 40 492 40 335 q 99 764 40 647 q 266 945 157 881 q 524 1010 375 1010 q 825 915 710 1010 q 960 656 940 819 l 722 614 q 658 767 711 713 q 518 821 606 821 q 344 733 407 821 q 281 493 281 644 q 345 256 281 344 q 525 167 410 167 q 660 220 607 167 q 728 369 713 274 l 965 318 q 815 67 929 158 q 521 -24 700 -24 z "},"Č":{"ha":999,"x_min":40,"x_max":965,"o":"m 629 1039 l 394 1039 l 247 1203 l 418 1203 l 511 1100 l 604 1203 l 776 1203 l 629 1039 m 521 -24 q 259 40 367 -24 q 96 219 151 103 q 40 492 40 335 q 99 764 40 647 q 266 945 157 881 q 524 1010 375 1010 q 825 915 710 1010 q 960 656 940 819 l 722 614 q 658 767 711 713 q 518 821 606 821 q 344 733 407 821 q 281 493 281 644 q 345 256 281 344 q 525 167 410 167 q 660 220 607 167 q 728 369 713 274 l 965 318 q 815 67 929 158 q 521 -24 700 -24 z "},"Ç":{"ha":999,"x_min":40,"x_max":965,"o":"m 965 318 q 827 77 932 167 q 558 -22 722 -12 l 533 -64 q 608 -43 561 -43 q 701 -74 667 -43 q 735 -164 735 -106 q 685 -262 735 -228 q 553 -296 636 -296 q 441 -272 486 -296 q 376 -206 396 -249 l 493 -176 q 547 -210 508 -210 q 588 -196 572 -210 q 603 -158 603 -182 q 588 -122 603 -136 q 549 -108 572 -108 q 503 -129 519 -108 l 419 -110 l 458 -21 q 149 134 257 -3 q 40 492 40 271 q 99 764 40 647 q 266 945 157 881 q 524 1010 375 1010 q 825 915 710 1010 q 960 656 940 819 l 722 614 q 658 767 711 713 q 518 821 606 821 q 344 733 407 821 q 281 493 281 644 q 345 256 281 344 q 525 167 410 167 q 660 220 607 167 q 728 369 713 274 l 965 318 z "},"Ĉ":{"ha":999,"x_min":40,"x_max":965,"o":"m 604 1046 l 511 1149 l 418 1046 l 246 1046 l 393 1210 l 628 1210 l 775 1046 l 604 1046 m 521 -24 q 259 40 367 -24 q 96 219 151 103 q 40 492 40 335 q 99 764 40 647 q 266 945 157 881 q 524 1010 375 1010 q 825 915 710 1010 q 960 656 940 819 l 722 614 q 658 767 711 713 q 518 821 606 821 q 344 733 407 821 q 281 493 281 644 q 345 256 281 344 q 525 167 410 167 q 660 220 607 167 q 728 369 713 274 l 965 318 q 815 67 929 158 q 521 -24 700 -24 z "},"Ċ":{"ha":999,"x_min":40,"x_max":965,"o":"m 397 1210 l 625 1210 l 625 1046 l 397 1046 l 397 1210 m 521 -24 q 259 40 367 -24 q 96 219 151 103 q 40 492 40 335 q 99 764 40 647 q 266 945 157 881 q 524 1010 375 1010 q 825 915 710 1010 q 960 656 940 819 l 722 614 q 658 767 711 713 q 518 821 606 821 q 344 733 407 821 q 281 493 281 644 q 345 256 281 344 q 525 167 410 167 q 660 220 607 167 q 728 369 713 274 l 965 318 q 815 67 929 158 q 521 -24 700 -24 z "},"Ď":{"ha":1024,"x_min":103,"x_max":983,"o":"m 603 1039 l 368 1039 l 221 1203 l 392 1203 l 485 1100 l 578 1203 l 750 1203 l 603 1039 m 103 986 l 496 986 q 752 925 642 986 q 923 753 863 864 q 983 499 983 643 q 923 238 983 351 q 751 63 863 125 q 493 0 640 0 l 103 0 l 103 986 m 483 172 q 622 216 564 172 q 711 334 681 260 q 742 499 742 408 q 675 726 742 639 q 486 814 608 814 l 338 814 l 338 172 l 483 172 z "},"Đ":{"ha":1024,"x_min":-1,"x_max":983,"o":"m 496 986 q 752 925 642 986 q 923 753 863 864 q 983 499 983 643 q 923 238 983 351 q 751 63 863 125 q 493 0 640 0 l 103 0 l 103 447 l -1 447 l -1 578 l 103 578 l 103 986 l 496 986 m 483 172 q 622 216 564 172 q 711 334 681 260 q 742 499 742 408 q 675 726 742 639 q 486 814 608 814 l 338 814 l 338 578 l 535 578 l 535 447 l 338 447 l 338 172 l 483 172 z "},"É":{"ha":856,"x_min":103,"x_max":788,"o":"m 536 1046 l 367 1046 l 504 1210 l 697 1210 l 536 1046 m 788 174 l 788 0 l 103 0 l 103 986 l 778 986 l 778 813 l 338 813 l 338 590 l 754 590 l 754 418 l 338 418 l 338 174 l 788 174 z "},"Ĕ":{"ha":856,"x_min":103,"x_max":788,"o":"m 453 1039 q 281 1083 343 1039 q 211 1210 219 1128 l 351 1210 q 382 1160 356 1178 q 453 1143 408 1143 q 522 1160 496 1143 q 553 1210 549 1178 l 693 1210 q 624 1083 685 1128 q 453 1039 563 1039 m 788 174 l 788 0 l 103 0 l 103 986 l 778 986 l 778 813 l 338 813 l 338 590 l 754 590 l 754 418 l 338 418 l 338 174 l 788 174 z "},"Ě":{"ha":856,"x_min":103,"x_max":788,"o":"m 335 1039 l 188 1203 l 358 1203 l 451 1100 l 544 1203 l 717 1203 l 569 1039 l 335 1039 m 788 174 l 788 0 l 103 0 l 103 986 l 778 986 l 778 813 l 338 813 l 338 590 l 754 590 l 754 418 l 338 418 l 338 174 l 788 174 z "},"Ê":{"ha":856,"x_min":103,"x_max":788,"o":"m 358 1046 l 186 1046 l 333 1210 l 568 1210 l 715 1046 l 544 1046 l 451 1149 l 358 1046 m 788 174 l 788 0 l 103 0 l 103 986 l 778 986 l 778 813 l 338 813 l 338 590 l 754 590 l 754 418 l 338 418 l 338 174 l 788 174 z "},"Ë":{"ha":856,"x_min":103,"x_max":788,"o":"m 386 1046 l 201 1046 l 201 1206 l 386 1206 l 386 1046 m 701 1046 l 517 1046 l 517 1206 l 701 1206 l 701 1046 m 788 174 l 788 0 l 103 0 l 103 986 l 778 986 l 778 813 l 338 813 l 338 590 l 754 590 l 754 418 l 338 418 l 338 174 l 788 174 z "},"Ė":{"ha":856,"x_min":103,"x_max":788,"o":"m 565 1046 l 338 1046 l 338 1210 l 565 1210 l 565 1046 m 788 174 l 788 0 l 103 0 l 103 986 l 778 986 l 778 813 l 338 813 l 338 590 l 754 590 l 754 418 l 338 418 l 338 174 l 788 174 z "},"È":{"ha":856,"x_min":103,"x_max":788,"o":"m 358 1046 l 197 1210 l 390 1210 l 528 1046 l 358 1046 m 788 174 l 788 0 l 103 0 l 103 986 l 778 986 l 778 813 l 338 813 l 338 590 l 754 590 l 754 418 l 338 418 l 338 174 l 788 174 z "},"Ē":{"ha":856,"x_min":103,"x_max":788,"o":"m 701 1053 l 201 1053 l 201 1188 l 701 1188 l 701 1053 m 788 174 l 788 0 l 103 0 l 103 986 l 778 986 l 778 813 l 338 813 l 338 590 l 754 590 l 754 418 l 338 418 l 338 174 l 788 174 z "},"Ę":{"ha":856,"x_min":103,"x_max":854,"o":"m 788 174 l 788 0 l 103 0 l 103 986 l 778 986 l 778 813 l 338 813 l 338 590 l 754 590 l 754 418 l 338 418 l 338 174 l 788 174 m 854 -174 q 780 -256 824 -229 q 671 -282 736 -282 q 546 -248 590 -282 q 501 -153 501 -214 q 629 0 501 -54 l 788 0 q 669 -56 707 -19 q 632 -132 632 -92 q 645 -169 632 -156 q 683 -182 658 -182 q 724 -168 706 -182 q 761 -125 743 -154 l 854 -174 z "},"Ð":{"ha":1024,"x_min":-1,"x_max":983,"o":"m 496 986 q 752 925 642 986 q 923 753 863 864 q 983 499 983 643 q 923 238 983 351 q 751 63 863 125 q 493 0 640 0 l 103 0 l 103 447 l -1 447 l -1 578 l 103 578 l 103 986 l 496 986 m 483 172 q 622 216 564 172 q 711 334 681 260 q 742 499 742 408 q 675 726 742 639 q 486 814 608 814 l 338 814 l 338 578 l 535 578 l 535 447 l 338 447 l 338 172 l 483 172 z "},"Ğ":{"ha":1035,"x_min":40,"x_max":963,"o":"m 418 1210 q 449 1160 422 1178 q 519 1143 475 1143 q 589 1160 563 1143 q 619 1210 615 1178 l 760 1210 q 690 1083 751 1128 q 519 1039 629 1039 q 348 1083 410 1039 q 278 1210 286 1128 l 418 1210 m 478 -24 q 244 40 343 -24 q 93 219 146 103 q 40 492 40 336 q 99 763 40 646 q 269 945 158 881 q 529 1010 381 1010 q 744 969 653 1010 q 890 860 836 929 q 958 707 943 792 l 726 664 q 663 786 713 739 q 528 833 614 833 q 346 742 411 833 q 281 494 281 651 q 344 247 281 336 q 531 157 408 157 q 651 188 601 157 q 724 267 700 219 q 749 360 749 314 l 749 381 l 506 381 l 506 549 l 963 549 l 963 0 l 796 0 l 786 144 q 669 21 749 65 q 478 -24 589 -24 z "},"Ĝ":{"ha":1035,"x_min":40,"x_max":963,"o":"m 611 1046 l 518 1149 l 425 1046 l 253 1046 l 400 1210 l 635 1210 l 782 1046 l 611 1046 m 478 -24 q 244 40 343 -24 q 93 219 146 103 q 40 492 40 336 q 99 763 40 646 q 269 945 158 881 q 529 1010 381 1010 q 744 969 653 1010 q 890 860 836 929 q 958 707 943 792 l 726 664 q 663 786 713 739 q 528 833 614 833 q 346 742 411 833 q 281 494 281 651 q 344 247 281 336 q 531 157 408 157 q 651 188 601 157 q 724 267 700 219 q 749 360 749 314 l 749 381 l 506 381 l 506 549 l 963 549 l 963 0 l 796 0 l 786 144 q 669 21 749 65 q 478 -24 589 -24 z "},"Ģ":{"ha":1035,"x_min":40,"x_max":963,"o":"m 478 -24 q 244 40 343 -24 q 93 219 146 103 q 40 492 40 336 q 99 763 40 646 q 269 945 158 881 q 529 1010 381 1010 q 744 969 653 1010 q 890 860 836 929 q 958 707 943 792 l 726 664 q 663 786 713 739 q 528 833 614 833 q 346 742 411 833 q 281 494 281 651 q 344 247 281 336 q 531 157 408 157 q 651 188 601 157 q 724 267 700 219 q 749 360 749 314 l 749 381 l 506 381 l 506 549 l 963 549 l 963 0 l 796 0 l 786 144 q 669 21 749 65 q 478 -24 589 -24 m 449 -262 q 501 -239 486 -253 q 517 -197 517 -225 l 426 -197 l 426 -56 l 610 -56 l 610 -179 q 486 -333 610 -308 l 449 -262 z "},"Ġ":{"ha":1035,"x_min":40,"x_max":963,"o":"m 404 1210 l 632 1210 l 632 1046 l 404 1046 l 404 1210 m 478 -24 q 244 40 343 -24 q 93 219 146 103 q 40 492 40 336 q 99 763 40 646 q 269 945 158 881 q 529 1010 381 1010 q 744 969 653 1010 q 890 860 836 929 q 958 707 943 792 l 726 664 q 663 786 713 739 q 528 833 614 833 q 346 742 411 833 q 281 494 281 651 q 344 247 281 336 q 531 157 408 157 q 651 188 601 157 q 724 267 700 219 q 749 360 749 314 l 749 381 l 506 381 l 506 549 l 963 549 l 963 0 l 796 0 l 786 144 q 669 21 749 65 q 478 -24 589 -24 z "},"Ħ":{"ha":1054,"x_min":8,"x_max":1047,"o":"m 1047 733 l 951 733 l 951 0 l 717 0 l 717 410 l 338 410 l 338 0 l 103 0 l 103 733 l 8 733 l 8 829 l 103 829 l 103 986 l 338 986 l 338 829 l 717 829 l 717 986 l 951 986 l 951 829 l 1047 829 l 1047 733 m 717 733 l 338 733 l 338 590 l 717 590 l 717 733 z "},"Ĥ":{"ha":1054,"x_min":103,"x_max":951,"o":"m 621 1046 l 528 1149 l 435 1046 l 263 1046 l 410 1210 l 644 1210 l 792 1046 l 621 1046 m 951 0 l 717 0 l 717 410 l 338 410 l 338 0 l 103 0 l 103 986 l 338 986 l 338 590 l 717 590 l 717 986 l 951 986 l 951 0 z "},"Í":{"ha":440,"x_min":103,"x_max":431,"o":"m 240 1210 l 431 1210 l 303 1046 l 136 1046 l 240 1210 m 103 0 l 103 986 l 338 986 l 338 0 l 103 0 z "},"Ĭ":{"ha":440,"x_min":10,"x_max":431,"o":"m 150 1210 q 169 1162 151 1179 q 221 1144 188 1144 q 271 1162 253 1144 q 290 1210 289 1179 l 431 1210 q 372 1083 425 1128 q 221 1039 318 1039 q 69 1083 124 1039 q 10 1210 15 1128 l 150 1210 m 103 0 l 103 986 l 338 986 l 338 0 l 103 0 z "},"Î":{"ha":440,"x_min":4,"x_max":438,"o":"m 278 1046 l 221 1149 l 164 1046 l 4 1046 l 103 1210 l 338 1210 l 438 1046 l 278 1046 m 103 0 l 103 986 l 338 986 l 338 0 l 103 0 z "},"Ï":{"ha":440,"x_min":15,"x_max":428,"o":"m 15 1206 l 192 1206 l 192 1046 l 15 1046 l 15 1206 m 251 1206 l 428 1206 l 428 1046 l 251 1046 l 251 1206 m 103 0 l 103 986 l 338 986 l 338 0 l 103 0 z "},"İ":{"ha":440,"x_min":103,"x_max":338,"o":"m 107 1210 l 335 1210 l 335 1046 l 107 1046 l 107 1210 m 103 0 l 103 986 l 338 986 l 338 0 l 103 0 z "},"Ì":{"ha":440,"x_min":8,"x_max":338,"o":"m 136 1046 l 8 1210 l 199 1210 l 303 1046 l 136 1046 m 103 0 l 103 986 l 338 986 l 338 0 l 103 0 z "},"Ĳ":{"ha":1022,"x_min":103,"x_max":936,"o":"m 103 0 l 103 986 l 338 986 l 338 0 l 103 0 m 936 292 q 850 60 936 136 q 610 -17 764 -17 q 464 -4 518 -17 l 464 186 q 558 179 513 179 q 665 216 628 179 q 701 338 701 253 l 701 986 l 936 986 l 936 292 z "},"Ī":{"ha":440,"x_min":32,"x_max":408,"o":"m 32 1188 l 408 1188 l 408 1053 l 32 1053 l 32 1188 m 103 0 l 103 986 l 338 986 l 338 0 l 103 0 z "},"Į":{"ha":440,"x_min":-25,"x_max":338,"o":"m 103 0 l 103 986 l 338 986 l 338 0 l 103 0 m 328 -174 q 253 -256 297 -229 q 144 -282 210 -282 q 19 -248 64 -282 q -25 -153 -25 -214 q 103 0 -25 -54 l 261 0 q 143 -56 181 -19 q 106 -132 106 -92 q 119 -169 106 -156 q 157 -182 132 -182 q 198 -168 179 -182 q 235 -125 217 -154 l 328 -174 z "},"Ĩ":{"ha":440,"x_min":-14,"x_max":456,"o":"m 322 1039 q 259 1053 286 1039 q 201 1092 232 1067 q 165 1117 179 1108 q 135 1125 150 1125 q 90 1057 94 1125 l -14 1094 q 26 1206 -8 1164 q 119 1247 61 1247 q 183 1233 156 1247 q 240 1194 210 1219 q 277 1169 263 1178 q 307 1161 292 1161 q 351 1229 347 1161 l 456 1192 q 417 1081 451 1122 q 322 1039 382 1039 m 103 0 l 103 986 l 338 986 l 338 0 l 103 0 z "},"Ĵ":{"ha":582,"x_min":24,"x_max":596,"o":"m 436 1046 l 379 1149 l 322 1046 l 163 1046 l 261 1210 l 496 1210 l 596 1046 l 436 1046 m 496 292 q 410 60 496 136 q 169 -17 324 -17 q 24 -4 78 -17 l 24 186 q 118 179 72 179 q 224 216 188 179 q 261 338 261 253 l 261 986 l 496 986 l 496 292 z "},"Ķ":{"ha":992,"x_min":103,"x_max":974,"o":"m 450 421 l 338 290 l 338 0 l 103 0 l 103 986 l 338 986 l 338 563 l 686 986 l 954 986 l 608 586 l 974 0 l 707 0 l 450 421 m 429 -262 q 482 -239 467 -253 q 497 -197 497 -225 l 407 -197 l 407 -56 l 590 -56 l 590 -179 q 467 -333 590 -308 l 429 -262 z "},"Ĺ":{"ha":761,"x_min":103,"x_max":738,"o":"m 272 1210 l 465 1210 l 304 1046 l 135 1046 l 272 1210 m 103 986 l 338 986 l 338 190 l 738 190 l 738 0 l 103 0 l 103 986 z "},"Ľ":{"ha":761,"x_min":103,"x_max":738,"o":"m 103 986 l 338 986 l 338 190 l 738 190 l 738 0 l 103 0 l 103 986 m 439 790 q 492 810 476 797 q 507 844 507 822 l 417 844 l 417 986 l 600 986 l 600 863 q 472 724 600 746 l 439 790 z "},"Ļ":{"ha":761,"x_min":103,"x_max":738,"o":"m 103 986 l 338 986 l 338 190 l 738 190 l 738 0 l 103 0 l 103 986 m 364 -262 q 417 -239 401 -253 q 432 -197 432 -225 l 342 -197 l 342 -56 l 525 -56 l 525 -179 q 401 -333 525 -308 l 364 -262 z "},"Ŀ":{"ha":761,"x_min":103,"x_max":738,"o":"m 103 986 l 338 986 l 338 190 l 738 190 l 738 0 l 103 0 l 103 986 z "},"Ł":{"ha":761,"x_min":-6,"x_max":738,"o":"m 738 190 l 738 0 l 103 0 l 103 338 l -6 281 l -6 414 l 103 471 l 103 986 l 338 986 l 338 596 l 585 728 l 585 594 l 338 463 l 338 190 l 738 190 z "},"Ń":{"ha":1058,"x_min":103,"x_max":956,"o":"m 581 1210 l 774 1210 l 613 1046 l 443 1046 l 581 1210 m 103 986 l 363 986 l 679 424 q 739 296 724 340 l 742 296 l 740 422 l 740 986 l 956 986 l 956 0 l 706 0 l 378 568 q 319 689 342 631 l 317 689 l 318 558 l 318 0 l 103 0 l 103 986 z "},"Ň":{"ha":1058,"x_min":103,"x_max":956,"o":"m 647 1039 l 413 1039 l 265 1203 l 436 1203 l 529 1100 l 622 1203 l 794 1203 l 647 1039 m 103 986 l 363 986 l 679 424 q 739 296 724 340 l 742 296 l 740 422 l 740 986 l 956 986 l 956 0 l 706 0 l 378 568 q 319 689 342 631 l 317 689 l 318 558 l 318 0 l 103 0 l 103 986 z "},"Ņ":{"ha":1058,"x_min":103,"x_max":956,"o":"m 103 986 l 363 986 l 679 424 q 739 296 724 340 l 742 296 l 740 422 l 740 986 l 956 986 l 956 0 l 706 0 l 378 568 q 319 689 342 631 l 317 689 l 318 558 l 318 0 l 103 0 l 103 986 m 460 -262 q 513 -239 497 -253 q 528 -197 528 -225 l 438 -197 l 438 -56 l 621 -56 l 621 -179 q 497 -333 621 -308 l 460 -262 z "},"Ñ":{"ha":1058,"x_min":103,"x_max":956,"o":"m 632 1031 q 565 1043 593 1031 q 503 1081 538 1056 q 462 1107 478 1099 q 428 1115 446 1115 q 388 1098 403 1115 q 361 1040 372 1081 l 253 1078 q 313 1197 267 1154 q 426 1239 358 1239 q 494 1226 467 1239 q 554 1188 522 1213 q 595 1161 579 1169 q 631 1153 611 1153 q 671 1170 656 1153 q 697 1228 686 1188 l 804 1190 q 745 1072 790 1114 q 632 1031 700 1031 m 103 986 l 363 986 l 679 424 q 739 296 724 340 l 742 296 l 740 422 l 740 986 l 956 986 l 956 0 l 706 0 l 378 568 q 319 689 342 631 l 317 689 l 318 558 l 318 0 l 103 0 l 103 986 z "},"Ŋ":{"ha":1058,"x_min":103,"x_max":956,"o":"m 956 986 l 956 -11 q 665 -289 956 -289 q 519 -276 589 -289 l 519 -97 q 640 -106 568 -106 q 710 -84 682 -106 q 739 -12 739 -62 l 739 0 l 706 0 l 378 568 q 319 689 342 631 l 317 689 l 318 558 l 318 0 l 103 0 l 103 986 l 363 986 l 679 424 q 739 296 724 340 l 742 296 l 740 422 l 740 986 l 956 986 z "},"Ó":{"ha":1053,"x_min":40,"x_max":1013,"o":"m 578 1210 l 771 1210 l 610 1046 l 440 1046 l 578 1210 m 526 -24 q 269 40 379 -24 q 100 219 160 103 q 40 493 40 336 q 100 767 40 650 q 269 947 160 883 q 526 1010 379 1010 q 783 947 674 1010 q 953 767 893 883 q 1013 493 1013 650 q 953 219 1013 336 q 783 40 893 103 q 526 -24 674 -24 m 526 160 q 706 248 642 160 q 771 493 771 336 q 706 738 771 650 q 526 826 642 826 q 346 738 411 826 q 281 493 281 650 q 346 249 281 338 q 526 160 411 160 z "},"Ŏ":{"ha":1053,"x_min":40,"x_max":1013,"o":"m 425 1210 q 456 1160 429 1178 q 526 1143 482 1143 q 596 1160 569 1143 q 626 1210 622 1178 l 767 1210 q 697 1083 758 1128 q 526 1039 636 1039 q 355 1083 417 1039 q 285 1210 293 1128 l 425 1210 m 526 -24 q 269 40 379 -24 q 100 219 160 103 q 40 493 40 336 q 100 767 40 650 q 269 947 160 883 q 526 1010 379 1010 q 783 947 674 1010 q 953 767 893 883 q 1013 493 1013 650 q 953 219 1013 336 q 783 40 893 103 q 526 -24 674 -24 m 526 160 q 706 248 642 160 q 771 493 771 336 q 706 738 771 650 q 526 826 642 826 q 346 738 411 826 q 281 493 281 650 q 346 249 281 338 q 526 160 411 160 z "},"Ô":{"ha":1053,"x_min":40,"x_max":1013,"o":"m 619 1046 l 526 1149 l 433 1046 l 261 1046 l 408 1210 l 643 1210 l 790 1046 l 619 1046 m 526 -24 q 269 40 379 -24 q 100 219 160 103 q 40 493 40 336 q 100 767 40 650 q 269 947 160 883 q 526 1010 379 1010 q 783 947 674 1010 q 953 767 893 883 q 1013 493 1013 650 q 953 219 1013 336 q 783 40 893 103 q 526 -24 674 -24 m 526 160 q 706 248 642 160 q 771 493 771 336 q 706 738 771 650 q 526 826 642 826 q 346 738 411 826 q 281 493 281 650 q 346 249 281 338 q 526 160 411 160 z "},"Ö":{"ha":1053,"x_min":40,"x_max":1013,"o":"m 276 1206 l 461 1206 l 461 1046 l 276 1046 l 276 1206 m 592 1206 l 776 1206 l 776 1046 l 592 1046 l 592 1206 m 526 -24 q 269 40 379 -24 q 100 219 160 103 q 40 493 40 336 q 100 767 40 650 q 269 947 160 883 q 526 1010 379 1010 q 783 947 674 1010 q 953 767 893 883 q 1013 493 1013 650 q 953 219 1013 336 q 783 40 893 103 q 526 -24 674 -24 m 526 160 q 706 248 642 160 q 771 493 771 336 q 706 738 771 650 q 526 826 642 826 q 346 738 411 826 q 281 493 281 650 q 346 249 281 338 q 526 160 411 160 z "},"Œ":{"ha":1388,"x_min":40,"x_max":1319,"o":"m 1319 174 l 1319 0 l 532 0 q 271 61 382 0 q 100 234 160 122 q 40 494 40 346 q 99 756 40 644 q 269 926 158 867 q 529 986 379 986 l 1310 986 l 1310 813 l 868 813 l 868 590 l 1286 590 l 1286 418 l 868 418 l 868 174 l 1319 174 m 635 172 l 635 814 l 551 814 q 351 728 421 814 q 281 494 281 642 q 353 261 281 350 q 554 172 426 172 l 635 172 z "},"Ò":{"ha":1053,"x_min":40,"x_max":1013,"o":"m 433 1046 l 272 1210 l 465 1210 l 603 1046 l 433 1046 m 526 -24 q 269 40 379 -24 q 100 219 160 103 q 40 493 40 336 q 100 767 40 650 q 269 947 160 883 q 526 1010 379 1010 q 783 947 674 1010 q 953 767 893 883 q 1013 493 1013 650 q 953 219 1013 336 q 783 40 893 103 q 526 -24 674 -24 m 526 160 q 706 248 642 160 q 771 493 771 336 q 706 738 771 650 q 526 826 642 826 q 346 738 411 826 q 281 493 281 650 q 346 249 281 338 q 526 160 411 160 z "},"Ő":{"ha":1053,"x_min":40,"x_max":1013,"o":"m 444 1210 l 628 1210 l 486 1047 l 310 1047 l 444 1210 m 701 1210 l 883 1210 l 742 1047 l 567 1047 l 701 1210 m 526 -24 q 269 40 379 -24 q 100 219 160 103 q 40 493 40 336 q 100 767 40 650 q 269 947 160 883 q 526 1010 379 1010 q 783 947 674 1010 q 953 767 893 883 q 1013 493 1013 650 q 953 219 1013 336 q 783 40 893 103 q 526 -24 674 -24 m 526 160 q 706 248 642 160 q 771 493 771 336 q 706 738 771 650 q 526 826 642 826 q 346 738 411 826 q 281 493 281 650 q 346 249 281 338 q 526 160 411 160 z "},"Ō":{"ha":1053,"x_min":40,"x_max":1013,"o":"m 276 1188 l 776 1188 l 776 1053 l 276 1053 l 276 1188 m 526 -24 q 269 40 379 -24 q 100 219 160 103 q 40 493 40 336 q 100 767 40 650 q 269 947 160 883 q 526 1010 379 1010 q 783 947 674 1010 q 953 767 893 883 q 1013 493 1013 650 q 953 219 1013 336 q 783 40 893 103 q 526 -24 674 -24 m 526 160 q 706 248 642 160 q 771 493 771 336 q 706 738 771 650 q 526 826 642 826 q 346 738 411 826 q 281 493 281 650 q 346 249 281 338 q 526 160 411 160 z "},"Ø":{"ha":1053,"x_min":40,"x_max":1013,"o":"m 881 869 q 978 707 944 803 q 1013 493 1013 611 q 953 219 1013 336 q 783 40 893 103 q 526 -24 674 -24 q 242 57 360 -24 l 175 -29 l 100 25 l 172 117 q 74 279 108 183 q 40 493 40 375 q 100 767 40 650 q 269 947 160 883 q 526 1010 379 1010 q 811 929 693 1010 l 878 1015 l 953 961 l 881 869 m 281 493 q 317 300 281 381 l 682 767 q 526 826 619 826 q 346 738 411 826 q 281 493 281 650 m 526 160 q 706 248 642 160 q 771 493 771 336 q 736 685 771 604 l 371 219 q 526 160 433 160 z "},"Ǿ":{"ha":1053,"x_min":40,"x_max":1013,"o":"m 615 1046 l 446 1046 l 583 1210 l 776 1210 l 615 1046 m 881 869 q 978 707 944 803 q 1013 493 1013 611 q 953 219 1013 336 q 783 40 893 103 q 526 -24 674 -24 q 242 57 360 -24 l 175 -29 l 100 25 l 172 117 q 74 279 108 183 q 40 493 40 375 q 100 767 40 650 q 269 947 160 883 q 526 1010 379 1010 q 811 929 693 1010 l 878 1015 l 953 961 l 881 869 m 281 493 q 317 300 281 381 l 682 767 q 526 826 619 826 q 346 738 411 826 q 281 493 281 650 m 526 160 q 706 248 642 160 q 771 493 771 336 q 736 685 771 604 l 371 219 q 526 160 433 160 z "},"Õ":{"ha":1053,"x_min":40,"x_max":1013,"o":"m 629 1031 q 563 1043 590 1031 q 500 1081 535 1056 q 459 1107 475 1099 q 425 1115 443 1115 q 385 1098 400 1115 q 358 1040 369 1081 l 250 1078 q 310 1197 264 1154 q 424 1239 356 1239 q 492 1226 464 1239 q 551 1188 519 1213 q 592 1161 576 1169 q 628 1153 608 1153 q 668 1170 653 1153 q 694 1228 683 1188 l 801 1190 q 742 1072 788 1114 q 629 1031 697 1031 m 526 -24 q 269 40 379 -24 q 100 219 160 103 q 40 493 40 336 q 100 767 40 650 q 269 947 160 883 q 526 1010 379 1010 q 783 947 674 1010 q 953 767 893 883 q 1013 493 1013 650 q 953 219 1013 336 q 783 40 893 103 q 526 -24 674 -24 m 526 160 q 706 248 642 160 q 771 493 771 336 q 706 738 771 650 q 526 826 642 826 q 346 738 411 826 q 281 493 281 650 q 346 249 281 338 q 526 160 411 160 z "},"Ŕ":{"ha":963,"x_min":103,"x_max":922,"o":"m 542 1046 l 372 1046 l 510 1210 l 703 1210 l 542 1046 m 479 378 l 338 378 l 338 0 l 103 0 l 103 986 l 536 986 q 808 906 718 986 q 897 683 897 825 q 847 517 897 589 q 704 413 797 444 l 922 0 l 668 0 l 479 378 m 338 539 l 489 539 q 613 576 572 539 q 653 683 653 614 q 489 821 653 821 l 338 821 l 338 539 z "},"Ř":{"ha":963,"x_min":103,"x_max":922,"o":"m 342 1039 l 194 1203 l 365 1203 l 458 1100 l 551 1203 l 724 1203 l 576 1039 l 342 1039 m 479 378 l 338 378 l 338 0 l 103 0 l 103 986 l 536 986 q 808 906 718 986 q 897 683 897 825 q 847 517 897 589 q 704 413 797 444 l 922 0 l 668 0 l 479 378 m 338 539 l 489 539 q 613 576 572 539 q 653 683 653 614 q 489 821 653 821 l 338 821 l 338 539 z "},"Ŗ":{"ha":963,"x_min":103,"x_max":922,"o":"m 479 378 l 338 378 l 338 0 l 103 0 l 103 986 l 536 986 q 808 906 718 986 q 897 683 897 825 q 847 517 897 589 q 704 413 797 444 l 922 0 l 668 0 l 479 378 m 338 539 l 489 539 q 613 576 572 539 q 653 683 653 614 q 489 821 653 821 l 338 821 l 338 539 m 421 -262 q 474 -239 458 -253 q 489 -197 489 -225 l 399 -197 l 399 -56 l 582 -56 l 582 -179 q 458 -333 582 -308 l 421 -262 z "},"Ś":{"ha":869,"x_min":-3,"x_max":838,"o":"m 490 1210 l 683 1210 l 522 1046 l 353 1046 l 490 1210 m 431 -24 q 163 38 275 -24 q -3 206 50 99 l 171 328 q 278 203 211 247 q 439 158 344 158 q 561 187 514 158 q 608 271 608 215 q 576 351 608 325 q 465 393 543 376 l 333 421 q 61 717 61 481 q 108 873 61 807 q 241 974 154 939 q 446 1010 328 1010 q 683 960 581 1010 q 838 814 786 911 l 685 685 q 581 797 647 757 q 431 836 515 836 q 319 809 361 836 q 278 735 278 782 q 310 660 278 688 q 421 615 343 633 l 564 585 q 767 485 700 554 q 833 293 833 417 q 786 127 833 199 q 648 16 739 56 q 431 -24 557 -24 z "},"Š":{"ha":869,"x_min":-3,"x_max":838,"o":"m 556 1039 l 321 1039 l 174 1203 l 344 1203 l 438 1100 l 531 1203 l 703 1203 l 556 1039 m 431 -24 q 163 38 275 -24 q -3 206 50 99 l 171 328 q 278 203 211 247 q 439 158 344 158 q 561 187 514 158 q 608 271 608 215 q 576 351 608 325 q 465 393 543 376 l 333 421 q 61 717 61 481 q 108 873 61 807 q 241 974 154 939 q 446 1010 328 1010 q 683 960 581 1010 q 838 814 786 911 l 685 685 q 581 797 647 757 q 431 836 515 836 q 319 809 361 836 q 278 735 278 782 q 310 660 278 688 q 421 615 343 633 l 564 585 q 767 485 700 554 q 833 293 833 417 q 786 127 833 199 q 648 16 739 56 q 431 -24 557 -24 z "},"Ş":{"ha":869,"x_min":-3,"x_max":838,"o":"m 564 585 q 767 485 700 554 q 833 293 833 417 q 744 78 833 163 q 493 -21 656 -7 l 467 -64 q 542 -43 494 -43 q 634 -74 600 -43 q 668 -164 668 -106 q 619 -262 668 -228 q 486 -296 569 -296 q 374 -272 419 -296 q 310 -206 329 -249 l 426 -176 q 481 -210 442 -210 q 521 -196 506 -210 q 536 -158 536 -182 q 521 -122 536 -136 q 482 -108 506 -108 q 436 -129 453 -108 l 353 -110 l 392 -22 q 148 45 250 -15 q -3 206 46 106 l 171 328 q 278 203 211 247 q 439 158 344 158 q 561 187 514 158 q 608 271 608 215 q 576 351 608 325 q 465 393 543 376 l 333 421 q 61 717 61 481 q 108 873 61 807 q 241 974 154 939 q 446 1010 328 1010 q 683 960 581 1010 q 838 814 786 911 l 685 685 q 581 797 647 757 q 431 836 515 836 q 319 809 361 836 q 278 735 278 782 q 310 660 278 688 q 421 615 343 633 l 564 585 z "},"Ŝ":{"ha":869,"x_min":-3,"x_max":838,"o":"m 531 1046 l 438 1149 l 344 1046 l 172 1046 l 319 1210 l 554 1210 l 701 1046 l 531 1046 m 431 -24 q 163 38 275 -24 q -3 206 50 99 l 171 328 q 278 203 211 247 q 439 158 344 158 q 561 187 514 158 q 608 271 608 215 q 576 351 608 325 q 465 393 543 376 l 333 421 q 61 717 61 481 q 108 873 61 807 q 241 974 154 939 q 446 1010 328 1010 q 683 960 581 1010 q 838 814 786 911 l 685 685 q 581 797 647 757 q 431 836 515 836 q 319 809 361 836 q 278 735 278 782 q 310 660 278 688 q 421 615 343 633 l 564 585 q 767 485 700 554 q 833 293 833 417 q 786 127 833 199 q 648 16 739 56 q 431 -24 557 -24 z "},"Ș":{"ha":869,"x_min":-3,"x_max":838,"o":"m 431 -24 q 163 38 275 -24 q -3 206 50 99 l 171 328 q 278 203 211 247 q 439 158 344 158 q 561 187 514 158 q 608 271 608 215 q 576 351 608 325 q 465 393 543 376 l 333 421 q 61 717 61 481 q 108 873 61 807 q 241 974 154 939 q 446 1010 328 1010 q 683 960 581 1010 q 838 814 786 911 l 685 685 q 581 797 647 757 q 431 836 515 836 q 319 809 361 836 q 278 735 278 782 q 310 660 278 688 q 421 615 343 633 l 564 585 q 767 485 700 554 q 833 293 833 417 q 786 127 833 199 q 648 16 739 56 q 431 -24 557 -24 m 388 -262 q 440 -239 425 -253 q 456 -197 456 -225 l 365 -197 l 365 -56 l 549 -56 l 549 -179 q 425 -333 549 -308 l 388 -262 z "},"Ŧ":{"ha":825,"x_min":10,"x_max":817,"o":"m 529 800 l 529 631 l 767 631 l 767 531 l 529 531 l 529 0 l 296 0 l 296 531 l 60 531 l 60 631 l 296 631 l 296 800 l 10 800 l 10 986 l 817 986 l 817 800 l 529 800 z "},"Ť":{"ha":825,"x_min":10,"x_max":817,"o":"m 296 1039 l 149 1203 l 319 1203 l 413 1100 l 506 1203 l 678 1203 l 531 1039 l 296 1039 m 817 800 l 529 800 l 529 0 l 296 0 l 296 800 l 10 800 l 10 986 l 817 986 l 817 800 z "},"Ţ":{"ha":825,"x_min":10,"x_max":817,"o":"m 463 0 l 424 -64 q 499 -43 451 -43 q 591 -74 557 -43 q 625 -164 625 -106 q 576 -262 625 -228 q 443 -296 526 -296 q 331 -272 376 -296 q 267 -206 286 -249 l 383 -176 q 438 -210 399 -210 q 478 -196 463 -210 q 493 -158 493 -182 q 478 -122 493 -136 q 439 -108 463 -108 q 393 -129 410 -108 l 310 -110 l 358 0 l 296 0 l 296 800 l 10 800 l 10 986 l 817 986 l 817 800 l 529 800 l 529 0 l 463 0 z "},"Ț":{"ha":825,"x_min":10,"x_max":817,"o":"m 817 800 l 529 800 l 529 0 l 296 0 l 296 800 l 10 800 l 10 986 l 817 986 l 817 800 m 344 -262 q 397 -239 382 -253 q 413 -197 413 -225 l 322 -197 l 322 -56 l 506 -56 l 506 -179 q 382 -333 506 -308 l 344 -262 z "},"Þ":{"ha":876,"x_min":103,"x_max":857,"o":"m 513 824 q 694 787 617 824 q 815 681 772 750 q 857 522 857 613 q 763 295 857 379 q 508 211 669 211 l 338 211 l 338 0 l 103 0 l 103 986 l 338 986 l 338 824 l 513 824 m 458 375 q 571 412 531 375 q 611 514 611 449 q 572 618 611 582 q 458 654 532 654 l 338 654 l 338 375 l 458 375 z "},"Ú":{"ha":1008,"x_min":86,"x_max":922,"o":"m 557 1210 l 750 1210 l 589 1046 l 419 1046 l 557 1210 m 321 986 l 321 354 q 369 217 321 267 q 504 167 418 167 q 639 217 590 167 q 688 354 688 267 l 688 986 l 922 986 l 922 344 q 872 149 922 232 q 728 22 822 67 q 504 -24 633 -24 q 281 22 375 -24 q 136 149 186 67 q 86 344 86 232 l 86 986 l 321 986 z "},"Ŭ":{"ha":1008,"x_min":86,"x_max":922,"o":"m 404 1210 q 435 1160 408 1178 q 506 1143 461 1143 q 575 1160 549 1143 q 606 1210 601 1178 l 746 1210 q 676 1083 738 1128 q 506 1039 615 1039 q 334 1083 396 1039 q 264 1210 272 1128 l 404 1210 m 321 986 l 321 354 q 369 217 321 267 q 504 167 418 167 q 639 217 590 167 q 688 354 688 267 l 688 986 l 922 986 l 922 344 q 872 149 922 232 q 728 22 822 67 q 504 -24 633 -24 q 281 22 375 -24 q 136 149 186 67 q 86 344 86 232 l 86 986 l 321 986 z "},"Û":{"ha":1008,"x_min":86,"x_max":922,"o":"m 597 1046 l 504 1149 l 411 1046 l 239 1046 l 386 1210 l 621 1210 l 768 1046 l 597 1046 m 321 986 l 321 354 q 369 217 321 267 q 504 167 418 167 q 639 217 590 167 q 688 354 688 267 l 688 986 l 922 986 l 922 344 q 872 149 922 232 q 728 22 822 67 q 504 -24 633 -24 q 281 22 375 -24 q 136 149 186 67 q 86 344 86 232 l 86 986 l 321 986 z "},"Ü":{"ha":1008,"x_min":86,"x_max":922,"o":"m 254 1206 l 439 1206 l 439 1046 l 254 1046 l 254 1206 m 569 1206 l 754 1206 l 754 1046 l 569 1046 l 569 1206 m 321 986 l 321 354 q 369 217 321 267 q 504 167 418 167 q 639 217 590 167 q 688 354 688 267 l 688 986 l 922 986 l 922 344 q 872 149 922 232 q 728 22 822 67 q 504 -24 633 -24 q 281 22 375 -24 q 136 149 186 67 q 86 344 86 232 l 86 986 l 321 986 z "},"Ù":{"ha":1008,"x_min":86,"x_max":922,"o":"m 411 1046 l 250 1210 l 443 1210 l 581 1046 l 411 1046 m 321 986 l 321 354 q 369 217 321 267 q 504 167 418 167 q 639 217 590 167 q 688 354 688 267 l 688 986 l 922 986 l 922 344 q 872 149 922 232 q 728 22 822 67 q 504 -24 633 -24 q 281 22 375 -24 q 136 149 186 67 q 86 344 86 232 l 86 986 l 321 986 z "},"Ű":{"ha":1008,"x_min":86,"x_max":922,"o":"m 422 1210 l 606 1210 l 464 1047 l 288 1047 l 422 1210 m 679 1210 l 861 1210 l 719 1047 l 544 1047 l 679 1210 m 321 986 l 321 354 q 369 217 321 267 q 504 167 418 167 q 639 217 590 167 q 688 354 688 267 l 688 986 l 922 986 l 922 344 q 872 149 922 232 q 728 22 822 67 q 504 -24 633 -24 q 281 22 375 -24 q 136 149 186 67 q 86 344 86 232 l 86 986 l 321 986 z "},"Ū":{"ha":1008,"x_min":86,"x_max":922,"o":"m 254 1188 l 754 1188 l 754 1053 l 254 1053 l 254 1188 m 321 986 l 321 354 q 369 217 321 267 q 504 167 418 167 q 639 217 590 167 q 688 354 688 267 l 688 986 l 922 986 l 922 344 q 872 149 922 232 q 728 22 822 67 q 504 -24 633 -24 q 281 22 375 -24 q 136 149 186 67 q 86 344 86 232 l 86 986 l 321 986 z "},"Ų":{"ha":1008,"x_min":86,"x_max":922,"o":"m 922 986 l 922 344 q 842 107 922 201 q 617 -14 763 13 q 533 -67 560 -36 q 507 -132 507 -97 q 520 -169 507 -156 q 558 -182 533 -182 q 599 -168 581 -182 q 636 -125 618 -154 l 729 -174 q 655 -256 699 -229 q 546 -282 611 -282 q 421 -248 465 -282 q 376 -153 376 -214 q 460 -22 376 -74 q 185 87 285 -11 q 86 344 86 185 l 86 986 l 321 986 l 321 354 q 369 217 321 267 q 504 167 418 167 q 639 217 590 167 q 688 354 688 267 l 688 986 l 922 986 z "},"Ů":{"ha":1008,"x_min":86,"x_max":922,"o":"m 504 1033 q 376 1078 425 1033 q 328 1197 328 1124 q 376 1315 328 1271 q 504 1360 425 1360 q 633 1315 583 1360 q 682 1197 682 1269 q 633 1078 682 1124 q 504 1033 583 1033 m 504 1124 q 556 1144 536 1124 q 576 1197 576 1165 q 556 1250 576 1229 q 504 1271 536 1271 q 452 1250 472 1271 q 432 1197 432 1229 q 452 1144 432 1165 q 504 1124 472 1124 m 321 986 l 321 354 q 369 217 321 267 q 504 167 418 167 q 639 217 590 167 q 688 354 688 267 l 688 986 l 922 986 l 922 344 q 872 149 922 232 q 728 22 822 67 q 504 -24 633 -24 q 281 22 375 -24 q 136 149 186 67 q 86 344 86 232 l 86 986 l 321 986 z "},"Ũ":{"ha":1008,"x_min":86,"x_max":922,"o":"m 607 1031 q 540 1043 568 1031 q 478 1081 513 1056 q 437 1107 453 1099 q 403 1115 421 1115 q 363 1098 378 1115 q 336 1040 347 1081 l 228 1078 q 288 1197 242 1154 q 401 1239 333 1239 q 469 1226 442 1239 q 529 1188 497 1213 q 570 1161 554 1169 q 606 1153 586 1153 q 646 1170 631 1153 q 672 1228 661 1188 l 779 1190 q 720 1072 765 1114 q 607 1031 675 1031 m 321 986 l 321 354 q 369 217 321 267 q 504 167 418 167 q 639 217 590 167 q 688 354 688 267 l 688 986 l 922 986 l 922 344 q 872 149 922 232 q 728 22 822 67 q 504 -24 633 -24 q 281 22 375 -24 q 136 149 186 67 q 86 344 86 232 l 86 986 l 321 986 z "},"Ẃ":{"ha":1338,"x_min":26,"x_max":1313,"o":"m 721 1210 l 914 1210 l 753 1046 l 583 1046 l 721 1210 m 26 986 l 263 986 l 388 346 q 397 264 394 304 l 401 264 q 413 346 404 307 l 551 986 l 786 986 l 926 346 q 938 264 935 307 l 942 264 q 950 346 944 315 l 1076 986 l 1313 986 l 1078 0 l 815 0 l 679 669 q 672 742 675 693 l 667 742 q 658 669 665 703 l 522 0 l 261 0 l 26 986 z "},"Ŵ":{"ha":1338,"x_min":26,"x_max":1313,"o":"m 763 1046 l 669 1149 l 576 1046 l 404 1046 l 551 1210 l 786 1210 l 933 1046 l 763 1046 m 26 986 l 263 986 l 388 346 q 397 264 394 304 l 401 264 q 413 346 404 307 l 551 986 l 786 986 l 926 346 q 938 264 935 307 l 942 264 q 950 346 944 315 l 1076 986 l 1313 986 l 1078 0 l 815 0 l 679 669 q 672 742 675 693 l 667 742 q 658 669 665 703 l 522 0 l 261 0 l 26 986 z "},"Ẅ":{"ha":1338,"x_min":26,"x_max":1313,"o":"m 419 1206 l 604 1206 l 604 1046 l 419 1046 l 419 1206 m 735 1206 l 919 1206 l 919 1046 l 735 1046 l 735 1206 m 26 986 l 263 986 l 388 346 q 397 264 394 304 l 401 264 q 413 346 404 307 l 551 986 l 786 986 l 926 346 q 938 264 935 307 l 942 264 q 950 346 944 315 l 1076 986 l 1313 986 l 1078 0 l 815 0 l 679 669 q 672 742 675 693 l 667 742 q 658 669 665 703 l 522 0 l 261 0 l 26 986 z "},"Ẁ":{"ha":1338,"x_min":26,"x_max":1313,"o":"m 575 1046 l 414 1210 l 607 1210 l 744 1046 l 575 1046 m 26 986 l 263 986 l 388 346 q 397 264 394 304 l 401 264 q 413 346 404 307 l 551 986 l 786 986 l 926 346 q 938 264 935 307 l 942 264 q 950 346 944 315 l 1076 986 l 1313 986 l 1078 0 l 815 0 l 679 669 q 672 742 675 693 l 667 742 q 658 669 665 703 l 522 0 l 261 0 l 26 986 z "},"Ý":{"ha":883,"x_min":-4,"x_max":888,"o":"m 493 1210 l 686 1210 l 525 1046 l 356 1046 l 493 1210 m 324 357 l -4 986 l 243 986 l 417 622 q 440 550 435 583 l 443 550 q 467 622 449 583 l 639 986 l 888 986 l 560 357 l 560 0 l 324 0 l 324 357 z "},"Ŷ":{"ha":883,"x_min":-4,"x_max":888,"o":"m 535 1046 l 442 1149 l 349 1046 l 176 1046 l 324 1210 l 558 1210 l 706 1046 l 535 1046 m 324 357 l -4 986 l 243 986 l 417 622 q 440 550 435 583 l 443 550 q 467 622 449 583 l 639 986 l 888 986 l 560 357 l 560 0 l 324 0 l 324 357 z "},"Ÿ":{"ha":883,"x_min":-4,"x_max":888,"o":"m 192 1206 l 376 1206 l 376 1046 l 192 1046 l 192 1206 m 507 1206 l 692 1206 l 692 1046 l 507 1046 l 507 1206 m 324 357 l -4 986 l 243 986 l 417 622 q 440 550 435 583 l 443 550 q 467 622 449 583 l 639 986 l 888 986 l 560 357 l 560 0 l 324 0 l 324 357 z "},"Ỳ":{"ha":883,"x_min":-4,"x_max":888,"o":"m 347 1046 l 186 1210 l 379 1210 l 517 1046 l 347 1046 m 324 357 l -4 986 l 243 986 l 417 622 q 440 550 435 583 l 443 550 q 467 622 449 583 l 639 986 l 888 986 l 560 357 l 560 0 l 324 0 l 324 357 z "},"Ź":{"ha":844,"x_min":49,"x_max":813,"o":"m 479 1210 l 672 1210 l 511 1046 l 342 1046 l 479 1210 m 524 804 l 68 804 l 68 986 l 792 986 l 792 817 l 319 181 l 813 181 l 813 0 l 49 0 l 49 169 l 524 804 z "},"Ž":{"ha":844,"x_min":49,"x_max":813,"o":"m 546 1039 l 311 1039 l 164 1203 l 335 1203 l 428 1100 l 521 1203 l 693 1203 l 546 1039 m 524 804 l 68 804 l 68 986 l 792 986 l 792 817 l 319 181 l 813 181 l 813 0 l 49 0 l 49 169 l 524 804 z "},"Ż":{"ha":844,"x_min":49,"x_max":813,"o":"m 314 1210 l 542 1210 l 542 1046 l 314 1046 l 314 1210 m 524 804 l 68 804 l 68 986 l 792 986 l 792 817 l 319 181 l 813 181 l 813 0 l 49 0 l 49 169 l 524 804 z "},"a":{"ha":796,"x_min":36,"x_max":735,"o":"m 275 -17 q 102 40 168 -17 q 36 189 36 96 q 107 339 36 289 q 325 407 176 388 l 493 431 l 493 454 q 468 540 493 513 q 390 568 443 568 q 310 542 339 568 q 279 465 282 515 l 58 465 q 155 646 67 581 q 392 711 243 711 q 638 642 560 711 q 715 424 715 574 l 715 193 q 735 0 715 67 l 518 0 q 507 110 510 42 q 418 17 481 51 q 275 -17 356 -17 m 358 125 q 461 164 422 125 q 500 265 500 203 l 500 321 l 381 301 q 290 267 319 290 q 261 206 261 244 q 288 147 261 169 q 358 125 314 125 z "},"b":{"ha":854,"x_min":100,"x_max":808,"o":"m 522 -17 q 395 16 450 -17 q 313 106 340 49 l 299 0 l 100 0 l 100 1007 l 324 1007 l 324 600 q 405 681 351 651 q 529 711 458 711 q 677 666 614 711 q 774 538 740 621 q 808 347 808 456 q 774 156 808 238 q 674 28 739 74 q 522 -17 608 -17 m 447 138 q 545 192 511 138 q 579 347 579 246 q 546 501 579 446 q 449 556 513 556 q 353 508 388 556 q 318 376 318 461 l 318 318 q 352 185 318 233 q 447 138 386 138 z "},"c":{"ha":774,"x_min":40,"x_max":738,"o":"m 406 -17 q 214 28 297 -17 q 85 156 131 74 q 40 347 40 238 q 139 614 40 517 q 408 711 238 711 q 631 647 544 711 q 738 465 718 583 l 528 422 q 486 515 518 483 q 403 547 454 547 q 303 496 339 547 q 267 354 267 444 q 303 202 267 256 q 404 149 339 149 q 488 182 456 149 q 529 278 519 215 l 738 232 q 629 51 719 118 q 406 -17 539 -17 z "},"d":{"ha":854,"x_min":44,"x_max":753,"o":"m 322 -17 q 177 28 240 -17 q 79 156 114 74 q 44 344 44 238 q 81 537 44 454 q 183 665 117 619 q 335 711 249 711 q 454 683 404 711 q 531 601 504 656 l 531 1007 l 753 1007 l 753 0 l 542 0 l 542 119 q 457 20 515 57 q 322 -17 399 -17 m 410 138 q 500 185 467 138 q 533 314 533 232 l 533 374 q 500 509 533 461 q 407 557 467 557 q 308 503 343 557 q 274 349 274 449 q 310 194 274 250 q 410 138 346 138 z "},"e":{"ha":781,"x_min":40,"x_max":733,"o":"m 733 297 l 251 297 q 297 185 253 226 q 411 143 340 143 q 563 240 514 143 l 726 165 q 601 31 685 79 q 408 -17 517 -17 q 138 78 236 -17 q 40 340 40 172 q 83 537 40 453 q 206 666 126 621 q 393 711 286 711 q 645 620 557 711 q 733 364 733 529 l 733 297 m 518 428 q 485 540 518 501 q 389 579 451 579 q 290 538 325 579 q 251 422 254 497 l 518 422 l 518 428 z "},"f":{"ha":543,"x_min":24,"x_max":518,"o":"m 518 546 l 357 546 l 357 0 l 135 0 l 135 546 l 24 546 l 24 694 l 135 694 l 135 760 q 205 949 135 883 q 407 1015 275 1015 q 518 1003 465 1015 l 518 843 q 450 850 479 850 q 381 826 404 850 q 357 754 357 801 l 357 694 l 518 694 l 518 546 z "},"g":{"ha":799,"x_min":31,"x_max":779,"o":"m 779 663 q 717 669 742 669 q 626 644 660 669 q 707 479 707 582 q 622 308 707 372 q 389 243 536 243 q 246 263 311 243 q 226 226 226 250 q 250 185 226 200 q 321 169 274 169 l 515 169 q 707 117 642 169 q 772 -33 772 65 q 669 -221 772 -154 q 372 -287 565 -287 q 117 -242 204 -287 q 31 -121 31 -197 q 61 -47 31 -79 q 150 4 92 -14 q 78 56 103 22 q 54 135 54 89 q 87 231 54 190 q 179 293 119 271 q 100 372 128 325 q 72 479 72 419 q 158 648 72 585 q 389 711 243 711 q 550 686 482 711 q 619 779 568 746 q 751 813 671 813 q 779 811 769 813 l 779 663 m 389 357 q 467 391 438 357 q 497 479 497 425 q 467 565 497 532 q 389 597 438 597 q 311 565 340 597 q 282 479 282 532 q 312 391 282 425 q 389 357 342 357 m 274 -15 q 224 -12 254 -15 q 196 -78 196 -39 q 382 -165 196 -165 q 536 -144 486 -165 q 586 -83 586 -122 q 492 -17 586 -17 l 274 -15 z "},"h":{"ha":853,"x_min":100,"x_max":771,"o":"m 100 1007 l 324 1007 l 324 571 q 544 711 388 711 q 714 641 657 711 q 771 432 771 571 l 771 0 l 549 0 l 549 410 q 446 542 549 542 q 355 499 386 542 q 324 374 324 456 l 324 0 l 100 0 l 100 1007 z "},"i":{"ha":410,"x_min":89,"x_max":321,"o":"m 93 694 l 317 694 l 317 0 l 93 0 l 93 694 m 89 997 l 321 997 l 321 794 l 89 794 l 89 997 z "},"j":{"ha":417,"x_min":-47,"x_max":328,"o":"m 57 -281 q 1 -278 29 -281 q -47 -272 -26 -276 l -47 -112 q 13 -115 -24 -115 q 82 -91 63 -115 q 101 1 101 -67 l 101 694 l 324 694 l 324 -14 q 263 -213 324 -146 q 57 -281 203 -281 m 96 997 l 328 997 l 328 794 l 96 794 l 96 997 z "},"k":{"ha":825,"x_min":100,"x_max":814,"o":"m 400 281 l 324 199 l 324 0 l 100 0 l 100 1007 l 324 1007 l 324 422 l 549 694 l 807 694 l 554 418 l 814 0 l 565 0 l 400 281 z "},"l":{"ha":424,"x_min":100,"x_max":324,"o":"m 324 0 l 100 0 l 100 1007 l 324 1007 l 324 0 z "},"m":{"ha":1236,"x_min":93,"x_max":1154,"o":"m 307 694 l 307 569 q 392 676 340 642 q 521 711 444 711 q 644 676 596 711 q 718 568 692 642 q 810 676 756 640 q 940 711 865 711 q 1098 644 1042 711 q 1154 454 1154 576 l 1154 0 l 932 0 l 932 407 q 910 509 932 476 q 839 542 888 542 q 762 505 789 542 q 735 399 735 468 l 735 0 l 513 0 l 513 408 q 421 542 513 542 q 344 504 371 542 q 317 397 317 467 l 317 0 l 93 0 l 93 694 l 307 694 z "},"n":{"ha":846,"x_min":93,"x_max":764,"o":"m 93 694 l 307 694 l 307 561 q 538 711 379 711 q 707 640 650 711 q 764 431 764 569 l 764 0 l 542 0 l 542 400 q 516 507 542 472 q 438 542 490 542 q 348 499 379 542 q 317 375 317 456 l 317 0 l 93 0 l 93 694 z "},"o":{"ha":801,"x_min":40,"x_max":761,"o":"m 400 -17 q 215 26 296 -17 q 87 150 133 68 q 40 349 40 232 q 87 547 40 465 q 215 669 133 628 q 400 711 296 711 q 586 669 504 711 q 715 547 668 628 q 761 349 761 465 q 715 150 761 232 q 586 26 668 68 q 400 -17 504 -17 m 400 138 q 503 191 467 138 q 539 349 539 244 q 503 506 539 454 q 400 557 467 557 q 298 506 333 557 q 263 349 263 454 q 299 191 263 244 q 400 138 335 138 z "},"p":{"ha":847,"x_min":93,"x_max":801,"o":"m 93 694 l 307 694 l 307 583 q 395 678 339 646 q 524 711 451 711 q 670 667 607 711 q 767 540 733 622 q 801 349 801 458 q 766 156 801 239 q 666 28 731 74 q 515 -17 601 -17 q 317 88 390 -17 l 317 -271 l 93 -271 l 93 694 m 442 138 q 538 194 503 138 q 572 349 572 251 q 538 503 572 449 q 440 557 504 557 q 345 507 379 557 q 311 364 311 457 l 311 325 q 347 188 311 239 q 442 138 382 138 z "},"q":{"ha":847,"x_min":44,"x_max":753,"o":"m 531 108 q 447 16 501 49 q 321 -17 393 -17 q 176 28 239 -17 q 79 155 114 74 q 44 344 44 236 q 81 539 44 456 q 184 667 118 622 q 338 711 250 711 q 463 681 411 711 q 542 592 515 651 l 560 694 l 753 694 l 753 -271 l 531 -271 l 531 108 m 406 138 q 499 185 464 138 q 533 315 533 233 l 533 379 q 499 510 533 463 q 404 557 465 557 q 308 503 342 557 q 274 349 274 449 q 308 194 274 250 q 406 138 343 138 z "},"r":{"ha":572,"x_min":93,"x_max":549,"o":"m 303 515 q 388 661 331 611 q 535 711 446 711 l 549 711 l 549 499 q 507 500 535 500 q 372 458 421 500 q 329 385 342 429 q 317 283 317 342 l 317 0 l 93 0 l 93 694 l 303 694 l 303 515 z "},"s":{"ha":708,"x_min":22,"x_max":679,"o":"m 365 -17 q 160 25 250 -17 q 22 144 71 67 l 150 239 q 369 135 226 135 q 453 151 425 135 q 482 197 482 168 q 461 238 482 225 q 383 260 440 251 l 275 279 q 60 492 60 315 q 142 651 60 592 q 365 711 224 711 q 553 677 469 711 q 679 582 636 643 l 564 479 q 353 563 481 563 q 256 504 256 563 q 273 467 256 479 q 332 447 290 454 l 469 424 q 624 353 575 406 q 672 213 672 301 q 591 45 672 107 q 365 -17 510 -17 z "},"t":{"ha":550,"x_min":7,"x_max":515,"o":"m 7 694 l 128 694 l 128 861 l 350 947 l 350 694 l 515 694 l 515 546 l 350 546 l 350 276 q 451 171 350 171 q 515 178 481 171 l 515 1 q 389 -12 442 -12 q 190 47 253 -12 q 128 224 128 107 l 128 546 l 7 546 l 7 694 z "},"u":{"ha":838,"x_min":82,"x_max":744,"o":"m 315 -17 q 82 244 82 -17 l 82 694 l 304 694 l 304 283 q 330 186 304 219 q 404 153 356 153 q 490 192 458 153 q 521 297 521 232 l 521 694 l 744 694 l 744 0 l 532 0 l 532 126 q 449 22 507 60 q 315 -17 390 -17 z "},"v":{"ha":739,"x_min":6,"x_max":733,"o":"m 6 694 l 235 694 l 347 285 q 368 186 363 224 l 371 186 q 392 285 378 239 l 504 694 l 733 694 l 490 0 l 247 0 l 6 694 z "},"w":{"ha":1081,"x_min":21,"x_max":1058,"o":"m 21 694 l 233 694 l 321 269 l 331 203 l 333 203 q 344 269 339 250 l 446 694 l 635 694 l 736 269 q 747 203 743 236 l 750 203 q 760 269 756 250 l 846 694 l 1058 694 l 874 0 l 657 0 l 556 393 q 542 468 543 451 l 539 468 q 525 393 538 451 l 424 0 l 207 0 l 21 694 z "},"x":{"ha":783,"x_min":13,"x_max":771,"o":"m 264 361 l 28 694 l 275 694 l 360 556 q 393 485 386 513 l 396 485 q 431 556 406 518 l 513 694 l 747 694 l 515 364 l 771 0 l 522 0 l 421 158 q 385 231 390 204 l 382 231 q 344 158 374 206 l 242 0 l 13 0 l 264 361 z "},"y":{"ha":747,"x_min":6,"x_max":742,"o":"m 142 -278 q 50 -269 104 -278 l 50 -107 q 118 -114 93 -114 q 213 -93 179 -114 q 261 -25 247 -72 l 271 4 l 6 694 l 247 694 l 369 272 q 385 192 381 232 l 389 192 q 406 272 390 218 l 518 694 l 742 694 l 493 -31 q 365 -221 447 -164 q 142 -278 282 -278 z "},"z":{"ha":669,"x_min":31,"x_max":642,"o":"m 361 538 l 47 538 l 47 694 l 621 694 l 621 568 l 300 160 l 642 160 l 642 0 l 31 0 l 31 131 l 361 538 z "},"á":{"ha":796,"x_min":36,"x_max":735,"o":"m 275 -17 q 102 40 168 -17 q 36 189 36 96 q 107 339 36 289 q 325 407 176 388 l 493 431 l 493 454 q 468 540 493 513 q 390 568 443 568 q 310 542 339 568 q 279 465 282 515 l 58 465 q 155 646 67 581 q 392 711 243 711 q 638 642 560 711 q 715 424 715 574 l 715 193 q 735 0 715 67 l 518 0 q 507 110 510 42 q 418 17 481 51 q 275 -17 356 -17 m 358 125 q 461 164 422 125 q 500 265 500 203 l 500 321 l 381 301 q 290 267 319 290 q 261 206 261 244 q 288 147 261 169 q 358 125 314 125 m 465 1004 l 675 1004 l 483 788 l 313 788 l 465 1004 z "},"ă":{"ha":796,"x_min":36,"x_max":735,"o":"m 275 -17 q 102 40 168 -17 q 36 189 36 96 q 107 339 36 289 q 325 407 176 388 l 493 431 l 493 454 q 468 540 493 513 q 390 568 443 568 q 310 542 339 568 q 279 465 282 515 l 58 465 q 155 646 67 581 q 392 711 243 711 q 638 642 560 711 q 715 424 715 574 l 715 193 q 735 0 715 67 l 518 0 q 507 110 510 42 q 418 17 481 51 q 275 -17 356 -17 m 358 125 q 461 164 422 125 q 500 265 500 203 l 500 321 l 381 301 q 290 267 319 290 q 261 206 261 244 q 288 147 261 169 q 358 125 314 125 m 297 1004 q 326 921 300 950 q 399 892 351 892 q 471 921 446 892 q 499 1004 496 950 l 639 1004 q 569 835 633 890 q 399 781 506 781 q 227 835 292 781 q 157 1004 163 890 l 297 1004 z "},"â":{"ha":796,"x_min":36,"x_max":735,"o":"m 275 -17 q 102 40 168 -17 q 36 189 36 96 q 107 339 36 289 q 325 407 176 388 l 493 431 l 493 454 q 468 540 493 513 q 390 568 443 568 q 310 542 339 568 q 279 465 282 515 l 58 465 q 155 646 67 581 q 392 711 243 711 q 638 642 560 711 q 715 424 715 574 l 715 193 q 735 0 715 67 l 518 0 q 507 110 510 42 q 418 17 481 51 q 275 -17 356 -17 m 358 125 q 461 164 422 125 q 500 265 500 203 l 500 321 l 381 301 q 290 267 319 290 q 261 206 261 244 q 288 147 261 169 q 358 125 314 125 m 494 788 l 397 933 l 301 788 l 139 788 l 286 1004 l 508 1004 l 656 788 l 494 788 z "},"ä":{"ha":796,"x_min":36,"x_max":735,"o":"m 275 -17 q 102 40 168 -17 q 36 189 36 96 q 107 339 36 289 q 325 407 176 388 l 493 431 l 493 454 q 468 540 493 513 q 390 568 443 568 q 310 542 339 568 q 279 465 282 515 l 58 465 q 155 646 67 581 q 392 711 243 711 q 638 642 560 711 q 715 424 715 574 l 715 193 q 735 0 715 67 l 518 0 q 507 110 510 42 q 418 17 481 51 q 275 -17 356 -17 m 358 125 q 461 164 422 125 q 500 265 500 203 l 500 321 l 381 301 q 290 267 319 290 q 261 206 261 244 q 288 147 261 169 q 358 125 314 125 m 149 981 l 342 981 l 342 796 l 149 796 l 149 981 m 454 981 l 647 981 l 647 796 l 454 796 l 454 981 z "},"æ":{"ha":1204,"x_min":36,"x_max":1157,"o":"m 1157 300 l 703 300 q 744 186 704 229 q 849 143 783 143 q 986 240 942 143 l 1150 165 q 1029 31 1110 79 q 844 -17 949 -17 q 681 17 751 -17 q 567 114 610 51 q 453 17 526 51 q 288 -17 379 -17 q 103 40 171 -17 q 36 193 36 96 q 97 333 36 282 q 289 400 158 383 l 485 426 l 485 449 q 459 538 485 508 q 381 567 433 567 q 304 541 332 567 q 274 465 276 515 l 54 465 q 148 646 63 581 q 376 711 233 711 q 604 628 529 711 q 833 711 692 711 q 1072 619 988 711 q 1157 360 1157 526 l 1157 300 m 940 425 q 912 539 942 499 q 826 579 882 579 q 736 539 769 579 q 703 426 703 499 l 703 425 l 940 425 m 492 317 l 381 299 q 290 265 319 289 q 261 201 261 242 q 287 146 261 167 q 354 125 313 125 q 451 162 411 125 q 492 265 492 199 l 492 317 z "},"ǽ":{"ha":1204,"x_min":36,"x_max":1157,"o":"m 1157 300 l 703 300 q 744 186 704 229 q 849 143 783 143 q 986 240 942 143 l 1150 165 q 1029 31 1110 79 q 844 -17 949 -17 q 681 17 751 -17 q 567 114 610 51 q 453 17 526 51 q 288 -17 379 -17 q 103 40 171 -17 q 36 193 36 96 q 97 333 36 282 q 289 400 158 383 l 485 426 l 485 449 q 459 538 485 508 q 381 567 433 567 q 304 541 332 567 q 274 465 276 515 l 54 465 q 148 646 63 581 q 376 711 233 711 q 604 628 529 711 q 833 711 692 711 q 1072 619 988 711 q 1157 360 1157 526 l 1157 300 m 940 425 q 912 539 942 499 q 826 579 882 579 q 736 539 769 579 q 703 426 703 499 l 703 425 l 940 425 m 492 317 l 381 299 q 290 265 319 289 q 261 201 261 242 q 287 146 261 167 q 354 125 313 125 q 451 162 411 125 q 492 265 492 199 l 492 317 m 667 1004 l 876 1004 l 685 788 l 514 788 l 667 1004 z "},"à":{"ha":796,"x_min":36,"x_max":735,"o":"m 275 -17 q 102 40 168 -17 q 36 189 36 96 q 107 339 36 289 q 325 407 176 388 l 493 431 l 493 454 q 468 540 493 513 q 390 568 443 568 q 310 542 339 568 q 279 465 282 515 l 58 465 q 155 646 67 581 q 392 711 243 711 q 638 642 560 711 q 715 424 715 574 l 715 193 q 735 0 715 67 l 518 0 q 507 110 510 42 q 418 17 481 51 q 275 -17 356 -17 m 358 125 q 461 164 422 125 q 500 265 500 203 l 500 321 l 381 301 q 290 267 319 290 q 261 206 261 244 q 288 147 261 169 q 358 125 314 125 m 311 788 l 118 1004 l 328 1004 l 481 788 l 311 788 z "},"ā":{"ha":796,"x_min":36,"x_max":735,"o":"m 275 -17 q 102 40 168 -17 q 36 189 36 96 q 107 339 36 289 q 325 407 176 388 l 493 431 l 493 454 q 468 540 493 513 q 390 568 443 568 q 310 542 339 568 q 279 465 282 515 l 58 465 q 155 646 67 581 q 392 711 243 711 q 638 642 560 711 q 715 424 715 574 l 715 193 q 735 0 715 67 l 518 0 q 507 110 510 42 q 418 17 481 51 q 275 -17 356 -17 m 358 125 q 461 164 422 125 q 500 265 500 203 l 500 321 l 381 301 q 290 267 319 290 q 261 206 261 244 q 288 147 261 169 q 358 125 314 125 m 160 956 l 636 956 l 636 822 l 160 822 l 160 956 z "},"ą":{"ha":796,"x_min":36,"x_max":742,"o":"m 742 -174 q 667 -256 711 -229 q 558 -282 624 -282 q 433 -248 478 -282 q 389 -153 389 -214 q 517 0 389 -54 l 518 0 q 507 110 510 42 q 418 17 481 51 q 275 -17 356 -17 q 102 40 168 -17 q 36 189 36 96 q 107 339 36 289 q 325 407 176 388 l 493 431 l 493 454 q 468 540 493 513 q 390 568 443 568 q 310 542 339 568 q 279 465 282 515 l 58 465 q 155 646 67 581 q 392 711 243 711 q 638 642 560 711 q 715 424 715 574 l 715 193 q 735 0 715 67 l 675 0 q 557 -56 594 -19 q 519 -132 519 -92 q 533 -169 519 -156 q 571 -182 546 -182 q 612 -168 593 -182 q 649 -125 631 -154 l 742 -174 m 500 321 l 381 301 q 290 267 319 290 q 261 206 261 244 q 288 147 261 169 q 358 125 314 125 q 461 164 422 125 q 500 265 500 203 l 500 321 z "},"å":{"ha":796,"x_min":36,"x_max":735,"o":"m 275 -17 q 102 40 168 -17 q 36 189 36 96 q 107 339 36 289 q 325 407 176 388 l 493 431 l 493 454 q 468 540 493 513 q 390 568 443 568 q 310 542 339 568 q 279 465 282 515 l 58 465 q 155 646 67 581 q 392 711 243 711 q 638 642 560 711 q 715 424 715 574 l 715 193 q 735 0 715 67 l 518 0 q 507 110 510 42 q 418 17 481 51 q 275 -17 356 -17 m 358 125 q 461 164 422 125 q 500 265 500 203 l 500 321 l 381 301 q 290 267 319 290 q 261 206 261 244 q 288 147 261 169 q 358 125 314 125 m 397 761 q 269 806 318 761 q 221 924 221 850 q 269 1042 221 997 q 397 1088 318 1088 q 526 1042 478 1088 q 575 924 575 997 q 526 806 575 850 q 397 761 478 761 m 397 850 q 449 871 429 850 q 469 924 469 892 q 449 976 469 956 q 397 997 429 997 q 345 976 365 997 q 325 924 325 956 q 345 871 325 892 q 397 850 365 850 z "},"ã":{"ha":796,"x_min":36,"x_max":735,"o":"m 275 -17 q 102 40 168 -17 q 36 189 36 96 q 107 339 36 289 q 325 407 176 388 l 493 431 l 493 454 q 468 540 493 513 q 390 568 443 568 q 310 542 339 568 q 279 465 282 515 l 58 465 q 155 646 67 581 q 392 711 243 711 q 638 642 560 711 q 715 424 715 574 l 715 193 q 735 0 715 67 l 518 0 q 507 110 510 42 q 418 17 481 51 q 275 -17 356 -17 m 358 125 q 461 164 422 125 q 500 265 500 203 l 500 321 l 381 301 q 290 267 319 290 q 261 206 261 244 q 288 147 261 169 q 358 125 314 125 m 507 789 q 439 803 467 789 q 375 844 411 817 q 333 874 350 864 q 296 883 315 883 q 255 865 271 883 q 226 803 239 846 l 119 840 q 180 970 135 924 q 296 1017 225 1017 q 363 1003 335 1017 q 426 963 392 989 q 471 933 454 942 q 508 924 488 924 q 549 942 533 924 q 576 1003 565 960 l 685 965 q 624 835 669 882 q 507 789 579 789 z "},"ć":{"ha":774,"x_min":40,"x_max":738,"o":"m 406 -17 q 214 28 297 -17 q 85 156 131 74 q 40 347 40 238 q 139 614 40 517 q 408 711 238 711 q 631 647 544 711 q 738 465 718 583 l 528 422 q 486 515 518 483 q 403 547 454 547 q 303 496 339 547 q 267 354 267 444 q 303 202 267 256 q 404 149 339 149 q 488 182 456 149 q 529 278 519 215 l 738 232 q 629 51 719 118 q 406 -17 539 -17 m 467 1004 l 676 1004 l 485 788 l 314 788 l 467 1004 z "},"č":{"ha":774,"x_min":40,"x_max":738,"o":"m 406 -17 q 214 28 297 -17 q 85 156 131 74 q 40 347 40 238 q 139 614 40 517 q 408 711 238 711 q 631 647 544 711 q 738 465 718 583 l 528 422 q 486 515 518 483 q 403 547 454 547 q 303 496 339 547 q 267 354 267 444 q 303 202 267 256 q 404 149 339 149 q 488 182 456 149 q 529 278 519 215 l 738 232 q 629 51 719 118 q 406 -17 539 -17 m 301 997 l 397 851 l 494 997 l 656 997 l 508 781 l 286 781 l 139 997 l 301 997 z "},"ç":{"ha":774,"x_min":40,"x_max":738,"o":"m 404 149 q 488 182 456 149 q 529 278 519 215 l 738 232 q 640 59 719 125 q 440 -15 561 -7 l 411 -64 q 486 -43 439 -43 q 578 -74 544 -43 q 613 -164 613 -106 q 563 -262 613 -228 q 431 -296 514 -296 q 319 -272 364 -296 q 254 -206 274 -249 l 371 -176 q 425 -210 386 -210 q 465 -196 450 -210 q 481 -158 481 -182 q 465 -122 481 -136 q 426 -108 450 -108 q 381 -129 397 -108 l 297 -110 l 340 -12 q 122 103 203 7 q 40 347 40 200 q 139 614 40 517 q 408 711 238 711 q 631 647 544 711 q 738 465 718 583 l 528 422 q 486 515 518 483 q 403 547 454 547 q 303 496 339 547 q 267 354 267 444 q 303 202 267 256 q 404 149 339 149 z "},"ĉ":{"ha":774,"x_min":40,"x_max":738,"o":"m 406 -17 q 214 28 297 -17 q 85 156 131 74 q 40 347 40 238 q 139 614 40 517 q 408 711 238 711 q 631 647 544 711 q 738 465 718 583 l 528 422 q 486 515 518 483 q 403 547 454 547 q 303 496 339 547 q 267 354 267 444 q 303 202 267 256 q 404 149 339 149 q 488 182 456 149 q 529 278 519 215 l 738 232 q 629 51 719 118 q 406 -17 539 -17 m 494 788 l 397 933 l 301 788 l 139 788 l 286 1004 l 508 1004 l 656 788 l 494 788 z "},"ċ":{"ha":774,"x_min":40,"x_max":738,"o":"m 406 -17 q 214 28 297 -17 q 85 156 131 74 q 40 347 40 238 q 139 614 40 517 q 408 711 238 711 q 631 647 544 711 q 738 465 718 583 l 528 422 q 486 515 518 483 q 403 547 454 547 q 303 496 339 547 q 267 354 267 444 q 303 202 267 256 q 404 149 339 149 q 488 182 456 149 q 529 278 519 215 l 738 232 q 629 51 719 118 q 406 -17 539 -17 m 282 997 l 514 997 l 514 794 l 282 794 l 282 997 z "},"ď":{"ha":960,"x_min":44,"x_max":997,"o":"m 322 -17 q 177 28 240 -17 q 79 156 114 74 q 44 344 44 238 q 81 537 44 454 q 183 665 117 619 q 335 711 249 711 q 454 683 404 711 q 531 601 504 656 l 531 1007 l 753 1007 l 753 0 l 542 0 l 542 119 q 457 20 515 57 q 322 -17 399 -17 m 410 138 q 500 185 467 138 q 533 314 533 232 l 533 374 q 500 509 533 461 q 407 557 467 557 q 308 503 343 557 q 274 349 274 449 q 310 194 274 250 q 410 138 346 138 m 836 790 q 889 810 874 797 q 904 844 904 822 l 814 844 l 814 986 l 997 986 l 997 863 q 869 724 997 746 l 836 790 z "},"đ":{"ha":854,"x_min":44,"x_max":857,"o":"m 857 808 l 753 808 l 753 0 l 542 0 l 542 119 q 457 20 515 57 q 322 -17 399 -17 q 177 28 240 -17 q 79 156 114 74 q 44 344 44 238 q 81 537 44 454 q 183 665 117 619 q 335 711 249 711 q 454 683 404 711 q 531 601 504 656 l 531 808 l 311 808 l 311 888 l 531 888 l 531 1007 l 753 1007 l 753 888 l 857 888 l 857 808 m 533 374 q 500 509 533 461 q 407 557 467 557 q 308 503 343 557 q 274 349 274 449 q 310 194 274 250 q 410 138 346 138 q 500 185 467 138 q 533 314 533 232 l 533 374 z "},"é":{"ha":781,"x_min":40,"x_max":733,"o":"m 733 297 l 251 297 q 297 185 253 226 q 411 143 340 143 q 563 240 514 143 l 726 165 q 601 31 685 79 q 408 -17 517 -17 q 138 78 236 -17 q 40 340 40 172 q 83 537 40 453 q 206 666 126 621 q 393 711 286 711 q 645 620 557 711 q 733 364 733 529 l 733 297 m 518 428 q 485 540 518 501 q 389 579 451 579 q 290 538 325 579 q 251 422 254 497 l 518 422 l 518 428 m 457 1004 l 667 1004 l 475 788 l 304 788 l 457 1004 z "},"ĕ":{"ha":781,"x_min":40,"x_max":733,"o":"m 733 297 l 251 297 q 297 185 253 226 q 411 143 340 143 q 563 240 514 143 l 726 165 q 601 31 685 79 q 408 -17 517 -17 q 138 78 236 -17 q 40 340 40 172 q 83 537 40 453 q 206 666 126 621 q 393 711 286 711 q 645 620 557 711 q 733 364 733 529 l 733 297 m 518 428 q 485 540 518 501 q 389 579 451 579 q 290 538 325 579 q 251 422 254 497 l 518 422 l 518 428 m 289 1004 q 317 921 292 950 q 390 892 343 892 q 463 921 438 892 q 490 1004 488 950 l 631 1004 q 561 835 625 890 q 390 781 497 781 q 219 835 283 781 q 149 1004 154 890 l 289 1004 z "},"ě":{"ha":781,"x_min":40,"x_max":733,"o":"m 733 297 l 251 297 q 297 185 253 226 q 411 143 340 143 q 563 240 514 143 l 726 165 q 601 31 685 79 q 408 -17 517 -17 q 138 78 236 -17 q 40 340 40 172 q 83 537 40 453 q 206 666 126 621 q 393 711 286 711 q 645 620 557 711 q 733 364 733 529 l 733 297 m 518 428 q 485 540 518 501 q 389 579 451 579 q 290 538 325 579 q 251 422 254 497 l 518 422 l 518 428 m 293 997 l 389 851 l 486 997 l 647 997 l 500 781 l 278 781 l 131 997 l 293 997 z "},"ê":{"ha":781,"x_min":40,"x_max":733,"o":"m 733 297 l 251 297 q 297 185 253 226 q 411 143 340 143 q 563 240 514 143 l 726 165 q 601 31 685 79 q 408 -17 517 -17 q 138 78 236 -17 q 40 340 40 172 q 83 537 40 453 q 206 666 126 621 q 393 711 286 711 q 645 620 557 711 q 733 364 733 529 l 733 297 m 518 428 q 485 540 518 501 q 389 579 451 579 q 290 538 325 579 q 251 422 254 497 l 518 422 l 518 428 m 486 788 l 389 933 l 293 788 l 131 788 l 278 1004 l 500 1004 l 647 788 l 486 788 z "},"ë":{"ha":781,"x_min":40,"x_max":733,"o":"m 733 297 l 251 297 q 297 185 253 226 q 411 143 340 143 q 563 240 514 143 l 726 165 q 601 31 685 79 q 408 -17 517 -17 q 138 78 236 -17 q 40 340 40 172 q 83 537 40 453 q 206 666 126 621 q 393 711 286 711 q 645 620 557 711 q 733 364 733 529 l 733 297 m 518 428 q 485 540 518 501 q 389 579 451 579 q 290 538 325 579 q 251 422 254 497 l 518 422 l 518 428 m 140 981 l 333 981 l 333 796 l 140 796 l 140 981 m 446 981 l 639 981 l 639 796 l 446 796 l 446 981 z "},"ė":{"ha":781,"x_min":40,"x_max":733,"o":"m 733 297 l 251 297 q 297 185 253 226 q 411 143 340 143 q 563 240 514 143 l 726 165 q 601 31 685 79 q 408 -17 517 -17 q 138 78 236 -17 q 40 340 40 172 q 83 537 40 453 q 206 666 126 621 q 393 711 286 711 q 645 620 557 711 q 733 364 733 529 l 733 297 m 518 428 q 485 540 518 501 q 389 579 451 579 q 290 538 325 579 q 251 422 254 497 l 518 422 l 518 428 m 274 997 l 506 997 l 506 794 l 274 794 l 274 997 z "},"è":{"ha":781,"x_min":40,"x_max":733,"o":"m 733 297 l 251 297 q 297 185 253 226 q 411 143 340 143 q 563 240 514 143 l 726 165 q 601 31 685 79 q 408 -17 517 -17 q 138 78 236 -17 q 40 340 40 172 q 83 537 40 453 q 206 666 126 621 q 393 711 286 711 q 645 620 557 711 q 733 364 733 529 l 733 297 m 518 428 q 485 540 518 501 q 389 579 451 579 q 290 538 325 579 q 251 422 254 497 l 518 422 l 518 428 m 303 788 l 110 1004 l 319 1004 l 472 788 l 303 788 z "},"ē":{"ha":781,"x_min":40,"x_max":733,"o":"m 733 297 l 251 297 q 297 185 253 226 q 411 143 340 143 q 563 240 514 143 l 726 165 q 601 31 685 79 q 408 -17 517 -17 q 138 78 236 -17 q 40 340 40 172 q 83 537 40 453 q 206 666 126 621 q 393 711 286 711 q 645 620 557 711 q 733 364 733 529 l 733 297 m 518 428 q 485 540 518 501 q 389 579 451 579 q 290 538 325 579 q 251 422 254 497 l 518 422 l 518 428 m 151 956 l 628 956 l 628 822 l 151 822 l 151 956 z "},"ę":{"ha":781,"x_min":40,"x_max":733,"o":"m 733 297 l 251 297 q 297 185 253 226 q 411 143 340 143 q 563 240 514 143 l 726 165 q 646 63 697 106 q 526 0 594 19 l 528 0 q 410 -56 447 -19 q 372 -132 372 -92 q 385 -169 372 -156 q 424 -182 399 -182 q 465 -168 446 -182 q 501 -125 483 -154 l 594 -174 q 520 -256 564 -229 q 411 -282 476 -282 q 286 -248 331 -282 q 242 -153 242 -214 q 343 -12 242 -65 q 120 97 200 6 q 40 340 40 189 q 83 537 40 453 q 206 666 126 621 q 393 711 286 711 q 645 620 557 711 q 733 364 733 529 l 733 297 m 518 428 q 485 540 518 501 q 389 579 451 579 q 290 538 325 579 q 251 422 254 497 l 518 422 l 518 428 z "},"ğ":{"ha":799,"x_min":31,"x_max":779,"o":"m 779 663 q 717 669 742 669 q 626 644 660 669 q 707 479 707 582 q 622 308 707 372 q 389 243 536 243 q 246 263 311 243 q 226 226 226 250 q 250 185 226 200 q 321 169 274 169 l 515 169 q 707 117 642 169 q 772 -33 772 65 q 669 -221 772 -154 q 372 -287 565 -287 q 117 -242 204 -287 q 31 -121 31 -197 q 61 -47 31 -79 q 150 4 92 -14 q 78 56 103 22 q 54 135 54 89 q 87 231 54 190 q 179 293 119 271 q 100 372 128 325 q 72 479 72 419 q 158 648 72 585 q 389 711 243 711 q 550 686 482 711 q 619 779 568 746 q 751 813 671 813 q 779 811 769 813 l 779 663 m 389 357 q 467 391 438 357 q 497 479 497 425 q 467 565 497 532 q 389 597 438 597 q 311 565 340 597 q 282 479 282 532 q 312 391 282 425 q 389 357 342 357 m 274 -15 q 224 -12 254 -15 q 196 -78 196 -39 q 382 -165 196 -165 q 536 -144 486 -165 q 586 -83 586 -122 q 492 -17 586 -17 l 274 -15 m 297 1004 q 326 921 300 950 q 399 892 351 892 q 471 921 446 892 q 499 1004 496 950 l 639 1004 q 569 835 633 890 q 399 781 506 781 q 227 835 292 781 q 157 1004 163 890 l 297 1004 z "},"ĝ":{"ha":799,"x_min":31,"x_max":779,"o":"m 301 821 l 139 821 l 286 1004 l 508 1004 l 656 821 l 494 821 l 397 943 l 301 821 m 779 663 q 717 669 742 669 q 626 644 660 669 q 707 479 707 582 q 622 308 707 372 q 389 243 536 243 q 246 263 311 243 q 226 226 226 250 q 250 185 226 200 q 321 169 274 169 l 515 169 q 707 117 642 169 q 772 -33 772 65 q 669 -221 772 -154 q 372 -287 565 -287 q 117 -242 204 -287 q 31 -121 31 -197 q 61 -47 31 -79 q 150 4 92 -14 q 78 56 103 22 q 54 135 54 89 q 87 231 54 190 q 179 293 119 271 q 100 372 128 325 q 72 479 72 419 q 158 648 72 585 q 389 711 243 711 q 550 686 482 711 q 619 779 568 746 q 751 813 671 813 q 779 811 769 813 l 779 663 m 389 357 q 467 391 438 357 q 497 479 497 425 q 467 565 497 532 q 389 597 438 597 q 311 565 340 597 q 282 479 282 532 q 312 391 282 425 q 389 357 342 357 m 274 -15 q 224 -12 254 -15 q 196 -78 196 -39 q 382 -165 196 -165 q 536 -144 486 -165 q 586 -83 586 -122 q 492 -17 586 -17 l 274 -15 z "},"ģ":{"ha":799,"x_min":31,"x_max":779,"o":"m 779 663 q 717 669 742 669 q 626 644 660 669 q 707 479 707 582 q 622 308 707 372 q 389 243 536 243 q 246 263 311 243 q 226 226 226 250 q 250 185 226 200 q 321 169 274 169 l 515 169 q 707 117 642 169 q 772 -33 772 65 q 669 -221 772 -154 q 372 -287 565 -287 q 117 -242 204 -287 q 31 -121 31 -197 q 61 -47 31 -79 q 150 4 92 -14 q 78 56 103 22 q 54 135 54 89 q 87 231 54 190 q 179 293 119 271 q 100 372 128 325 q 72 479 72 419 q 158 648 72 585 q 389 711 243 711 q 550 686 482 711 q 619 779 568 746 q 751 813 671 813 q 779 811 769 813 l 779 663 m 389 357 q 467 391 438 357 q 497 479 497 425 q 467 565 497 532 q 389 597 438 597 q 311 565 340 597 q 282 479 282 532 q 312 391 282 425 q 389 357 342 357 m 274 -15 q 224 -12 254 -15 q 196 -78 196 -39 q 382 -165 196 -165 q 536 -144 486 -165 q 586 -83 586 -122 q 492 -17 586 -17 l 274 -15 m 469 994 q 416 972 431 985 q 401 929 401 958 l 492 929 l 492 788 l 308 788 l 308 911 q 432 1067 308 1042 l 469 994 z "},"ġ":{"ha":799,"x_min":31,"x_max":779,"o":"m 779 663 q 717 669 742 669 q 626 644 660 669 q 707 479 707 582 q 622 308 707 372 q 389 243 536 243 q 246 263 311 243 q 226 226 226 250 q 250 185 226 200 q 321 169 274 169 l 515 169 q 707 117 642 169 q 772 -33 772 65 q 669 -221 772 -154 q 372 -287 565 -287 q 117 -242 204 -287 q 31 -121 31 -197 q 61 -47 31 -79 q 150 4 92 -14 q 78 56 103 22 q 54 135 54 89 q 87 231 54 190 q 179 293 119 271 q 100 372 128 325 q 72 479 72 419 q 158 648 72 585 q 389 711 243 711 q 550 686 482 711 q 619 779 568 746 q 751 813 671 813 q 779 811 769 813 l 779 663 m 389 357 q 467 391 438 357 q 497 479 497 425 q 467 565 497 532 q 389 597 438 597 q 311 565 340 597 q 282 479 282 532 q 312 391 282 425 q 389 357 342 357 m 274 -15 q 224 -12 254 -15 q 196 -78 196 -39 q 382 -165 196 -165 q 536 -144 486 -165 q 586 -83 586 -122 q 492 -17 586 -17 l 274 -15 m 282 997 l 514 997 l 514 794 l 282 794 l 282 997 z "},"ħ":{"ha":840,"x_min":0,"x_max":771,"o":"m 544 711 q 714 641 657 711 q 771 432 771 571 l 771 0 l 549 0 l 549 410 q 446 542 549 542 q 355 499 386 542 q 324 374 324 456 l 324 0 l 100 0 l 100 804 l 0 804 l 0 883 l 100 883 l 100 1007 l 324 1007 l 324 883 l 574 883 l 574 804 l 324 804 l 324 571 q 544 711 388 711 z "},"ĥ":{"ha":853,"x_min":-53,"x_max":771,"o":"m 306 1046 l 213 1149 l 119 1046 l -53 1046 l 94 1210 l 329 1210 l 476 1046 l 306 1046 m 100 1007 l 324 1007 l 324 571 q 544 711 388 711 q 714 641 657 711 q 771 432 771 571 l 771 0 l 549 0 l 549 410 q 446 542 549 542 q 355 499 386 542 q 324 374 324 456 l 324 0 l 100 0 l 100 1007 z "},"í":{"ha":410,"x_min":93,"x_max":432,"o":"m 235 1004 l 432 1004 l 292 788 l 121 788 l 235 1004 m 93 694 l 317 694 l 317 0 l 93 0 l 93 694 z "},"ĭ":{"ha":410,"x_min":11,"x_max":399,"o":"m 149 1004 q 163 917 149 943 q 206 892 176 892 q 247 917 233 892 q 261 1004 260 943 l 399 1004 q 206 781 394 781 q 11 1004 15 781 l 149 1004 m 93 694 l 317 694 l 317 0 l 93 0 l 93 694 z "},"î":{"ha":410,"x_min":-12,"x_max":421,"o":"m 267 788 l 204 935 l 143 788 l -12 788 l 93 1004 l 315 1004 l 421 788 l 267 788 m 93 694 l 317 694 l 317 0 l 93 0 l 93 694 z "},"ï":{"ha":410,"x_min":-1,"x_max":414,"o":"m -1 981 l 175 981 l 175 796 l -1 796 l -1 981 m 236 981 l 414 981 l 414 796 l 236 796 l 236 981 m 93 694 l 317 694 l 317 0 l 93 0 l 93 694 z "},"ı":{"ha":410,"x_min":93,"x_max":317,"o":"m 93 694 l 317 694 l 317 0 l 93 0 l 93 694 z "},"ì":{"ha":410,"x_min":-25,"x_max":317,"o":"m 115 788 l -25 1004 l 172 1004 l 286 788 l 115 788 m 93 694 l 317 694 l 317 0 l 93 0 l 93 694 z "},"ĳ":{"ha":826,"x_min":89,"x_max":738,"o":"m 93 694 l 317 694 l 317 0 l 93 0 l 93 694 m 89 997 l 321 997 l 321 794 l 89 794 l 89 997 m 467 -281 q 411 -278 439 -281 q 363 -272 383 -276 l 363 -112 q 422 -115 386 -115 q 492 -91 472 -115 q 511 1 511 -67 l 511 694 l 733 694 l 733 -14 q 673 -213 733 -146 q 467 -281 613 -281 m 506 997 l 738 997 l 738 794 l 506 794 l 506 997 z "},"ī":{"ha":410,"x_min":28,"x_max":383,"o":"m 28 956 l 383 956 l 383 822 l 28 822 l 28 956 m 93 694 l 317 694 l 317 0 l 93 0 l 93 694 z "},"į":{"ha":410,"x_min":-35,"x_max":321,"o":"m 93 694 l 317 694 l 317 0 l 93 0 l 93 694 m 89 997 l 321 997 l 321 794 l 89 794 l 89 997 m 318 -174 q 244 -256 288 -229 q 135 -282 200 -282 q 10 -248 54 -282 q -35 -153 -35 -214 q 93 0 -35 -54 l 251 0 q 133 -56 171 -19 q 96 -132 96 -92 q 109 -169 96 -156 q 147 -182 122 -182 q 188 -168 169 -182 q 225 -125 207 -154 l 318 -174 z "},"ĩ":{"ha":410,"x_min":-18,"x_max":435,"o":"m 294 789 q 237 804 261 789 q 182 849 213 819 q 152 875 164 867 q 129 883 140 883 q 104 865 114 883 q 89 806 94 847 l -18 843 q 30 971 -7 925 q 122 1017 67 1017 q 181 1001 156 1017 q 235 958 206 986 q 265 932 253 940 q 288 924 276 924 q 313 942 303 924 q 328 1001 322 960 l 435 963 q 387 835 424 881 q 294 789 350 789 m 93 694 l 317 694 l 317 0 l 93 0 l 93 694 z "},"ĵ":{"ha":417,"x_min":-47,"x_max":428,"o":"m 274 788 l 211 935 l 150 788 l -6 788 l 100 1004 l 322 1004 l 428 788 l 274 788 m 57 -281 q 1 -278 29 -281 q -47 -272 -26 -276 l -47 -112 q 13 -115 -24 -115 q 82 -91 63 -115 q 101 1 101 -67 l 101 694 l 324 694 l 324 -14 q 263 -213 324 -146 q 57 -281 203 -281 z "},"ȷ":{"ha":417,"x_min":-47,"x_max":324,"o":"m 57 -281 q 1 -278 29 -281 q -47 -272 -26 -276 l -47 -112 q 13 -115 -24 -115 q 82 -91 63 -115 q 101 1 101 -67 l 101 694 l 324 694 l 324 -14 q 263 -213 324 -146 q 57 -281 203 -281 z "},"ķ":{"ha":825,"x_min":100,"x_max":814,"o":"m 400 281 l 324 199 l 324 0 l 100 0 l 100 1007 l 324 1007 l 324 422 l 549 694 l 807 694 l 554 418 l 814 0 l 565 0 l 400 281 m 368 -262 q 421 -239 406 -253 q 436 -197 436 -225 l 346 -197 l 346 -56 l 529 -56 l 529 -179 q 406 -333 529 -308 l 368 -262 z "},"ĸ":{"ha":818,"x_min":93,"x_max":807,"o":"m 393 281 l 317 199 l 317 0 l 93 0 l 93 694 l 317 694 l 317 422 l 542 694 l 800 694 l 547 418 l 807 0 l 558 0 l 393 281 z "},"ĺ":{"ha":424,"x_min":100,"x_max":457,"o":"m 264 1210 l 457 1210 l 296 1046 l 126 1046 l 264 1210 m 324 0 l 100 0 l 100 1007 l 324 1007 l 324 0 z "},"ľ":{"ha":531,"x_min":100,"x_max":568,"o":"m 324 0 l 100 0 l 100 1007 l 324 1007 l 324 0 m 407 790 q 460 810 444 797 q 475 844 475 822 l 385 844 l 385 986 l 568 986 l 568 863 q 440 724 568 746 l 407 790 z "},"ļ":{"ha":424,"x_min":100,"x_max":324,"o":"m 324 0 l 100 0 l 100 1007 l 324 1007 l 324 0 m 143 -262 q 196 -239 181 -253 q 211 -197 211 -225 l 121 -197 l 121 -56 l 304 -56 l 304 -179 q 181 -333 304 -308 l 143 -262 z "},"ŀ":{"ha":613,"x_min":100,"x_max":650,"o":"m 324 0 l 100 0 l 100 1007 l 324 1007 l 324 0 z "},"ł":{"ha":424,"x_min":24,"x_max":397,"o":"m 397 661 l 324 594 l 324 0 l 100 0 l 100 390 l 24 321 l 24 429 l 100 499 l 100 1007 l 324 1007 l 324 703 l 397 769 l 397 661 z "},"ń":{"ha":846,"x_min":93,"x_max":764,"o":"m 93 694 l 307 694 l 307 561 q 538 711 379 711 q 707 640 650 711 q 764 431 764 569 l 764 0 l 542 0 l 542 400 q 516 507 542 472 q 438 542 490 542 q 348 499 379 542 q 317 375 317 456 l 317 0 l 93 0 l 93 694 m 513 1004 l 722 1004 l 531 788 l 360 788 l 513 1004 z "},"ŉ":{"ha":861,"x_min":17,"x_max":778,"o":"m 107 694 l 321 694 l 321 561 q 551 711 393 711 q 721 640 664 711 q 778 431 778 569 l 778 0 l 556 0 l 556 400 q 530 507 556 472 q 451 542 504 542 q 362 499 393 542 q 331 375 331 456 l 331 0 l 107 0 l 107 694 m 39 790 q 92 810 76 797 q 107 844 107 822 l 17 844 l 17 986 l 200 986 l 200 863 q 72 724 200 746 l 39 790 z "},"ň":{"ha":846,"x_min":93,"x_max":764,"o":"m 93 694 l 307 694 l 307 561 q 538 711 379 711 q 707 640 650 711 q 764 431 764 569 l 764 0 l 542 0 l 542 400 q 516 507 542 472 q 438 542 490 542 q 348 499 379 542 q 317 375 317 456 l 317 0 l 93 0 l 93 694 m 349 997 l 444 851 l 542 997 l 703 997 l 556 781 l 333 781 l 186 997 l 349 997 z "},"ņ":{"ha":846,"x_min":93,"x_max":764,"o":"m 93 694 l 307 694 l 307 561 q 538 711 379 711 q 707 640 650 711 q 764 431 764 569 l 764 0 l 542 0 l 542 400 q 516 507 542 472 q 438 542 490 542 q 348 499 379 542 q 317 375 317 456 l 317 0 l 93 0 l 93 694 m 354 -262 q 407 -239 392 -253 q 422 -197 422 -225 l 332 -197 l 332 -56 l 515 -56 l 515 -179 q 392 -333 515 -308 l 354 -262 z "},"ñ":{"ha":846,"x_min":93,"x_max":764,"o":"m 93 694 l 307 694 l 307 561 q 538 711 379 711 q 707 640 650 711 q 764 431 764 569 l 764 0 l 542 0 l 542 400 q 516 507 542 472 q 438 542 490 542 q 348 499 379 542 q 317 375 317 456 l 317 0 l 93 0 l 93 694 m 553 789 q 485 803 513 789 q 421 844 457 817 q 378 874 396 864 q 342 883 361 883 q 301 865 317 883 q 272 803 285 846 l 165 840 q 226 970 181 924 q 342 1017 271 1017 q 409 1003 381 1017 q 472 963 438 989 q 517 933 500 942 q 554 924 533 924 q 595 942 579 924 q 622 1003 611 960 l 731 965 q 670 835 715 882 q 553 789 625 789 z "},"ŋ":{"ha":846,"x_min":93,"x_max":764,"o":"m 538 711 q 707 640 650 711 q 764 431 764 569 l 764 -1 q 707 -212 764 -143 q 508 -281 650 -281 q 394 -272 440 -281 l 394 -112 q 460 -115 426 -115 q 524 -90 506 -115 q 542 3 542 -64 l 542 400 q 516 507 542 472 q 438 542 490 542 q 348 499 379 542 q 317 375 317 456 l 317 0 l 93 0 l 93 694 l 307 694 l 307 561 q 538 711 379 711 z "},"ó":{"ha":801,"x_min":40,"x_max":761,"o":"m 400 -17 q 215 26 296 -17 q 87 150 133 68 q 40 349 40 232 q 87 547 40 465 q 215 669 133 628 q 400 711 296 711 q 586 669 504 711 q 715 547 668 628 q 761 349 761 465 q 715 150 761 232 q 586 26 668 68 q 400 -17 504 -17 m 400 138 q 503 191 467 138 q 539 349 539 244 q 503 506 539 454 q 400 557 467 557 q 298 506 333 557 q 263 349 263 454 q 299 191 263 244 q 400 138 335 138 m 468 1004 l 678 1004 l 486 788 l 315 788 l 468 1004 z "},"ŏ":{"ha":801,"x_min":40,"x_max":761,"o":"m 400 -17 q 215 26 296 -17 q 87 150 133 68 q 40 349 40 232 q 87 547 40 465 q 215 669 133 628 q 400 711 296 711 q 586 669 504 711 q 715 547 668 628 q 761 349 761 465 q 715 150 761 232 q 586 26 668 68 q 400 -17 504 -17 m 400 138 q 503 191 467 138 q 539 349 539 244 q 503 506 539 454 q 400 557 467 557 q 298 506 333 557 q 263 349 263 454 q 299 191 263 244 q 400 138 335 138 m 300 1004 q 328 921 303 950 q 401 892 354 892 q 474 921 449 892 q 501 1004 499 950 l 642 1004 q 572 835 636 890 q 401 781 508 781 q 230 835 294 781 q 160 1004 165 890 l 300 1004 z "},"ô":{"ha":801,"x_min":40,"x_max":761,"o":"m 400 -17 q 215 26 296 -17 q 87 150 133 68 q 40 349 40 232 q 87 547 40 465 q 215 669 133 628 q 400 711 296 711 q 586 669 504 711 q 715 547 668 628 q 761 349 761 465 q 715 150 761 232 q 586 26 668 68 q 400 -17 504 -17 m 400 138 q 503 191 467 138 q 539 349 539 244 q 503 506 539 454 q 400 557 467 557 q 298 506 333 557 q 263 349 263 454 q 299 191 263 244 q 400 138 335 138 m 497 788 l 400 933 l 304 788 l 142 788 l 289 1004 l 511 1004 l 658 788 l 497 788 z "},"ö":{"ha":801,"x_min":40,"x_max":761,"o":"m 400 -17 q 215 26 296 -17 q 87 150 133 68 q 40 349 40 232 q 87 547 40 465 q 215 669 133 628 q 400 711 296 711 q 586 669 504 711 q 715 547 668 628 q 761 349 761 465 q 715 150 761 232 q 586 26 668 68 q 400 -17 504 -17 m 400 138 q 503 191 467 138 q 539 349 539 244 q 503 506 539 454 q 400 557 467 557 q 298 506 333 557 q 263 349 263 454 q 299 191 263 244 q 400 138 335 138 m 151 981 l 344 981 l 344 796 l 151 796 l 151 981 m 457 981 l 650 981 l 650 796 l 457 796 l 457 981 z "},"œ":{"ha":1279,"x_min":40,"x_max":1232,"o":"m 1232 297 l 750 297 q 795 185 751 226 q 910 143 839 143 q 1061 240 1013 143 l 1225 165 q 1099 31 1183 79 q 906 -17 1014 -17 q 640 74 738 -17 q 400 -17 547 -17 q 211 28 293 -17 q 85 156 129 74 q 40 347 40 239 q 85 539 40 457 q 210 666 129 621 q 400 711 292 711 q 642 618 551 711 q 892 711 738 711 q 1143 620 1054 711 q 1232 364 1232 529 l 1232 297 m 1015 428 q 983 540 1017 501 q 886 579 949 579 q 788 538 822 579 q 750 422 753 497 l 1015 422 l 1015 428 m 400 138 q 503 192 467 138 q 539 347 539 246 q 503 503 539 449 q 400 557 467 557 q 299 503 335 557 q 263 347 263 449 q 299 192 263 246 q 400 138 335 138 z "},"ò":{"ha":801,"x_min":40,"x_max":761,"o":"m 400 -17 q 215 26 296 -17 q 87 150 133 68 q 40 349 40 232 q 87 547 40 465 q 215 669 133 628 q 400 711 296 711 q 586 669 504 711 q 715 547 668 628 q 761 349 761 465 q 715 150 761 232 q 586 26 668 68 q 400 -17 504 -17 m 400 138 q 503 191 467 138 q 539 349 539 244 q 503 506 539 454 q 400 557 467 557 q 298 506 333 557 q 263 349 263 454 q 299 191 263 244 q 400 138 335 138 m 314 788 l 121 1004 l 331 1004 l 483 788 l 314 788 z "},"ő":{"ha":801,"x_min":40,"x_max":761,"o":"m 400 -17 q 215 26 296 -17 q 87 150 133 68 q 40 349 40 232 q 87 547 40 465 q 215 669 133 628 q 400 711 296 711 q 586 669 504 711 q 715 547 668 628 q 761 349 761 465 q 715 150 761 232 q 586 26 668 68 q 400 -17 504 -17 m 400 138 q 503 191 467 138 q 539 349 539 244 q 503 506 539 454 q 400 557 467 557 q 298 506 333 557 q 263 349 263 454 q 299 191 263 244 q 400 138 335 138 m 325 1004 l 485 1004 l 357 788 l 203 788 l 325 1004 m 564 1004 l 724 1004 l 596 788 l 442 788 l 564 1004 z "},"ō":{"ha":801,"x_min":40,"x_max":761,"o":"m 400 -17 q 215 26 296 -17 q 87 150 133 68 q 40 349 40 232 q 87 547 40 465 q 215 669 133 628 q 400 711 296 711 q 586 669 504 711 q 715 547 668 628 q 761 349 761 465 q 715 150 761 232 q 586 26 668 68 q 400 -17 504 -17 m 400 138 q 503 191 467 138 q 539 349 539 244 q 503 506 539 454 q 400 557 467 557 q 298 506 333 557 q 263 349 263 454 q 299 191 263 244 q 400 138 335 138 m 163 956 l 639 956 l 639 822 l 163 822 l 163 956 z "},"ª":{"ha":639,"x_min":36,"x_max":583,"o":"m 215 418 q 85 460 135 418 q 36 568 36 501 q 85 677 36 643 q 236 726 135 711 l 379 747 l 379 768 q 313 835 379 835 q 238 767 243 835 l 51 767 q 128 902 58 854 q 314 950 197 950 q 508 899 446 950 q 569 740 569 849 l 569 561 q 583 431 569 476 l 400 431 q 392 510 392 467 q 324 442 371 467 q 215 418 276 418 m 292 525 q 360 549 333 525 q 386 611 386 574 l 386 671 l 315 658 q 241 633 264 650 q 218 585 218 617 q 238 542 218 558 q 292 525 258 525 z "},"º":{"ha":638,"x_min":40,"x_max":597,"o":"m 318 418 q 118 488 196 418 q 40 686 40 557 q 118 882 40 814 q 318 950 196 950 q 519 882 440 950 q 597 686 597 814 q 519 488 597 557 q 318 418 440 418 m 318 543 q 385 579 361 543 q 410 686 410 615 q 318 825 410 825 q 226 686 226 825 q 251 579 226 615 q 318 543 275 543 z "},"ø":{"ha":801,"x_min":40,"x_max":761,"o":"m 660 618 q 761 349 761 521 q 715 150 761 232 q 586 26 668 68 q 400 -17 504 -17 q 190 40 279 -17 l 139 -24 l 89 13 l 142 78 q 67 194 93 125 q 40 349 40 263 q 87 547 40 465 q 215 669 133 628 q 400 711 296 711 q 610 657 522 711 l 660 718 l 711 681 l 660 618 m 263 349 q 275 243 263 288 l 496 515 q 400 557 461 557 q 298 506 333 557 q 263 349 263 454 m 400 138 q 503 191 467 138 q 539 349 539 244 q 526 453 539 411 l 306 181 q 400 138 340 138 z "},"ǿ":{"ha":801,"x_min":40,"x_max":761,"o":"m 660 618 q 761 349 761 521 q 715 150 761 232 q 586 26 668 68 q 400 -17 504 -17 q 190 40 279 -17 l 139 -24 l 89 13 l 142 78 q 67 194 93 125 q 40 349 40 263 q 87 547 40 465 q 215 669 133 628 q 400 711 296 711 q 610 657 522 711 l 660 718 l 711 681 l 660 618 m 263 349 q 275 243 263 288 l 496 515 q 400 557 461 557 q 298 506 333 557 q 263 349 263 454 m 400 138 q 503 191 467 138 q 539 349 539 244 q 526 453 539 411 l 306 181 q 400 138 340 138 m 471 1004 l 681 1004 l 489 788 l 318 788 l 471 1004 z "},"õ":{"ha":801,"x_min":40,"x_max":761,"o":"m 400 -17 q 215 26 296 -17 q 87 150 133 68 q 40 349 40 232 q 87 547 40 465 q 215 669 133 628 q 400 711 296 711 q 586 669 504 711 q 715 547 668 628 q 761 349 761 465 q 715 150 761 232 q 586 26 668 68 q 400 -17 504 -17 m 400 138 q 503 191 467 138 q 539 349 539 244 q 503 506 539 454 q 400 557 467 557 q 298 506 333 557 q 263 349 263 454 q 299 191 263 244 q 400 138 335 138 m 510 789 q 442 803 469 789 q 378 844 414 817 q 335 874 353 864 q 299 883 318 883 q 258 865 274 883 q 229 803 242 846 l 122 840 q 183 970 138 924 q 299 1017 228 1017 q 366 1003 338 1017 q 429 963 394 989 q 474 933 457 942 q 511 924 490 924 q 552 942 536 924 q 579 1003 568 960 l 688 965 q 627 835 672 882 q 510 789 582 789 z "},"ŕ":{"ha":572,"x_min":93,"x_max":576,"o":"m 303 515 q 388 661 331 611 q 535 711 446 711 l 549 711 l 549 499 q 507 500 535 500 q 372 458 421 500 q 329 385 342 429 q 317 283 317 342 l 317 0 l 93 0 l 93 694 l 303 694 l 303 515 m 367 1004 l 576 1004 l 385 788 l 214 788 l 367 1004 z "},"ř":{"ha":572,"x_min":39,"x_max":556,"o":"m 303 515 q 388 661 331 611 q 535 711 446 711 l 549 711 l 549 499 q 507 500 535 500 q 372 458 421 500 q 329 385 342 429 q 317 283 317 342 l 317 0 l 93 0 l 93 694 l 303 694 l 303 515 m 201 997 l 297 851 l 394 997 l 556 997 l 408 781 l 186 781 l 39 997 l 201 997 z "},"ŗ":{"ha":572,"x_min":93,"x_max":549,"o":"m 303 515 q 388 661 331 611 q 535 711 446 711 l 549 711 l 549 499 q 507 500 535 500 q 372 458 421 500 q 329 385 342 429 q 317 283 317 342 l 317 0 l 93 0 l 93 694 l 303 694 l 303 515 m 136 -262 q 189 -239 174 -253 q 204 -197 204 -225 l 114 -197 l 114 -56 l 297 -56 l 297 -179 q 174 -333 297 -308 l 136 -262 z "},"ś":{"ha":708,"x_min":22,"x_max":679,"o":"m 365 -17 q 160 25 250 -17 q 22 144 71 67 l 150 239 q 369 135 226 135 q 453 151 425 135 q 482 197 482 168 q 461 238 482 225 q 383 260 440 251 l 275 279 q 60 492 60 315 q 142 651 60 592 q 365 711 224 711 q 553 677 469 711 q 679 582 636 643 l 564 479 q 353 563 481 563 q 256 504 256 563 q 273 467 256 479 q 332 447 290 454 l 469 424 q 624 353 575 406 q 672 213 672 301 q 591 45 672 107 q 365 -17 510 -17 m 421 1004 l 631 1004 l 439 788 l 268 788 l 421 1004 z "},"š":{"ha":708,"x_min":22,"x_max":679,"o":"m 365 -17 q 160 25 250 -17 q 22 144 71 67 l 150 239 q 369 135 226 135 q 453 151 425 135 q 482 197 482 168 q 461 238 482 225 q 383 260 440 251 l 275 279 q 60 492 60 315 q 142 651 60 592 q 365 711 224 711 q 553 677 469 711 q 679 582 636 643 l 564 479 q 353 563 481 563 q 256 504 256 563 q 273 467 256 479 q 332 447 290 454 l 469 424 q 624 353 575 406 q 672 213 672 301 q 591 45 672 107 q 365 -17 510 -17 m 257 997 l 353 851 l 450 997 l 611 997 l 464 781 l 242 781 l 94 997 l 257 997 z "},"ş":{"ha":708,"x_min":22,"x_max":679,"o":"m 469 424 q 624 353 575 406 q 672 213 672 301 q 604 55 672 115 q 411 -15 536 -6 l 382 -64 q 457 -43 410 -43 q 549 -74 515 -43 q 583 -164 583 -106 q 534 -262 583 -228 q 401 -296 485 -296 q 290 -272 335 -296 q 225 -206 244 -249 l 342 -176 q 396 -210 357 -210 q 436 -196 421 -210 q 451 -158 451 -182 q 436 -122 451 -136 q 397 -108 421 -108 q 351 -129 368 -108 l 268 -110 l 310 -14 q 139 35 214 -6 q 22 144 64 75 l 150 239 q 369 135 226 135 q 453 151 425 135 q 482 197 482 168 q 461 238 482 225 q 383 260 440 251 l 275 279 q 60 492 60 315 q 142 651 60 592 q 365 711 224 711 q 553 677 469 711 q 679 582 636 643 l 564 479 q 353 563 481 563 q 256 504 256 563 q 273 467 256 479 q 332 447 290 454 l 469 424 z "},"ŝ":{"ha":708,"x_min":22,"x_max":679,"o":"m 365 -17 q 160 25 250 -17 q 22 144 71 67 l 150 239 q 369 135 226 135 q 453 151 425 135 q 482 197 482 168 q 461 238 482 225 q 383 260 440 251 l 275 279 q 60 492 60 315 q 142 651 60 592 q 365 711 224 711 q 553 677 469 711 q 679 582 636 643 l 564 479 q 353 563 481 563 q 256 504 256 563 q 273 467 256 479 q 332 447 290 454 l 469 424 q 624 353 575 406 q 672 213 672 301 q 591 45 672 107 q 365 -17 510 -17 m 450 788 l 353 933 l 257 788 l 94 788 l 242 1004 l 464 1004 l 611 788 l 450 788 z "},"ș":{"ha":708,"x_min":22,"x_max":679,"o":"m 365 -17 q 160 25 250 -17 q 22 144 71 67 l 150 239 q 369 135 226 135 q 453 151 425 135 q 482 197 482 168 q 461 238 482 225 q 383 260 440 251 l 275 279 q 60 492 60 315 q 142 651 60 592 q 365 711 224 711 q 553 677 469 711 q 679 582 636 643 l 564 479 q 353 563 481 563 q 256 504 256 563 q 273 467 256 479 q 332 447 290 454 l 469 424 q 624 353 575 406 q 672 213 672 301 q 591 45 672 107 q 365 -17 510 -17 m 303 -262 q 356 -239 340 -253 q 371 -197 371 -225 l 281 -197 l 281 -56 l 464 -56 l 464 -179 q 340 -333 464 -308 l 303 -262 z "},"ŧ":{"ha":553,"x_min":7,"x_max":515,"o":"m 350 546 l 350 436 l 500 436 l 500 319 l 350 319 l 350 276 q 451 171 350 171 q 515 178 481 171 l 515 1 q 389 -12 442 -12 q 190 47 253 -12 q 128 224 128 107 l 128 319 l 28 319 l 28 436 l 128 436 l 128 546 l 7 546 l 7 694 l 128 694 l 128 861 l 350 947 l 350 694 l 515 694 l 515 546 l 350 546 z "},"ť":{"ha":560,"x_min":7,"x_max":575,"o":"m 7 694 l 128 694 l 128 861 l 350 947 l 350 694 l 515 694 l 515 546 l 350 546 l 350 276 q 451 171 350 171 q 515 178 481 171 l 515 1 q 389 -12 442 -12 q 190 47 253 -12 q 128 224 128 107 l 128 546 l 7 546 l 7 694 m 414 790 q 467 810 451 797 q 482 844 482 822 l 392 844 l 392 986 l 575 986 l 575 863 q 447 724 575 746 l 414 790 z "},"ţ":{"ha":550,"x_min":7,"x_max":563,"o":"m 436 -43 q 528 -74 494 -43 q 563 -164 563 -106 q 513 -262 563 -228 q 381 -296 464 -296 q 269 -272 314 -296 q 204 -206 224 -249 l 321 -176 q 375 -210 336 -210 q 415 -196 400 -210 q 431 -158 431 -182 q 415 -122 431 -136 q 376 -108 400 -108 q 331 -129 347 -108 l 247 -110 l 294 -3 q 168 72 208 15 q 128 224 128 129 l 128 546 l 7 546 l 7 694 l 128 694 l 128 861 l 350 947 l 350 694 l 515 694 l 515 546 l 350 546 l 350 276 q 451 171 350 171 q 515 178 481 171 l 515 1 q 392 -12 444 -12 l 361 -64 q 436 -43 389 -43 z "},"ț":{"ha":550,"x_min":7,"x_max":515,"o":"m 7 694 l 128 694 l 128 861 l 350 947 l 350 694 l 515 694 l 515 546 l 350 546 l 350 276 q 451 171 350 171 q 515 178 481 171 l 515 1 q 389 -12 442 -12 q 190 47 253 -12 q 128 224 128 107 l 128 546 l 7 546 l 7 694 m 281 -262 q 333 -239 318 -253 q 349 -197 349 -225 l 258 -197 l 258 -56 l 442 -56 l 442 -179 q 318 -333 442 -308 l 281 -262 z "},"þ":{"ha":854,"x_min":100,"x_max":808,"o":"m 100 1007 l 324 1007 l 324 601 q 410 683 356 654 q 535 711 465 711 q 680 665 618 711 q 775 538 742 619 q 808 349 808 456 q 774 158 808 242 q 674 29 739 75 q 524 -17 610 -17 q 406 11 457 -17 q 324 90 354 39 l 324 -271 l 100 -271 l 100 1007 m 449 138 q 544 196 510 138 q 579 349 579 254 q 544 501 579 444 q 447 557 510 557 q 351 507 385 557 q 318 364 318 457 l 318 325 q 353 188 318 239 q 449 138 388 138 z "},"ú":{"ha":838,"x_min":82,"x_max":744,"o":"m 315 -17 q 82 244 82 -17 l 82 694 l 304 694 l 304 283 q 330 186 304 219 q 404 153 356 153 q 490 192 458 153 q 521 297 521 232 l 521 694 l 744 694 l 744 0 l 532 0 l 532 126 q 449 22 507 60 q 315 -17 390 -17 m 481 1004 l 690 1004 l 499 788 l 328 788 l 481 1004 z "},"ŭ":{"ha":838,"x_min":82,"x_max":744,"o":"m 315 -17 q 82 244 82 -17 l 82 694 l 304 694 l 304 283 q 330 186 304 219 q 404 153 356 153 q 490 192 458 153 q 521 297 521 232 l 521 694 l 744 694 l 744 0 l 532 0 l 532 126 q 449 22 507 60 q 315 -17 390 -17 m 313 1004 q 341 921 315 950 q 414 892 367 892 q 486 921 461 892 q 514 1004 511 950 l 654 1004 q 585 835 649 890 q 414 781 521 781 q 242 835 307 781 q 172 1004 178 890 l 313 1004 z "},"û":{"ha":838,"x_min":82,"x_max":744,"o":"m 315 -17 q 82 244 82 -17 l 82 694 l 304 694 l 304 283 q 330 186 304 219 q 404 153 356 153 q 490 192 458 153 q 521 297 521 232 l 521 694 l 744 694 l 744 0 l 532 0 l 532 126 q 449 22 507 60 q 315 -17 390 -17 m 510 788 l 413 933 l 317 788 l 154 788 l 301 1004 l 524 1004 l 671 788 l 510 788 z "},"ü":{"ha":838,"x_min":82,"x_max":744,"o":"m 315 -17 q 82 244 82 -17 l 82 694 l 304 694 l 304 283 q 330 186 304 219 q 404 153 356 153 q 490 192 458 153 q 521 297 521 232 l 521 694 l 744 694 l 744 0 l 532 0 l 532 126 q 449 22 507 60 q 315 -17 390 -17 m 164 981 l 357 981 l 357 796 l 164 796 l 164 981 m 469 981 l 663 981 l 663 796 l 469 796 l 469 981 z "},"ù":{"ha":838,"x_min":82,"x_max":744,"o":"m 315 -17 q 82 244 82 -17 l 82 694 l 304 694 l 304 283 q 330 186 304 219 q 404 153 356 153 q 490 192 458 153 q 521 297 521 232 l 521 694 l 744 694 l 744 0 l 532 0 l 532 126 q 449 22 507 60 q 315 -17 390 -17 m 326 788 l 133 1004 l 343 1004 l 496 788 l 326 788 z "},"ű":{"ha":838,"x_min":82,"x_max":744,"o":"m 315 -17 q 82 244 82 -17 l 82 694 l 304 694 l 304 283 q 330 186 304 219 q 404 153 356 153 q 490 192 458 153 q 521 297 521 232 l 521 694 l 744 694 l 744 0 l 532 0 l 532 126 q 449 22 507 60 q 315 -17 390 -17 m 338 1004 l 497 1004 l 369 788 l 215 788 l 338 1004 m 576 1004 l 736 1004 l 608 788 l 454 788 l 576 1004 z "},"ū":{"ha":838,"x_min":82,"x_max":744,"o":"m 315 -17 q 82 244 82 -17 l 82 694 l 304 694 l 304 283 q 330 186 304 219 q 404 153 356 153 q 490 192 458 153 q 521 297 521 232 l 521 694 l 744 694 l 744 0 l 532 0 l 532 126 q 449 22 507 60 q 315 -17 390 -17 m 175 956 l 651 956 l 651 822 l 175 822 l 175 956 z "},"ų":{"ha":838,"x_min":82,"x_max":757,"o":"m 757 -174 q 683 -256 726 -229 q 574 -282 639 -282 q 449 -248 493 -282 q 404 -153 404 -214 q 532 0 404 -54 l 532 126 q 449 22 507 60 q 315 -17 390 -17 q 82 244 82 -17 l 82 694 l 304 694 l 304 283 q 330 186 304 219 q 404 153 356 153 q 490 192 458 153 q 521 297 521 232 l 521 694 l 744 694 l 744 0 l 690 0 q 572 -56 610 -19 q 535 -132 535 -92 q 548 -169 535 -156 q 586 -182 561 -182 q 627 -168 608 -182 q 664 -125 646 -154 l 757 -174 z "},"ů":{"ha":838,"x_min":82,"x_max":744,"o":"m 315 -17 q 82 244 82 -17 l 82 694 l 304 694 l 304 283 q 330 186 304 219 q 404 153 356 153 q 490 192 458 153 q 521 297 521 232 l 521 694 l 744 694 l 744 0 l 532 0 l 532 126 q 449 22 507 60 q 315 -17 390 -17 m 413 761 q 285 806 333 761 q 236 924 236 850 q 285 1042 236 997 q 413 1088 333 1088 q 542 1042 493 1088 q 590 924 590 997 q 542 806 590 850 q 413 761 493 761 m 413 850 q 465 871 444 850 q 485 924 485 892 q 465 976 485 956 q 413 997 444 997 q 360 976 381 997 q 340 924 340 956 q 360 871 340 892 q 413 850 381 850 z "},"ũ":{"ha":838,"x_min":82,"x_max":744,"o":"m 315 -17 q 82 244 82 -17 l 82 694 l 304 694 l 304 283 q 330 186 304 219 q 404 153 356 153 q 490 192 458 153 q 521 297 521 232 l 521 694 l 744 694 l 744 0 l 532 0 l 532 126 q 449 22 507 60 q 315 -17 390 -17 m 522 789 q 454 803 482 789 q 390 844 426 817 q 348 874 365 864 q 311 883 331 883 q 270 865 286 883 q 242 803 254 846 l 135 840 q 195 970 150 924 q 311 1017 240 1017 q 378 1003 350 1017 q 442 963 407 989 q 486 933 469 942 q 524 924 503 924 q 565 942 549 924 q 592 1003 581 960 l 700 965 q 640 835 685 882 q 522 789 594 789 z "},"ẃ":{"ha":1081,"x_min":21,"x_max":1058,"o":"m 21 694 l 233 694 l 321 269 l 331 203 l 333 203 q 344 269 339 250 l 446 694 l 635 694 l 736 269 q 747 203 743 236 l 750 203 q 760 269 756 250 l 846 694 l 1058 694 l 874 0 l 657 0 l 556 393 q 542 468 543 451 l 539 468 q 525 393 538 451 l 424 0 l 207 0 l 21 694 m 608 1004 l 818 1004 l 626 788 l 456 788 l 608 1004 z "},"ŵ":{"ha":1081,"x_min":21,"x_max":1058,"o":"m 21 694 l 233 694 l 321 269 l 331 203 l 333 203 q 344 269 339 250 l 446 694 l 635 694 l 736 269 q 747 203 743 236 l 750 203 q 760 269 756 250 l 846 694 l 1058 694 l 874 0 l 657 0 l 556 393 q 542 468 543 451 l 539 468 q 525 393 538 451 l 424 0 l 207 0 l 21 694 m 638 788 l 540 933 l 444 788 l 282 788 l 429 1004 l 651 1004 l 799 788 l 638 788 z "},"ẅ":{"ha":1081,"x_min":21,"x_max":1058,"o":"m 21 694 l 233 694 l 321 269 l 331 203 l 333 203 q 344 269 339 250 l 446 694 l 635 694 l 736 269 q 747 203 743 236 l 750 203 q 760 269 756 250 l 846 694 l 1058 694 l 874 0 l 657 0 l 556 393 q 542 468 543 451 l 539 468 q 525 393 538 451 l 424 0 l 207 0 l 21 694 m 292 981 l 485 981 l 485 796 l 292 796 l 292 981 m 597 981 l 790 981 l 790 796 l 597 796 l 597 981 z "},"ẁ":{"ha":1081,"x_min":21,"x_max":1058,"o":"m 21 694 l 233 694 l 321 269 l 331 203 l 333 203 q 344 269 339 250 l 446 694 l 635 694 l 736 269 q 747 203 743 236 l 750 203 q 760 269 756 250 l 846 694 l 1058 694 l 874 0 l 657 0 l 556 393 q 542 468 543 451 l 539 468 q 525 393 538 451 l 424 0 l 207 0 l 21 694 m 454 788 l 261 1004 l 471 1004 l 624 788 l 454 788 z "},"ý":{"ha":747,"x_min":6,"x_max":742,"o":"m 142 -278 q 50 -269 104 -278 l 50 -107 q 118 -114 93 -114 q 213 -93 179 -114 q 261 -25 247 -72 l 271 4 l 6 694 l 247 694 l 369 272 q 385 192 381 232 l 389 192 q 406 272 390 218 l 518 694 l 742 694 l 493 -31 q 365 -221 447 -164 q 142 -278 282 -278 m 450 1004 l 660 1004 l 468 788 l 297 788 l 450 1004 z "},"ŷ":{"ha":747,"x_min":6,"x_max":742,"o":"m 142 -278 q 50 -269 104 -278 l 50 -107 q 118 -114 93 -114 q 213 -93 179 -114 q 261 -25 247 -72 l 271 4 l 6 694 l 247 694 l 369 272 q 385 192 381 232 l 389 192 q 406 272 390 218 l 518 694 l 742 694 l 493 -31 q 365 -221 447 -164 q 142 -278 282 -278 m 479 788 l 382 933 l 286 788 l 124 788 l 271 1004 l 493 1004 l 640 788 l 479 788 z "},"ÿ":{"ha":747,"x_min":6,"x_max":742,"o":"m 142 -278 q 50 -269 104 -278 l 50 -107 q 118 -114 93 -114 q 213 -93 179 -114 q 261 -25 247 -72 l 271 4 l 6 694 l 247 694 l 369 272 q 385 192 381 232 l 389 192 q 406 272 390 218 l 518 694 l 742 694 l 493 -31 q 365 -221 447 -164 q 142 -278 282 -278 m 133 981 l 326 981 l 326 796 l 133 796 l 133 981 m 439 981 l 632 981 l 632 796 l 439 796 l 439 981 z "},"ỳ":{"ha":747,"x_min":6,"x_max":742,"o":"m 142 -278 q 50 -269 104 -278 l 50 -107 q 118 -114 93 -114 q 213 -93 179 -114 q 261 -25 247 -72 l 271 4 l 6 694 l 247 694 l 369 272 q 385 192 381 232 l 389 192 q 406 272 390 218 l 518 694 l 742 694 l 493 -31 q 365 -221 447 -164 q 142 -278 282 -278 m 296 788 l 103 1004 l 313 1004 l 465 788 l 296 788 z "},"ź":{"ha":669,"x_min":31,"x_max":642,"o":"m 361 538 l 47 538 l 47 694 l 621 694 l 621 568 l 300 160 l 642 160 l 642 0 l 31 0 l 31 131 l 361 538 m 407 1004 l 617 1004 l 425 788 l 254 788 l 407 1004 z "},"ž":{"ha":669,"x_min":31,"x_max":642,"o":"m 361 538 l 47 538 l 47 694 l 621 694 l 621 568 l 300 160 l 642 160 l 642 0 l 31 0 l 31 131 l 361 538 m 243 997 l 339 851 l 436 997 l 597 997 l 450 781 l 228 781 l 81 997 l 243 997 z "},"ż":{"ha":669,"x_min":31,"x_max":642,"o":"m 361 538 l 47 538 l 47 694 l 621 694 l 621 568 l 300 160 l 642 160 l 642 0 l 31 0 l 31 131 l 361 538 m 224 997 l 456 997 l 456 794 l 224 794 l 224 997 z "},"ß":{"ha":872,"x_min":96,"x_max":829,"o":"m 96 675 q 183 924 96 838 q 442 1010 271 1010 q 684 949 599 1010 q 769 775 769 889 q 716 626 769 686 q 571 554 663 565 q 763 477 696 543 q 829 297 829 411 q 736 66 829 149 q 478 -17 643 -17 q 388 -7 431 -17 l 388 149 q 443 142 415 142 q 563 185 519 142 q 607 311 607 229 q 559 426 607 386 q 418 468 511 465 l 386 468 l 386 619 l 421 619 q 515 657 482 621 q 547 758 547 693 q 519 833 547 807 q 438 860 490 860 q 349 821 379 860 q 318 710 318 782 l 318 0 l 96 0 l 96 675 z "},"ð":{"ha":807,"x_min":44,"x_max":769,"o":"m 614 883 q 730 665 690 788 q 769 400 769 542 q 724 176 769 271 q 594 33 678 82 q 396 -17 510 -17 q 136 78 228 -17 q 44 344 44 172 q 81 539 44 456 q 184 667 117 622 q 342 711 251 711 q 453 679 406 711 q 525 597 500 647 l 528 597 q 413 814 499 714 l 272 767 l 250 828 l 364 867 q 267 946 318 910 l 456 1028 q 568 935 519 985 l 669 969 l 690 908 l 614 883 m 406 138 q 510 193 474 138 q 547 350 547 249 q 510 503 547 449 q 408 558 474 558 q 306 504 342 558 q 269 349 269 450 q 306 194 269 251 q 406 138 342 138 z "},"`":{"ha":833,"x_min":-22,"x_max":340,"o":"m 171 788 l -22 1004 l 188 1004 l 340 788 l 171 788 z "},"´":{"ha":833,"x_min":68,"x_max":431,"o":"m 221 1004 l 431 1004 l 239 788 l 68 788 l 221 1004 z "},"ˆ":{"ha":833,"x_min":58,"x_max":575,"o":"m 414 788 l 317 933 l 221 788 l 58 788 l 206 1004 l 428 1004 l 575 788 l 414 788 z "},"˜":{"ha":833,"x_min":71,"x_max":636,"o":"m 458 789 q 390 803 418 789 q 326 844 363 817 q 284 874 301 864 q 247 883 267 883 q 206 865 222 883 q 178 803 190 846 l 71 840 q 131 970 86 924 q 247 1017 176 1017 q 315 1003 286 1017 q 378 963 343 989 q 422 933 406 942 q 460 924 439 924 q 501 942 485 924 q 528 1003 517 960 l 636 965 q 576 835 621 882 q 458 789 531 789 z "},"ˇ":{"ha":833,"x_min":58,"x_max":575,"o":"m 221 997 l 317 851 l 414 997 l 575 997 l 428 781 l 206 781 l 58 997 l 221 997 z "},"¨":{"ha":833,"x_min":69,"x_max":568,"o":"m 69 981 l 263 981 l 263 796 l 69 796 l 69 981 m 375 981 l 568 981 l 568 796 l 375 796 l 375 981 z "},"¯":{"ha":833,"x_min":69,"x_max":546,"o":"m 69 956 l 546 956 l 546 822 l 69 822 l 69 956 z "},"˘":{"ha":833,"x_min":71,"x_max":553,"o":"m 211 1004 q 240 921 214 950 q 313 892 265 892 q 385 921 360 892 q 413 1004 410 950 l 553 1004 q 483 835 547 890 q 313 781 419 781 q 141 835 206 781 q 71 1004 76 890 l 211 1004 z "},"˚":{"ha":833,"x_min":53,"x_max":407,"o":"m 229 761 q 101 806 150 761 q 53 924 53 850 q 101 1042 53 997 q 229 1088 150 1088 q 358 1042 310 1088 q 407 924 407 997 q 358 806 407 850 q 229 761 310 761 m 229 850 q 281 871 261 850 q 301 924 301 892 q 281 976 301 956 q 229 997 261 997 q 177 976 197 997 q 157 924 157 956 q 177 871 157 892 q 229 850 197 850 z "},"˝":{"ha":833,"x_min":103,"x_max":624,"o":"m 225 1004 l 385 1004 l 257 788 l 103 788 l 225 1004 m 464 1004 l 624 1004 l 496 788 l 342 788 l 464 1004 z "},"˙":{"ha":833,"x_min":69,"x_max":301,"o":"m 69 997 l 301 997 l 301 794 l 69 794 l 69 997 z "},"¸":{"ha":833,"x_min":72,"x_max":431,"o":"m 274 10 l 229 -64 q 304 -43 257 -43 q 397 -74 363 -43 q 431 -164 431 -106 q 381 -262 431 -228 q 249 -296 332 -296 q 137 -272 182 -296 q 72 -206 92 -249 l 189 -176 q 243 -210 204 -210 q 283 -196 268 -210 q 299 -158 299 -182 q 283 -122 299 -136 q 244 -108 268 -108 q 199 -129 215 -108 l 115 -110 l 168 10 l 274 10 z "},"˛":{"ha":833,"x_min":69,"x_max":422,"o":"m 422 -174 q 348 -256 392 -229 q 239 -282 304 -282 q 114 -248 158 -282 q 69 -153 69 -214 q 197 0 69 -54 l 356 0 q 238 -56 275 -19 q 200 -132 200 -92 q 213 -169 200 -156 q 251 -182 226 -182 q 292 -168 274 -182 q 329 -125 311 -154 l 422 -174 z "},",":{"ha":396,"x_min":79,"x_max":317,"o":"m 90 -124 q 169 -78 149 -104 q 190 -3 190 -51 l 190 0 l 79 0 l 79 228 l 317 228 l 317 13 q 274 -131 317 -76 q 136 -215 232 -186 l 90 -124 z "},";":{"ha":396,"x_min":79,"x_max":317,"o":"m 317 467 l 79 467 l 79 694 l 317 694 l 317 467 m 90 -124 q 169 -78 149 -104 q 190 -3 190 -51 l 190 0 l 79 0 l 79 228 l 317 228 l 317 13 q 274 -131 317 -76 q 136 -215 232 -186 l 90 -124 z "},":":{"ha":396,"x_min":79,"x_max":317,"o":"m 317 467 l 79 467 l 79 694 l 317 694 l 317 467 m 317 0 l 79 0 l 79 228 l 317 228 l 317 0 z "},".":{"ha":396,"x_min":79,"x_max":317,"o":"m 317 0 l 79 0 l 79 228 l 317 228 l 317 0 z "},"…":{"ha":1179,"x_min":79,"x_max":1100,"o":"m 317 0 l 79 0 l 79 221 l 317 221 l 317 0 m 708 0 l 471 0 l 471 221 l 708 221 l 708 0 m 1100 0 l 863 0 l 863 221 l 1100 221 l 1100 0 z "},"-":{"ha":576,"x_min":61,"x_max":515,"o":"m 515 481 l 515 292 l 61 292 l 61 481 l 515 481 z "},"!":{"ha":458,"x_min":103,"x_max":356,"o":"m 103 1007 l 356 1007 l 318 322 l 140 322 l 103 1007 m 350 0 l 108 0 l 108 213 l 350 213 l 350 0 z "},"¡":{"ha":458,"x_min":103,"x_max":356,"o":"m 108 593 l 108 806 l 350 806 l 350 593 l 108 593 m 318 483 l 356 -201 l 103 -201 l 140 483 l 318 483 z "},"?":{"ha":736,"x_min":14,"x_max":715,"o":"m 244 364 q 265 447 244 407 q 333 524 285 486 l 404 578 q 467 645 446 610 q 488 729 488 681 q 455 813 488 782 q 365 843 422 843 q 265 808 301 843 q 229 711 229 774 q 238 642 229 669 l 24 660 q 14 740 14 704 q 56 882 14 821 q 178 976 99 943 q 367 1010 258 1010 q 624 942 532 1010 q 715 753 715 875 q 681 616 715 679 q 585 504 646 553 l 521 451 q 474 399 488 424 q 461 338 461 375 l 461 297 l 244 297 l 244 364 m 235 213 l 474 213 l 474 0 l 235 0 l 235 213 z "},"¿":{"ha":736,"x_min":21,"x_max":722,"o":"m 501 593 l 261 593 l 261 806 l 501 806 l 501 593 m 492 442 q 472 359 492 399 q 403 282 451 319 l 332 228 q 269 160 290 196 q 249 76 249 125 q 281 -7 249 24 q 371 -37 314 -37 q 471 -3 435 -37 q 507 94 507 32 q 499 164 507 129 l 713 146 q 722 65 722 101 q 680 -76 722 -15 q 558 -171 638 -137 q 369 -204 478 -204 q 113 -137 204 -204 q 21 53 21 -69 q 56 190 21 126 q 151 301 90 253 l 214 354 q 261 406 249 381 q 274 468 274 431 l 274 508 l 492 508 l 492 442 z "},"‘":{"ha":396,"x_min":79,"x_max":317,"o":"m 306 932 q 226 886 246 913 q 206 811 206 860 l 206 808 l 317 808 l 317 581 l 79 581 l 79 796 q 122 940 79 885 q 260 1024 164 994 l 306 932 z "},"’":{"ha":396,"x_min":79,"x_max":317,"o":"m 90 635 q 169 681 149 654 q 190 756 190 707 l 190 758 l 79 758 l 79 986 l 317 986 l 317 771 q 274 627 317 682 q 136 543 232 572 l 90 635 z "},"“":{"ha":696,"x_min":79,"x_max":617,"o":"m 306 932 q 226 887 246 913 q 206 813 206 861 l 206 808 l 317 808 l 317 582 l 79 582 l 79 796 q 122 940 79 885 q 260 1024 164 994 l 306 932 m 606 932 q 527 887 547 913 q 507 813 507 861 l 507 808 l 617 808 l 617 582 l 381 582 l 381 796 q 423 940 381 885 q 561 1024 465 994 l 606 932 z "},"”":{"ha":696,"x_min":79,"x_max":617,"o":"m 90 635 q 169 681 149 654 q 190 756 190 707 l 190 758 l 79 758 l 79 986 l 317 986 l 317 771 q 274 628 317 683 q 136 544 232 574 l 90 635 m 392 635 q 470 681 450 654 q 490 756 490 707 l 490 758 l 381 758 l 381 986 l 617 986 l 617 771 q 574 628 617 683 q 436 544 532 574 l 392 635 z "},"‚":{"ha":396,"x_min":79,"x_max":317,"o":"m 90 -124 q 169 -78 149 -104 q 190 -3 190 -51 l 190 0 l 79 0 l 79 228 l 317 228 l 317 13 q 274 -131 317 -76 q 136 -215 232 -186 l 90 -124 z "},"„":{"ha":696,"x_min":79,"x_max":617,"o":"m 90 -124 q 169 -78 149 -104 q 190 -3 190 -51 l 190 0 l 79 0 l 79 228 l 317 228 l 317 13 q 274 -130 317 -75 q 136 -214 232 -185 l 90 -124 m 392 -124 q 470 -78 450 -104 q 490 -3 490 -51 l 490 0 l 381 0 l 381 228 l 617 228 l 617 13 q 574 -130 617 -75 q 436 -214 532 -185 l 392 -124 z "},"‹":{"ha":469,"x_min":24,"x_max":446,"o":"m 24 383 l 254 669 l 446 669 l 219 385 l 443 93 l 250 93 l 24 383 z "},"›":{"ha":469,"x_min":24,"x_max":446,"o":"m 26 93 l 250 385 l 24 669 l 215 669 l 446 383 l 219 93 l 26 93 z "},"·":{"ha":396,"x_min":79,"x_max":317,"o":"m 317 353 l 79 353 l 79 581 l 317 581 l 317 353 z "},"/":{"ha":703,"x_min":58,"x_max":644,"o":"m 58 -162 l 450 1056 l 644 1056 l 253 -162 l 58 -162 z "},"|":{"ha":340,"x_min":100,"x_max":239,"o":"m 100 1056 l 239 1056 l 239 -162 l 100 -162 l 100 1056 z "},"–":{"ha":863,"x_min":61,"x_max":803,"o":"m 803 465 l 803 307 l 61 307 l 61 465 l 803 465 z "},"—":{"ha":1190,"x_min":61,"x_max":1129,"o":"m 1129 465 l 1129 307 l 61 307 l 61 465 l 1129 465 z "},"•":{"ha":518,"x_min":79,"x_max":439,"o":"m 258 294 q 130 344 181 294 q 79 471 79 393 q 130 600 79 550 q 258 650 181 650 q 388 601 338 650 q 439 471 439 551 q 388 344 439 393 q 258 294 338 294 z "},"(":{"ha":493,"x_min":75,"x_max":488,"o":"m 321 -194 q 140 104 204 -61 q 75 454 75 269 q 321 1086 75 811 l 488 1022 q 333 752 382 889 q 283 453 283 615 q 333 147 283 290 q 488 -131 383 4 l 321 -194 z "},")":{"ha":493,"x_min":6,"x_max":418,"o":"m 6 -131 q 160 147 110 4 q 210 453 210 290 q 160 752 210 615 q 6 1022 111 889 l 171 1086 q 418 454 418 811 q 353 104 418 269 q 172 -194 289 -61 l 6 -131 z "},"[":{"ha":499,"x_min":103,"x_max":469,"o":"m 103 1051 l 469 1051 l 469 896 l 307 896 l 307 -3 l 469 -3 l 469 -158 l 103 -158 l 103 1051 z "},"]":{"ha":499,"x_min":29,"x_max":394,"o":"m 29 -158 l 29 -3 l 192 -3 l 192 896 l 29 896 l 29 1051 l 394 1051 l 394 -158 l 29 -158 z "},"{":{"ha":532,"x_min":47,"x_max":503,"o":"m 403 -160 q 218 -106 278 -160 q 158 57 158 -53 l 158 249 q 135 351 158 321 q 47 383 113 382 l 47 531 q 117 545 94 532 q 149 585 140 558 q 157 660 157 611 l 157 844 q 223 1001 157 944 q 407 1058 289 1058 l 499 1058 l 499 903 l 461 903 q 385 875 410 903 q 361 797 361 847 l 361 665 q 332 526 361 576 q 226 458 303 476 q 331 383 301 436 q 360 242 360 331 l 360 94 q 453 -3 360 -3 l 503 -3 l 503 -160 l 403 -160 z "},"}":{"ha":532,"x_min":29,"x_max":485,"o":"m 29 -160 l 29 -3 l 79 -3 q 171 94 171 -3 l 171 242 q 200 384 171 332 q 306 458 229 436 q 199 527 229 476 q 169 665 169 578 l 169 797 q 71 903 169 903 l 33 903 l 33 1058 l 125 1058 q 309 1001 243 1058 q 375 844 375 944 l 375 660 q 383 585 375 611 q 415 545 392 558 q 485 531 438 532 l 485 383 q 397 351 419 382 q 374 249 374 321 l 374 57 q 314 -106 374 -53 q 129 -160 254 -160 l 29 -160 z "},"«":{"ha":790,"x_min":24,"x_max":767,"o":"m 24 383 l 254 669 l 446 669 l 219 385 l 443 93 l 250 93 l 24 383 m 344 383 l 575 669 l 767 669 l 540 385 l 764 93 l 571 93 l 344 383 z "},"»":{"ha":790,"x_min":24,"x_max":767,"o":"m 26 93 l 250 385 l 24 669 l 215 669 l 446 383 l 219 93 l 26 93 m 347 93 l 571 385 l 344 669 l 536 669 l 767 383 l 540 93 l 347 93 z "},"*":{"ha":529,"x_min":6,"x_max":524,"o":"m 336 736 l 475 608 l 344 513 l 265 681 l 185 513 l 54 608 l 193 736 l 6 763 l 57 917 l 218 824 l 183 1007 l 346 1007 l 310 824 l 472 917 l 524 763 l 336 736 z "},"~":{"ha":861,"x_min":63,"x_max":799,"o":"m 572 279 q 484 296 522 279 q 399 344 446 313 q 340 379 363 368 q 292 390 317 390 q 226 365 253 390 q 188 293 199 340 l 63 324 q 144 473 85 419 q 288 526 204 526 q 376 510 338 526 q 461 461 414 493 q 519 426 496 438 q 568 414 543 414 q 634 439 607 414 q 674 511 661 464 l 799 482 q 717 332 776 385 q 572 279 657 279 z "},"¦":{"ha":339,"x_min":100,"x_max":239,"o":"m 239 535 l 100 535 l 100 1056 l 239 1056 l 239 535 m 239 -162 l 100 -162 l 100 367 l 239 367 l 239 -162 z "},"\\":{"ha":703,"x_min":58,"x_max":644,"o":"m 58 1056 l 253 1056 l 644 -162 l 450 -162 l 58 1056 z "},"_":{"ha":651,"x_min":0,"x_max":651,"o":"m 651 -124 l 651 -247 l 0 -247 l 0 -124 l 651 -124 z "},"'":{"ha":358,"x_min":79,"x_max":278,"o":"m 79 986 l 278 986 l 253 569 l 104 569 l 79 986 z "},"\"":{"ha":636,"x_min":79,"x_max":557,"o":"m 358 986 l 557 986 l 532 569 l 383 569 l 358 986 m 79 986 l 278 986 l 253 569 l 104 569 l 79 986 z "},"&":{"ha":972,"x_min":17,"x_max":956,"o":"m 913 163 q 956 165 947 163 l 956 0 q 863 -12 908 -12 q 660 65 749 -12 q 372 -24 532 -24 q 183 12 264 -24 q 60 111 103 47 q 17 261 17 175 q 63 409 17 346 q 217 531 108 472 q 133 654 158 597 q 108 771 108 711 q 186 956 108 889 q 400 1024 264 1024 q 615 960 535 1024 q 694 789 694 896 q 494 524 694 631 l 489 521 l 669 332 q 731 563 714 431 l 904 525 q 793 204 883 338 q 913 163 842 163 m 406 888 q 335 860 361 888 q 308 782 310 833 q 327 712 308 747 q 394 622 346 676 l 404 628 q 503 779 503 676 q 478 859 503 831 q 406 888 453 888 m 240 276 q 289 176 240 215 q 411 136 338 136 q 549 179 486 136 l 319 421 q 258 358 276 390 q 240 276 240 325 z "},"@":{"ha":1169,"x_min":40,"x_max":1129,"o":"m 599 -142 q 303 -77 429 -142 q 108 106 176 -12 q 40 383 40 224 q 110 660 40 539 q 307 849 181 781 q 599 917 433 917 q 881 854 761 917 q 1065 677 1000 792 q 1129 411 1129 563 q 1061 177 1129 264 q 878 90 993 90 q 757 118 806 90 q 692 199 708 146 q 615 117 665 146 q 497 88 564 88 q 355 136 410 88 q 300 263 300 185 q 353 385 300 342 q 524 449 407 429 l 678 471 l 678 497 q 658 569 678 547 q 593 592 639 592 q 503 503 507 592 l 318 503 q 397 658 322 600 q 594 715 472 715 q 854 486 854 715 l 854 292 q 868 214 854 238 q 915 190 882 190 q 996 249 967 190 q 1025 408 1025 307 q 914 716 1025 606 q 597 826 803 826 q 357 772 458 826 q 202 617 256 717 q 149 383 149 517 q 206 156 149 254 q 369 5 264 58 q 614 -49 474 -49 q 746 -33 678 -49 q 868 7 814 -18 l 907 -76 q 599 -142 776 -142 m 563 213 q 649 246 617 213 q 681 335 681 279 l 681 371 l 594 358 q 488 278 488 342 q 509 231 488 250 q 563 213 531 213 z "},"©":{"ha":1113,"x_min":40,"x_max":1072,"o":"m 557 -24 q 297 40 415 -24 q 110 222 179 104 q 40 493 40 339 q 110 766 40 649 q 297 947 179 883 q 557 1010 415 1010 q 815 947 697 1010 q 1003 766 933 883 q 1072 493 1072 649 q 1003 222 1072 339 q 815 40 933 104 q 557 -24 697 -24 m 557 58 q 768 112 672 58 q 921 264 864 165 q 978 493 978 363 q 921 722 978 624 q 768 874 864 821 q 557 928 672 928 q 345 874 442 928 q 192 722 249 821 q 135 493 135 624 q 192 264 135 363 q 345 112 249 165 q 557 58 442 58 m 567 197 q 365 277 439 197 q 292 494 292 357 q 366 710 292 631 q 567 790 440 790 q 741 738 675 790 q 818 590 807 685 l 674 564 q 640 643 668 614 q 565 672 611 672 q 472 624 506 672 q 438 494 438 576 q 472 364 438 413 q 567 315 507 315 q 639 344 610 315 q 675 421 668 374 l 818 392 q 733 248 800 299 q 567 197 667 197 z "},"®":{"ha":1113,"x_min":40,"x_max":1072,"o":"m 557 1010 q 815 947 697 1010 q 1003 766 933 883 q 1072 493 1072 649 q 1003 222 1072 339 q 815 40 933 104 q 557 -24 697 -24 q 297 40 415 -24 q 110 222 179 104 q 40 493 40 339 q 110 766 40 649 q 297 947 179 883 q 557 1010 415 1010 m 557 58 q 768 112 672 58 q 921 264 864 165 q 978 493 978 363 q 921 722 978 624 q 768 874 864 821 q 557 928 672 928 q 345 874 442 928 q 192 722 249 821 q 135 493 135 624 q 192 264 135 363 q 345 112 249 165 q 557 58 442 58 m 800 601 q 770 507 800 547 q 688 447 740 467 l 817 215 l 661 215 l 549 431 l 486 431 l 486 215 l 344 215 l 344 781 l 590 781 q 746 734 692 781 q 800 601 800 688 m 486 528 l 564 528 q 631 547 607 528 q 654 601 654 567 q 564 676 654 676 l 486 676 l 486 528 z "},"™":{"ha":1254,"x_min":7,"x_max":1175,"o":"m 178 872 l 7 872 l 7 986 l 493 986 l 493 872 l 314 872 l 314 422 l 178 422 l 178 872 m 553 986 l 747 986 l 849 649 q 863 561 860 604 l 867 561 q 881 649 869 604 l 981 986 l 1175 986 l 1175 422 l 1051 422 l 1051 753 q 1054 875 1051 829 l 1053 875 q 1026 772 1043 831 l 922 422 l 806 422 l 701 772 q 676 875 683 833 l 674 875 q 676 753 676 829 l 676 422 l 553 422 l 553 986 z "},"¶":{"ha":983,"x_min":76,"x_max":865,"o":"m 397 483 q 167 542 257 483 q 76 742 76 601 q 169 939 76 878 q 404 1000 261 1000 l 865 1000 l 865 896 l 763 896 l 763 -137 l 646 -137 l 646 896 l 514 896 l 514 -137 l 397 -137 l 397 483 z "},"§":{"ha":683,"x_min":-3,"x_max":656,"o":"m 574 268 q 643 107 643 208 q 559 -66 643 -6 q 329 -126 475 -126 q 128 -85 214 -126 q -3 35 42 -43 l 121 140 q 211 55 156 85 q 336 25 267 25 q 439 92 439 25 q 419 136 439 119 q 342 172 399 153 l 193 224 q 56 310 100 257 q 11 440 11 363 q 121 604 11 556 q 42 768 42 665 q 121 935 42 876 q 339 993 200 993 q 515 958 436 993 q 640 861 594 924 l 521 751 q 442 823 489 799 q 338 847 394 847 q 267 831 292 847 q 243 783 243 814 q 261 740 243 756 q 331 706 279 724 l 475 658 q 612 576 568 629 q 656 442 656 524 q 574 268 656 331 m 456 328 l 461 326 q 486 389 486 350 q 462 446 486 424 q 371 494 438 468 l 228 547 q 192 479 192 524 q 217 420 192 442 q 314 372 242 399 l 456 328 z "},"^":{"ha":647,"x_min":28,"x_max":619,"o":"m 407 985 l 619 621 l 446 621 l 324 849 l 200 621 l 28 621 l 240 985 l 407 985 z "},"†":{"ha":686,"x_min":71,"x_max":617,"o":"m 422 -139 l 264 -139 l 264 564 l 71 564 l 71 694 l 264 694 l 264 1000 l 422 1000 l 422 694 l 617 694 l 617 564 l 422 564 l 422 -139 z "},"‡":{"ha":686,"x_min":71,"x_max":617,"o":"m 422 564 l 422 303 l 615 303 l 615 172 l 422 172 l 422 -139 l 264 -139 l 264 172 l 71 172 l 71 303 l 264 303 l 264 564 l 71 564 l 71 694 l 264 694 l 264 1000 l 422 1000 l 422 694 l 617 694 l 617 564 l 422 564 z "},"∅":{"ha":751,"x_min":40,"x_max":711,"o":"m 633 638 q 706 424 706 550 q 663 252 706 326 q 546 136 621 178 q 375 94 471 94 q 183 149 265 94 l 104 64 l 40 124 l 118 208 q 46 422 46 296 q 88 593 46 518 q 206 709 131 668 q 376 750 281 750 q 568 696 486 750 l 647 782 l 711 721 l 633 638 m 214 424 q 235 335 214 372 l 456 574 q 376 593 419 593 q 260 546 306 593 q 214 424 214 499 m 536 422 q 517 510 536 471 l 296 272 q 375 253 332 253 q 491 299 446 253 q 536 422 536 346 z "},"Ω":{"ha":947,"x_min":44,"x_max":904,"o":"m 542 0 l 518 375 q 641 449 599 390 q 683 604 683 508 q 626 767 683 707 q 474 828 569 828 q 321 767 378 828 q 264 604 264 707 q 306 449 264 508 q 431 375 349 390 l 406 0 l 58 0 l 58 181 l 251 181 l 258 258 q 100 387 156 296 q 44 608 44 478 q 98 817 44 726 q 249 957 151 907 q 474 1007 346 1007 q 699 957 601 1007 q 850 817 796 907 q 904 608 904 726 q 849 387 904 478 q 690 258 793 296 l 696 181 l 889 181 l 889 0 l 542 0 z "},"∆":{"ha":931,"x_min":13,"x_max":917,"o":"m 344 986 l 589 986 l 917 0 l 13 0 l 344 986 m 275 165 l 647 165 l 465 761 l 275 165 z "},"µ":{"ha":850,"x_min":93,"x_max":756,"o":"m 756 694 l 756 0 l 544 0 l 544 126 q 461 22 519 61 q 328 -17 403 -17 q 293 -15 304 -17 l 293 -271 l 93 -271 l 93 694 l 317 694 l 317 283 q 417 153 317 153 q 501 192 469 153 q 533 297 533 232 l 533 694 l 756 694 z "},"":{"ha":1414,"x_min":28,"x_max":1386,"o":"m 619 921 l 619 856 l 1386 856 l 1386 789 l 619 789 l 619 724 l 1386 724 l 1386 657 l 619 657 l 619 592 l 1386 592 l 1386 526 l 619 526 l 619 460 l 1386 460 l 1386 394 l 28 394 l 28 986 l 1386 986 l 1386 921 l 619 921 m 111 939 l 89 939 l 82 960 l 76 939 l 54 939 l 72 926 l 65 906 l 82 918 l 100 906 l 93 926 l 111 939 m 175 939 l 193 926 l 186 906 l 203 919 l 221 906 l 214 926 l 231 939 l 210 939 l 203 960 l 197 939 l 175 939 m 296 939 l 314 926 l 307 906 l 324 919 l 342 906 l 335 926 l 351 939 l 331 939 l 324 960 l 318 939 l 296 939 m 417 939 l 435 926 l 428 906 l 444 919 l 463 906 l 456 926 l 472 939 l 451 939 l 444 960 l 438 939 l 417 939 m 593 939 l 572 939 l 565 960 l 558 939 l 538 939 l 554 926 l 549 906 l 565 919 l 583 906 l 576 926 l 593 939 m 115 878 l 132 865 l 126 846 l 143 858 l 160 846 l 154 865 l 171 878 l 150 878 l 143 899 l 136 878 l 115 878 m 533 878 l 511 878 l 506 899 l 499 878 l 478 878 l 494 865 l 488 846 l 506 858 l 522 846 l 515 865 l 533 878 m 379 635 l 510 635 l 510 746 l 379 746 l 379 876 l 268 876 l 268 746 l 139 746 l 139 635 l 268 635 l 268 506 l 379 506 l 379 635 m 111 818 l 89 818 l 82 838 l 76 818 l 54 818 l 72 806 l 65 785 l 82 797 l 100 785 l 93 806 l 111 818 m 175 818 l 193 806 l 186 785 l 203 797 l 221 785 l 214 806 l 231 818 l 210 818 l 203 838 l 197 818 l 175 818 m 417 818 l 435 806 l 428 785 l 444 797 l 463 785 l 456 806 l 472 818 l 451 818 l 444 838 l 438 818 l 417 818 m 593 818 l 572 818 l 565 838 l 558 818 l 538 818 l 554 806 l 549 785 l 565 797 l 583 785 l 576 806 l 593 818 m 111 697 l 89 697 l 82 717 l 76 697 l 54 697 l 72 683 l 65 664 l 82 676 l 100 664 l 93 683 l 111 697 m 593 697 l 572 697 l 565 717 l 558 697 l 538 697 l 554 683 l 549 664 l 565 676 l 583 664 l 576 683 l 593 697 m 111 575 l 89 575 l 82 596 l 76 575 l 54 575 l 72 563 l 65 543 l 82 556 l 100 543 l 93 563 l 111 575 m 231 575 l 210 575 l 203 596 l 197 575 l 175 575 l 193 563 l 186 543 l 203 556 l 221 543 l 214 563 l 231 575 m 472 575 l 451 575 l 444 596 l 438 575 l 417 575 l 435 563 l 428 543 l 444 556 l 463 543 l 456 563 l 472 575 m 593 575 l 572 575 l 565 596 l 558 575 l 538 575 l 554 563 l 549 543 l 565 556 l 583 543 l 576 563 l 593 575 m 154 503 l 171 515 l 150 515 l 143 535 l 136 515 l 115 515 l 132 503 l 126 482 l 143 494 l 160 482 l 154 503 m 515 503 l 533 515 l 511 515 l 506 535 l 499 515 l 478 515 l 494 503 l 488 482 l 506 494 l 522 482 l 515 503 m 93 442 l 111 454 l 89 454 l 82 475 l 76 454 l 54 454 l 72 442 l 65 421 l 82 433 l 100 421 l 93 442 m 214 442 l 231 454 l 210 454 l 203 475 l 197 454 l 175 454 l 193 442 l 186 421 l 203 433 l 221 421 l 214 442 m 335 442 l 351 454 l 331 454 l 324 475 l 318 454 l 296 454 l 314 442 l 307 421 l 324 433 l 342 421 l 335 442 m 456 442 l 472 454 l 451 454 l 444 475 l 438 454 l 417 454 l 435 442 l 428 421 l 444 433 l 463 421 l 456 442 m 576 442 l 593 454 l 572 454 l 565 475 l 558 454 l 538 454 l 554 442 l 549 421 l 565 433 l 583 421 l 576 442 m 28 329 l 1385 329 l 1385 263 l 28 263 l 28 329 m 28 197 l 1386 197 l 1386 132 l 28 132 l 28 197 m 28 65 l 1386 65 l 1386 0 l 28 0 l 28 65 z "},"ℓ":{"ha":774,"x_min":-4,"x_max":725,"o":"m 371 292 q 412 184 376 215 q 524 153 447 153 q 624 163 579 153 l 624 0 q 468 -19 561 -19 q 243 37 321 -19 q 149 208 165 93 l 44 179 l -4 335 q 144 381 81 358 l 144 701 q 220 932 144 854 q 433 1010 296 1010 q 649 940 572 1010 q 725 742 725 871 q 635 485 725 597 q 371 292 546 374 m 369 475 q 476 581 443 521 q 508 733 508 642 q 491 831 508 801 q 436 861 474 861 q 387 837 404 861 q 369 767 369 813 l 369 475 z "},"℮":{"ha":1003,"x_min":40,"x_max":963,"o":"m 297 481 l 297 149 q 521 85 386 85 q 715 126 635 85 q 858 258 794 167 l 935 199 q 521 -21 796 -21 q 280 33 389 -21 q 106 202 171 88 q 40 488 40 317 q 104 764 40 650 q 276 935 168 878 q 513 993 383 993 q 750 936 649 993 q 907 776 851 879 q 963 536 963 672 l 963 481 l 297 481 m 717 838 q 506 899 635 899 q 398 883 453 899 q 297 833 343 868 l 297 574 l 717 574 l 717 838 z "},"$":{"ha":860,"x_min":-3,"x_max":832,"o":"m 832 278 q 735 72 832 151 q 474 -19 639 -8 l 474 -149 l 382 -149 l 382 -19 q 146 44 246 -11 q -3 194 46 100 l 165 310 q 382 149 240 169 l 382 422 l 329 435 q 51 715 51 497 q 140 903 51 832 q 382 985 228 975 l 382 1111 l 474 1111 l 474 985 q 810 806 692 968 l 660 683 q 474 824 594 799 l 474 590 l 533 576 q 761 470 690 540 q 832 278 832 400 m 250 725 q 279 657 250 683 q 382 611 308 631 l 382 828 q 285 797 319 824 q 250 725 250 771 m 474 146 q 586 183 546 153 q 626 267 626 214 q 592 351 626 321 q 474 401 557 381 l 474 146 z "},"¢":{"ha":776,"x_min":40,"x_max":742,"o":"m 443 132 q 561 272 543 151 l 740 233 q 642 60 721 126 q 443 -15 563 -6 l 443 -140 l 361 -140 l 361 -15 q 126 94 211 -1 q 40 347 40 190 q 125 599 40 504 q 361 708 210 694 l 361 825 l 443 825 l 443 710 q 645 638 567 703 q 742 460 724 572 l 560 429 q 522 523 550 489 q 443 567 494 557 l 443 132 m 231 347 q 263 202 231 257 q 361 133 296 147 l 361 567 q 265 496 299 553 q 231 347 231 439 z "},"£":{"ha":910,"x_min":10,"x_max":900,"o":"m 900 242 q 810 49 883 119 q 628 -21 738 -21 q 549 -17 583 -21 q 464 -4 515 -12 q 371 10 413 6 q 275 15 329 15 q 54 -11 174 15 l 10 117 q 156 202 108 144 q 203 349 203 260 q 194 443 203 400 l 54 443 l 54 549 l 174 549 q 157 678 157 618 q 246 905 157 824 q 490 986 335 986 q 726 923 638 986 q 838 738 814 860 l 629 692 q 585 790 619 756 q 496 824 551 824 q 401 788 433 824 q 369 682 369 751 q 386 549 369 632 l 631 549 l 631 443 l 407 443 q 411 376 411 413 q 376 245 411 300 q 272 161 340 190 q 375 174 317 174 q 481 164 425 174 q 522 158 490 163 q 586 154 554 154 q 663 185 633 154 q 700 274 693 217 l 900 242 z "},"ƒ":{"ha":638,"x_min":33,"x_max":625,"o":"m 560 814 q 470 782 497 814 q 432 676 443 750 l 421 594 l 567 594 l 567 447 l 401 447 l 313 -208 l 88 -208 l 175 447 l 33 447 l 33 594 l 194 594 l 203 657 q 300 904 225 825 q 535 983 375 983 q 625 974 574 983 l 624 807 q 560 814 582 814 z "},"¥":{"ha":839,"x_min":-4,"x_max":843,"o":"m 542 440 l 763 440 l 763 344 l 529 344 l 529 269 l 763 269 l 763 174 l 529 174 l 529 0 l 310 0 l 310 174 l 78 174 l 78 269 l 310 269 l 310 344 l 78 344 l 78 440 l 297 440 l -4 965 l 242 965 l 360 729 q 418 583 400 646 l 421 583 q 479 729 435 635 l 597 965 l 843 965 l 542 440 z "},"€":{"ha":944,"x_min":7,"x_max":926,"o":"m 926 231 q 774 44 878 110 q 519 -21 671 -21 q 227 78 340 -21 q 81 350 114 176 l 7 350 l 7 443 l 69 443 q 68 493 68 460 l 68 526 l 7 526 l 7 618 l 78 618 q 225 890 110 793 q 525 986 340 986 q 781 922 678 986 q 919 744 883 858 l 714 686 q 642 778 692 744 q 521 813 592 813 q 381 763 435 813 q 307 618 326 713 l 639 618 l 639 526 l 294 526 l 294 494 q 296 443 294 460 l 639 443 l 639 350 l 311 350 q 391 206 335 257 q 528 154 447 154 q 646 190 596 154 q 719 288 696 226 l 926 231 z "},"¤":{"ha":788,"x_min":40,"x_max":747,"o":"m 729 421 q 671 226 729 308 l 747 142 l 647 47 l 567 133 q 400 93 493 93 q 225 138 301 93 l 140 46 l 40 140 l 124 232 q 69 421 69 313 q 125 611 69 531 l 40 703 l 140 797 l 226 706 q 400 749 304 749 q 564 710 490 749 l 647 799 l 747 704 l 669 618 q 729 421 729 533 m 400 251 q 513 298 468 251 q 558 421 558 344 q 513 544 558 497 q 400 590 468 590 q 284 544 331 590 q 238 421 238 497 q 284 298 238 344 q 400 251 331 251 z "},"ﬁ":{"ha":953,"x_min":24,"x_max":864,"o":"m 518 546 l 357 546 l 357 0 l 135 0 l 135 546 l 24 546 l 24 694 l 135 694 l 135 760 q 205 949 135 883 q 407 1015 275 1015 q 518 1003 465 1015 l 518 843 q 450 850 479 850 q 381 826 404 850 q 357 754 357 801 l 357 694 l 518 694 l 518 546 m 636 694 l 860 694 l 860 0 l 636 0 l 636 694 m 632 997 l 864 997 l 864 794 l 632 794 l 632 997 z "},"ﬂ":{"ha":968,"x_min":24,"x_max":867,"o":"m 518 546 l 357 546 l 357 0 l 135 0 l 135 546 l 24 546 l 24 694 l 135 694 l 135 760 q 205 949 135 883 q 407 1015 275 1015 q 518 1003 465 1015 l 518 843 q 450 850 479 850 q 381 826 404 850 q 357 754 357 801 l 357 694 l 518 694 l 518 546 m 867 0 l 643 0 l 643 1007 l 867 1007 l 867 0 z "},"⁄":{"ha":293,"x_min":-236,"x_max":528,"o":"m 381 1010 l 528 1010 l -86 -24 l -236 -24 l 381 1010 z "},"¼":{"ha":1119,"x_min":33,"x_max":1104,"o":"m 761 1010 l 908 1010 l 294 -24 l 144 -24 l 761 1010 m 1018 115 l 1018 0 l 886 0 l 886 115 l 625 115 l 625 208 l 864 543 l 1018 543 l 1018 217 l 1104 217 l 1104 115 l 1018 115 m 749 217 l 886 217 l 886 417 l 749 217 z "},"½":{"ha":1181,"x_min":33,"x_max":1135,"o":"m 761 1010 l 908 1010 l 294 -24 l 144 -24 l 761 1010 m 708 103 q 915 242 846 182 q 985 374 985 301 q 967 426 985 408 q 917 444 950 444 q 866 426 885 444 q 847 375 847 407 q 854 331 847 361 l 713 344 q 708 385 708 368 q 766 509 708 463 q 924 556 824 556 q 1076 510 1022 556 q 1131 383 1131 465 q 1065 226 1131 290 q 899 113 1000 161 l 1135 113 l 1135 0 l 708 0 l 708 103 z "},"¾":{"ha":1258,"x_min":31,"x_max":1244,"o":"m 900 1010 l 1047 1010 l 433 -24 l 283 -24 l 900 1010 m 1158 115 l 1158 0 l 1026 0 l 1026 115 l 765 115 l 765 208 l 1004 543 l 1158 543 l 1158 217 l 1244 217 l 1244 115 l 1158 115 m 889 217 l 1026 217 l 1026 417 l 889 217 z "},"⅓":{"ha":1192,"x_min":33,"x_max":1150,"o":"m 761 1010 l 908 1010 l 294 -24 l 144 -24 l 761 1010 m 929 -12 q 765 35 826 -12 q 703 164 703 83 l 842 179 q 866 117 842 139 q 931 96 890 96 q 1006 163 1006 96 q 983 210 1006 194 q 908 225 960 225 l 878 225 l 878 325 l 910 325 q 992 390 992 325 q 922 449 992 449 q 865 425 885 449 q 844 357 844 401 l 710 379 q 769 508 710 460 q 931 556 829 556 q 1080 516 1026 556 q 1133 407 1133 476 q 1104 329 1133 363 q 1025 283 1075 296 q 1150 154 1150 260 q 1090 33 1150 78 q 929 -12 1031 -12 z "},"⅔":{"ha":1319,"x_min":36,"x_max":1278,"o":"m 889 1010 l 1036 1010 l 422 -24 l 272 -24 l 889 1010 m 1057 -12 q 892 35 954 -12 q 831 164 831 83 l 969 179 q 994 117 969 139 q 1058 96 1018 96 q 1133 163 1133 96 q 1110 210 1133 194 q 1036 225 1088 225 l 1006 225 l 1006 325 l 1038 325 q 1119 390 1119 325 q 1050 449 1119 449 q 992 425 1013 449 q 972 357 972 401 l 838 379 q 897 508 838 460 q 1058 556 957 556 q 1208 516 1154 556 q 1261 407 1261 476 q 1232 329 1261 363 q 1153 283 1203 296 q 1278 154 1278 260 q 1218 33 1278 78 q 1057 -12 1158 -12 z "},"⅛":{"ha":1208,"x_min":33,"x_max":1174,"o":"m 761 1010 l 908 1010 l 294 -24 l 144 -24 l 761 1010 m 1068 300 q 1148 243 1122 278 q 1174 156 1174 208 q 1109 34 1174 81 q 939 -12 1044 -12 q 772 31 836 -12 q 707 143 707 74 q 731 226 707 194 q 807 274 756 258 q 725 401 725 315 q 783 513 725 469 q 936 556 842 556 q 1091 517 1033 556 q 1149 414 1149 479 q 1068 300 1149 333 m 936 460 q 879 444 900 460 q 858 403 858 429 q 879 363 858 379 q 942 336 900 347 l 971 329 q 1015 397 1015 353 q 994 443 1015 426 q 936 460 974 460 m 942 90 q 1008 108 983 90 q 1033 157 1033 126 q 951 228 1033 204 l 901 242 q 860 210 872 228 q 847 163 847 192 q 874 110 847 131 q 942 90 900 90 z "},"⅜":{"ha":1347,"x_min":31,"x_max":1314,"o":"m 900 1010 l 1047 1010 l 433 -24 l 283 -24 l 900 1010 m 1208 300 q 1288 243 1263 278 q 1314 156 1314 208 q 1249 34 1314 81 q 1079 -12 1185 -12 q 912 31 976 -12 q 847 143 847 74 q 872 226 847 194 q 947 274 896 258 q 865 401 865 315 q 924 513 865 469 q 1076 556 982 556 q 1231 517 1174 556 q 1289 414 1289 479 q 1208 300 1289 333 m 1076 460 q 1019 444 1040 460 q 999 403 999 429 q 1019 363 999 379 q 1082 336 1040 347 l 1111 329 q 1156 397 1156 353 q 1135 443 1156 426 q 1076 460 1114 460 m 1082 90 q 1149 108 1124 90 q 1174 157 1174 126 q 1092 228 1174 204 l 1042 242 q 1000 210 1013 228 q 988 163 988 192 q 1014 110 988 131 q 1082 90 1040 90 z "},"⅝":{"ha":1344,"x_min":40,"x_max":1310,"o":"m 896 1010 l 1043 1010 l 429 -24 l 279 -24 l 896 1010 m 1204 300 q 1284 243 1258 278 q 1310 156 1310 208 q 1245 34 1310 81 q 1075 -12 1181 -12 q 908 31 972 -12 q 843 143 843 74 q 867 226 843 194 q 943 274 892 258 q 861 401 861 315 q 919 513 861 469 q 1072 556 978 556 q 1227 517 1169 556 q 1285 414 1285 479 q 1204 300 1285 333 m 1072 460 q 1015 444 1036 460 q 994 403 994 429 q 1015 363 994 379 q 1078 336 1036 347 l 1107 329 q 1151 397 1151 353 q 1131 443 1151 426 q 1072 460 1110 460 m 1078 90 q 1144 108 1119 90 q 1169 157 1169 126 q 1088 228 1169 204 l 1038 242 q 996 210 1008 228 q 983 163 983 192 q 1010 110 983 131 q 1078 90 1036 90 z "},"⅞":{"ha":1218,"x_min":25,"x_max":1183,"o":"m 769 1010 l 917 1010 l 303 -24 l 153 -24 l 769 1010 m 1078 300 q 1158 243 1132 278 q 1183 156 1183 208 q 1119 34 1183 81 q 949 -12 1054 -12 q 781 31 846 -12 q 717 143 717 74 q 741 226 717 194 q 817 274 765 258 q 735 401 735 315 q 793 513 735 469 q 946 556 851 556 q 1101 517 1043 556 q 1158 414 1158 479 q 1078 300 1158 333 m 946 460 q 889 444 910 460 q 868 403 868 429 q 889 363 868 379 q 951 336 910 347 l 981 329 q 1025 397 1025 353 q 1004 443 1025 426 q 946 460 983 460 m 951 90 q 1018 108 993 90 q 1043 157 1043 126 q 961 228 1043 204 l 911 242 q 869 210 882 228 q 857 163 857 192 q 883 110 857 131 q 951 90 910 90 z "},"%":{"ha":1215,"x_min":13,"x_max":1201,"o":"m 860 1004 l 1004 1004 l 356 -19 l 210 -19 l 860 1004 m 289 474 q 88 546 164 474 q 14 739 13 618 q 88 930 13 858 q 288 1001 163 1001 q 488 929 413 1001 q 561 738 563 857 q 488 546 563 618 q 289 474 413 474 m 289 599 q 370 633 340 599 q 400 738 400 668 q 370 842 400 807 q 288 876 340 876 q 206 842 236 876 q 175 739 175 807 q 206 633 175 668 q 289 599 236 599 m 928 -18 q 727 54 803 -18 q 653 247 651 126 q 726 438 651 367 q 926 510 801 510 q 1126 438 1051 510 q 1200 246 1201 365 q 1126 54 1201 126 q 928 -18 1051 -18 m 928 107 q 1009 142 979 107 q 1039 246 1039 176 q 1009 349 1039 315 q 926 383 979 383 q 844 349 874 383 q 814 247 814 315 q 844 142 814 176 q 928 107 875 107 z "},"‰":{"ha":1800,"x_min":13,"x_max":1786,"o":"m 860 1004 l 1004 1004 l 356 -19 l 210 -19 l 860 1004 m 289 474 q 88 546 164 474 q 14 739 13 618 q 88 930 13 858 q 288 1001 163 1001 q 488 929 413 1001 q 561 738 563 857 q 488 546 563 618 q 289 474 413 474 m 289 599 q 370 633 340 599 q 400 738 400 668 q 370 842 400 807 q 288 876 340 876 q 206 842 236 876 q 175 739 175 807 q 206 633 175 668 q 289 599 236 599 m 928 -18 q 727 54 803 -18 q 653 247 651 126 q 726 438 651 367 q 926 510 801 510 q 1126 438 1051 510 q 1200 246 1201 365 q 1126 54 1201 126 q 928 -18 1051 -18 m 1513 -18 q 1312 54 1388 -18 q 1238 247 1236 126 q 1311 438 1236 367 q 1511 510 1386 510 q 1711 438 1636 510 q 1785 246 1786 365 q 1711 54 1786 126 q 1513 -18 1636 -18 m 928 107 q 1009 142 979 107 q 1039 246 1039 176 q 1009 349 1039 315 q 926 383 979 383 q 844 349 874 383 q 814 247 814 315 q 844 142 814 176 q 928 107 875 107 m 1513 107 q 1594 142 1564 107 q 1624 246 1624 176 q 1594 349 1624 315 q 1511 383 1564 383 q 1428 349 1458 383 q 1399 247 1399 315 q 1429 142 1399 176 q 1513 107 1460 107 z "},"μ":{"ha":850,"x_min":93,"x_max":756,"o":"m 756 694 l 756 0 l 544 0 l 544 126 q 461 22 519 61 q 328 -17 403 -17 q 293 -15 304 -17 l 293 -271 l 93 -271 l 93 694 l 317 694 l 317 283 q 417 153 317 153 q 501 192 469 153 q 533 297 533 232 l 533 694 l 756 694 z "},"#":{"ha":907,"x_min":14,"x_max":893,"o":"m 715 569 l 683 396 l 846 396 l 846 244 l 656 244 l 610 0 l 440 0 l 486 244 l 326 244 l 281 0 l 111 0 l 157 244 l 14 244 l 14 396 l 185 396 l 217 569 l 69 569 l 69 721 l 246 721 l 290 961 l 460 961 l 415 721 l 575 721 l 619 961 l 789 961 l 744 721 l 893 721 l 893 569 l 715 569 m 546 569 l 386 569 l 354 396 l 514 396 l 546 569 z "},"№":{"ha":1768,"x_min":103,"x_max":1717,"o":"m 103 986 l 363 986 l 679 424 q 739 296 724 340 l 742 296 l 740 422 l 740 986 l 956 986 l 956 0 l 706 0 l 378 568 q 319 689 342 631 l 317 689 l 318 558 l 318 0 l 103 0 l 103 986 m 1378 243 q 1199 285 1276 243 q 1081 403 1122 326 q 1039 581 1039 479 q 1081 758 1039 682 q 1199 876 1122 835 q 1378 918 1276 918 q 1556 876 1479 918 q 1675 758 1633 835 q 1717 581 1717 682 q 1675 403 1717 479 q 1556 285 1633 326 q 1378 243 1479 243 m 1378 401 q 1474 449 1439 401 q 1508 581 1508 497 q 1474 710 1508 663 q 1378 758 1439 758 q 1282 710 1317 758 q 1247 581 1247 663 q 1283 450 1247 499 q 1378 401 1318 401 m 1039 146 l 1717 146 l 1717 0 l 1039 0 l 1039 146 z "},"Δ":{"ha":931,"x_min":13,"x_max":917,"o":"m 344 986 l 589 986 l 917 0 l 13 0 l 344 986 m 275 165 l 647 165 l 465 761 l 275 165 z "},"Ω":{"ha":947,"x_min":44,"x_max":904,"o":"m 542 0 l 518 375 q 641 449 599 390 q 683 604 683 508 q 626 767 683 707 q 474 828 569 828 q 321 767 378 828 q 264 604 264 707 q 306 449 264 508 q 431 375 349 390 l 406 0 l 58 0 l 58 181 l 251 181 l 258 258 q 100 387 156 296 q 44 608 44 478 q 98 817 44 726 q 249 957 151 907 q 474 1007 346 1007 q 699 957 601 1007 q 850 817 796 907 q 904 608 904 726 q 849 387 904 478 q 690 258 793 296 l 696 181 l 889 181 l 889 0 l 542 0 z "},"π":{"ha":889,"x_min":33,"x_max":856,"o":"m 854 8 q 744 -8 793 -8 q 579 44 631 -8 q 528 207 528 97 l 528 546 l 363 546 l 363 0 l 144 0 l 144 546 l 33 546 l 33 694 l 856 694 l 856 546 l 746 546 l 746 219 q 813 151 746 151 q 854 156 829 151 l 854 8 z "},"+":{"ha":781,"x_min":61,"x_max":719,"o":"m 719 385 l 469 385 l 469 121 l 310 121 l 310 385 l 61 385 l 61 529 l 310 529 l 310 778 l 469 778 l 469 529 l 719 529 l 719 385 z "},"−":{"ha":781,"x_min":61,"x_max":719,"o":"m 61 531 l 719 531 l 719 382 l 61 382 l 61 531 z "},"±":{"ha":861,"x_min":99,"x_max":763,"o":"m 763 540 l 763 396 l 508 396 l 508 194 l 350 194 l 350 396 l 99 396 l 99 540 l 350 540 l 350 754 l 508 754 l 508 540 l 763 540 m 99 147 l 763 147 l 763 0 l 99 0 l 99 147 z "},"×":{"ha":861,"x_min":74,"x_max":789,"o":"m 543 454 l 788 210 l 676 96 l 431 343 l 185 97 l 74 208 l 319 454 l 74 700 l 185 811 l 431 567 l 675 811 l 789 700 l 543 454 z "},"÷":{"ha":781,"x_min":61,"x_max":719,"o":"m 386 606 q 318 632 344 606 q 292 700 292 658 q 318 768 292 742 q 386 794 344 794 q 455 769 428 794 q 482 700 482 743 q 455 632 482 658 q 386 606 428 606 m 61 528 l 719 528 l 719 382 l 61 382 l 61 528 m 386 111 q 319 138 346 111 q 292 206 292 164 q 318 275 292 249 q 386 301 344 301 q 455 276 428 301 q 482 206 482 250 q 455 138 482 164 q 386 111 428 111 z "},"=":{"ha":781,"x_min":61,"x_max":719,"o":"m 61 664 l 719 664 l 719 517 l 61 517 l 61 664 m 61 397 l 719 397 l 719 250 l 61 250 l 61 397 z "},"<":{"ha":861,"x_min":75,"x_max":732,"o":"m 75 376 l 75 529 l 732 804 l 732 639 l 263 454 l 732 269 l 732 101 l 75 376 z "},">":{"ha":861,"x_min":129,"x_max":786,"o":"m 129 269 l 599 454 l 129 639 l 129 804 l 786 529 l 786 376 l 129 101 l 129 269 z "},"°":{"ha":578,"x_min":24,"x_max":556,"o":"m 289 478 q 153 510 214 478 q 58 601 93 542 q 24 738 24 660 q 58 873 24 814 q 153 964 93 932 q 289 996 214 996 q 425 964 364 996 q 521 873 486 932 q 556 738 556 814 q 521 601 556 660 q 425 510 486 542 q 289 478 364 478 m 289 599 q 386 637 349 599 q 424 738 424 675 q 385 838 424 800 q 289 876 347 876 q 193 838 231 876 q 156 738 156 800 q 193 637 156 675 q 289 599 231 599 z "},"≈":{"ha":861,"x_min":99,"x_max":763,"o":"m 593 479 q 514 492 554 479 q 418 526 474 504 q 333 557 367 547 q 271 567 300 567 q 177 549 225 567 q 99 501 129 531 l 99 657 q 176 701 126 683 q 271 718 225 718 q 358 706 317 718 q 454 669 399 693 q 535 640 507 649 q 593 631 563 631 q 687 649 640 631 q 763 694 733 667 l 763 539 q 688 496 736 513 q 593 479 640 479 m 593 210 q 514 222 554 210 q 418 257 474 235 q 333 288 367 278 q 271 297 300 297 q 176 279 224 297 q 99 233 129 261 l 99 389 q 175 432 126 415 q 271 449 224 449 q 358 436 317 449 q 454 400 399 424 q 535 370 507 379 q 593 361 563 361 q 686 379 639 361 q 763 426 733 397 l 763 271 q 688 227 736 244 q 593 210 640 210 z "},"≥":{"ha":861,"x_min":117,"x_max":774,"o":"m 117 356 l 586 539 l 117 724 l 117 890 l 774 614 l 774 463 l 117 186 l 117 356 m 772 0 l 118 0 l 118 143 l 772 143 l 772 0 z "},"∞":{"ha":861,"x_min":38,"x_max":824,"o":"m 617 682 q 766 621 708 682 q 824 457 824 560 q 797 339 824 390 q 724 258 771 288 q 618 229 676 229 q 431 340 500 229 q 353 258 396 286 q 244 229 310 229 q 95 290 153 229 q 38 454 38 351 q 64 572 38 521 q 138 653 90 624 q 243 682 185 682 q 431 571 361 682 q 508 653 465 625 q 617 682 551 682 m 260 361 q 317 383 293 361 q 365 451 340 406 q 317 524 343 497 q 258 550 292 550 q 201 526 222 550 q 181 456 181 501 q 202 385 181 410 q 260 361 224 361 m 603 361 q 660 385 639 361 q 681 456 681 410 q 659 526 681 501 q 601 550 638 550 q 544 528 568 550 q 496 460 521 506 q 544 388 518 414 q 603 361 569 361 z "},"≤":{"ha":861,"x_min":88,"x_max":744,"o":"m 88 463 l 88 614 l 744 890 l 744 724 l 275 539 l 744 356 l 744 186 l 88 463 m 743 143 l 743 0 l 89 0 l 89 143 l 743 143 z "},"¬":{"ha":861,"x_min":88,"x_max":746,"o":"m 746 536 l 746 169 l 596 169 l 596 392 l 88 392 l 88 536 l 746 536 z "},"≠":{"ha":861,"x_min":61,"x_max":719,"o":"m 499 517 l 451 397 l 719 397 l 719 250 l 394 250 l 331 88 l 217 88 l 281 250 l 61 250 l 61 397 l 338 397 l 385 517 l 61 517 l 61 664 l 442 664 l 503 821 l 617 821 l 556 664 l 719 664 l 719 517 l 499 517 z "},"∫":{"ha":861,"x_min":142,"x_max":724,"o":"m 233 -160 q 142 -153 197 -160 l 142 3 q 171 0 154 1 q 208 -1 188 -1 q 301 32 274 -1 q 328 142 328 65 l 328 708 q 403 918 328 843 q 625 993 479 993 q 724 986 675 993 l 724 828 q 656 833 694 833 q 565 799 592 833 q 538 690 538 764 l 538 121 q 460 -87 538 -14 q 233 -160 382 -160 z "},"∂":{"ha":893,"x_min":50,"x_max":829,"o":"m 385 1001 q 715 866 601 1001 q 829 469 829 731 q 723 103 829 231 q 418 -24 617 -24 q 225 17 308 -24 q 96 133 142 57 q 50 314 50 210 q 90 484 50 410 q 204 599 131 558 q 376 639 278 639 q 611 539 526 639 q 375 817 601 817 q 204 771 292 817 l 122 932 q 246 983 176 964 q 385 1001 315 1001 m 432 138 q 561 201 514 138 q 611 374 608 264 q 435 482 546 482 q 319 436 363 482 q 275 315 275 390 q 319 187 275 236 q 432 138 363 138 z "},"∏":{"ha":936,"x_min":100,"x_max":836,"o":"m 628 797 l 310 797 l 310 -122 l 100 -122 l 100 979 l 836 979 l 836 -122 l 628 -122 l 628 797 z "},"√":{"ha":861,"x_min":42,"x_max":819,"o":"m 269 504 l 379 108 l 626 1019 l 819 1019 l 482 -131 l 279 -131 l 131 338 l 42 338 l 42 504 l 269 504 z "},"∑":{"ha":819,"x_min":69,"x_max":757,"o":"m 69 53 l 411 454 l 88 806 l 88 979 l 740 979 l 740 810 l 326 810 l 649 454 l 301 47 l 757 47 l 757 -122 l 69 -122 l 69 53 z "},"◊":{"ha":818,"x_min":47,"x_max":771,"o":"m 319 -24 l 47 493 l 319 1010 l 496 1010 l 771 493 l 496 -24 l 319 -24 m 232 493 l 407 146 l 588 493 l 407 840 l 232 493 z "},"̈":{"ha":0,"x_min":-565,"x_max":-67,"o":"m -565 981 l -372 981 l -372 796 l -565 796 l -565 981 m -260 981 l -67 981 l -67 796 l -260 796 l -260 981 z "},"̇":{"ha":0,"x_min":-300,"x_max":-68,"o":"m -300 997 l -68 997 l -68 794 l -300 794 l -300 997 z "},"̀":{"ha":0,"x_min":-408,"x_max":-46,"o":"m -215 788 l -408 1004 l -199 1004 l -46 788 l -215 788 z "},"́":{"ha":0,"x_min":-404,"x_max":-42,"o":"m -251 1004 l -42 1004 l -233 788 l -404 788 l -251 1004 z "},"̋":{"ha":0,"x_min":-637,"x_max":-117,"o":"m -515 1004 l -356 1004 l -483 788 l -637 788 l -515 1004 m -276 1004 l -117 1004 l -244 788 l -399 788 l -276 1004 z "},"̂":{"ha":0,"x_min":-575,"x_max":-58,"o":"m -219 788 l -317 933 l -412 788 l -575 788 l -428 1004 l -206 1004 l -58 788 l -219 788 z "},"̌":{"ha":0,"x_min":-575,"x_max":-58,"o":"m -412 997 l -317 851 l -219 997 l -58 997 l -206 781 l -428 781 l -575 997 l -412 997 z "},"̆":{"ha":0,"x_min":-553,"x_max":-71,"o":"m -412 1004 q -384 921 -410 950 q -311 892 -358 892 q -239 921 -264 892 q -211 1004 -214 950 l -71 1004 q -140 835 -76 890 q -311 781 -204 781 q -483 835 -418 781 q -553 1004 -547 890 l -412 1004 z "},"̊":{"ha":0,"x_min":-407,"x_max":-53,"o":"m -231 761 q -358 806 -310 761 q -407 924 -407 850 q -358 1042 -407 997 q -231 1088 -310 1088 q -101 1042 -150 1088 q -53 924 -53 997 q -101 806 -53 850 q -231 761 -150 761 m -231 850 q -178 871 -199 850 q -158 924 -158 892 q -178 976 -158 956 q -231 997 -199 997 q -283 976 -262 997 q -303 924 -303 956 q -283 871 -303 892 q -231 850 -262 850 z "},"̃":{"ha":0,"x_min":-635,"x_max":-69,"o":"m -247 789 q -315 803 -287 789 q -379 844 -343 817 q -422 874 -404 864 q -458 883 -439 883 q -499 865 -483 883 q -528 803 -515 846 l -635 840 q -574 970 -619 924 q -458 1017 -529 1017 q -391 1003 -419 1017 q -328 963 -362 989 q -283 933 -300 942 q -246 924 -267 924 q -205 942 -221 924 q -178 1003 -189 960 l -69 965 q -130 835 -85 882 q -247 789 -175 789 z "},"̄":{"ha":0,"x_min":-540,"x_max":-64,"o":"m -540 956 l -64 956 l -64 822 l -540 822 l -540 956 z "},"̒":{"ha":0,"x_min":-253,"x_max":-69,"o":"m -92 994 q -145 972 -131 985 q -160 929 -160 958 l -69 929 l -69 788 l -253 788 l -253 911 q -129 1067 -253 1042 l -92 994 z "},"̦":{"ha":0,"x_min":-253,"x_max":-69,"o":"m -231 -262 q -178 -239 -193 -253 q -162 -197 -162 -225 l -253 -197 l -253 -56 l -69 -56 l -69 -179 q -193 -333 -69 -308 l -231 -262 z "},"̧":{"ha":0,"x_min":-435,"x_max":-76,"o":"m -233 10 l -278 -64 q -203 -43 -250 -43 q -110 -74 -144 -43 q -76 -164 -76 -106 q -126 -262 -76 -228 q -258 -296 -175 -296 q -370 -272 -325 -296 q -435 -206 -415 -249 l -318 -176 q -264 -210 -303 -210 q -224 -196 -239 -210 q -208 -158 -208 -182 q -224 -122 -208 -136 q -262 -108 -239 -108 q -308 -129 -292 -108 l -392 -110 l -339 10 l -233 10 z "},"̨":{"ha":0,"x_min":-439,"x_max":-86,"o":"m -86 -174 q -160 -256 -117 -229 q -269 -282 -204 -282 q -394 -248 -350 -282 q -439 -153 -439 -214 q -311 0 -439 -54 l -153 0 q -271 -56 -233 -19 q -308 -132 -308 -92 q -295 -169 -308 -156 q -257 -182 -282 -182 q -216 -168 -235 -182 q -179 -125 -197 -154 l -86 -174 z "}," ":{"ha":1389,"x_min":0,"x_max":0,"o":""}," ":{"ha":694,"x_min":0,"x_max":0,"o":""}," ":{"ha":347,"x_min":0,"x_max":0,"o":""}," ":{"ha":104,"x_min":0,"x_max":0,"o":""}," ":{"ha":343,"x_min":0,"x_max":0,"o":""}," ":{"ha":188,"x_min":0,"x_max":0,"o":""}," ":{"ha":463,"x_min":0,"x_max":0,"o":""},"⓿":{"ha":1113,"x_min":40,"x_max":1072,"o":"m 557 -24 q 297 40 415 -24 q 110 222 179 104 q 40 493 40 339 q 110 765 40 647 q 297 946 179 882 q 557 1010 415 1010 q 815 946 697 1010 q 1003 765 933 882 q 1072 493 1072 647 q 1003 222 1072 339 q 815 40 933 104 q 557 -24 697 -24 m 557 210 q 740 285 675 210 q 806 493 806 360 q 740 703 806 628 q 557 778 675 778 q 374 702 439 778 q 308 493 308 626 q 374 285 308 360 q 557 210 439 210 m 557 321 q 480 365 506 321 q 454 493 454 408 q 480 622 454 578 q 557 667 506 667 q 634 622 608 667 q 660 493 660 578 q 634 365 660 408 q 557 321 608 321 z "},"❶":{"ha":1113,"x_min":40,"x_max":1072,"o":"m 557 -24 q 297 40 415 -24 q 110 222 179 104 q 40 493 40 339 q 110 765 40 647 q 297 946 179 882 q 557 1010 415 1010 q 815 946 697 1010 q 1003 765 933 882 q 1072 493 1072 647 q 1003 222 1072 339 q 815 40 933 104 q 557 -24 697 -24 m 644 221 l 644 765 l 531 765 q 485 703 515 722 q 406 683 456 683 l 388 683 l 388 556 l 415 556 q 467 560 442 556 q 506 574 492 565 l 506 221 l 644 221 z "},"❷":{"ha":1113,"x_min":40,"x_max":1072,"o":"m 557 -24 q 297 40 415 -24 q 110 222 179 104 q 40 493 40 339 q 110 765 40 647 q 297 946 179 882 q 557 1010 415 1010 q 815 946 697 1010 q 1003 765 933 882 q 1072 493 1072 647 q 1003 222 1072 339 q 815 40 933 104 q 557 -24 697 -24 m 772 235 l 772 350 l 538 350 q 703 461 638 397 q 769 618 769 525 q 714 746 769 701 q 558 790 658 790 q 400 744 458 790 q 342 619 342 697 q 346 579 342 603 l 490 565 q 485 610 485 599 q 503 660 485 642 q 551 678 521 678 q 601 660 583 678 q 618 608 618 642 q 549 478 618 538 q 342 340 481 418 l 342 235 l 772 235 z "},"❸":{"ha":1113,"x_min":40,"x_max":1072,"o":"m 557 -24 q 297 40 415 -24 q 110 222 179 104 q 40 493 40 339 q 110 765 40 647 q 297 946 179 882 q 557 1010 415 1010 q 815 946 697 1010 q 1003 765 933 882 q 1072 493 1072 647 q 1003 222 1072 339 q 815 40 933 104 q 557 -24 697 -24 m 560 210 q 722 255 661 210 q 782 376 782 300 q 751 462 782 431 q 657 504 721 493 q 738 550 708 517 q 767 628 767 583 q 713 738 767 699 q 561 778 658 778 q 399 729 460 778 q 339 600 339 681 l 478 579 q 497 645 478 622 q 553 668 517 668 q 603 653 585 668 q 621 611 621 639 q 540 547 621 547 l 514 547 l 514 447 l 539 447 q 612 432 589 447 q 635 385 635 417 q 616 336 635 353 q 561 319 597 319 q 499 341 522 319 q 475 401 475 363 l 332 386 q 395 257 333 304 q 560 210 457 210 z "},"❹":{"ha":1113,"x_min":40,"x_max":1072,"o":"m 557 -24 q 297 40 415 -24 q 110 222 179 104 q 40 493 40 339 q 110 765 40 647 q 297 946 179 882 q 557 1010 415 1010 q 815 946 697 1010 q 1003 765 933 882 q 1072 493 1072 647 q 1003 222 1072 339 q 815 40 933 104 q 557 -24 697 -24 m 703 226 l 703 340 l 788 340 l 788 444 l 703 444 l 703 769 l 544 769 l 306 436 l 306 340 l 567 340 l 567 226 l 703 226 m 567 640 l 567 444 l 433 444 l 567 640 z "},"❺":{"ha":1113,"x_min":40,"x_max":1072,"o":"m 557 -24 q 297 40 415 -24 q 110 222 179 104 q 40 493 40 339 q 110 765 40 647 q 297 946 179 882 q 557 1010 415 1010 q 815 946 697 1010 q 1003 765 933 882 q 1072 493 1072 647 q 1003 222 1072 339 q 815 40 933 104 q 557 -24 697 -24 m 554 215 q 716 268 657 215 q 775 413 775 321 q 727 552 775 501 q 594 603 679 603 q 475 558 513 603 l 490 657 l 746 657 l 746 771 l 386 771 l 350 454 l 478 443 q 506 485 488 471 q 556 499 525 499 q 614 474 593 499 q 635 407 635 449 q 614 349 635 369 q 556 328 593 328 q 504 345 524 328 q 478 392 485 363 l 338 368 q 408 256 350 297 q 554 215 467 215 z "},"❻":{"ha":1113,"x_min":40,"x_max":1072,"o":"m 557 -24 q 297 40 415 -24 q 110 222 179 104 q 40 493 40 339 q 110 765 40 647 q 297 946 179 882 q 557 1010 415 1010 q 815 946 697 1010 q 1003 765 933 882 q 1072 493 1072 647 q 1003 222 1072 339 q 815 40 933 104 q 557 -24 697 -24 m 560 210 q 710 264 651 210 q 769 407 769 318 q 722 540 769 492 q 594 589 675 589 q 461 526 501 589 q 563 668 469 668 q 628 613 615 668 l 764 636 q 699 742 750 706 q 564 778 649 778 q 390 699 454 778 q 326 481 326 621 q 388 283 326 356 q 560 210 449 210 m 557 318 q 464 428 482 318 q 554 483 494 483 q 612 460 590 483 q 633 401 633 438 q 613 340 633 361 q 557 318 592 318 z "},"❼":{"ha":1113,"x_min":40,"x_max":1072,"o":"m 557 -24 q 297 40 415 -24 q 110 222 179 104 q 40 493 40 339 q 110 765 40 647 q 297 946 179 882 q 557 1010 415 1010 q 815 946 697 1010 q 1003 765 933 882 q 1072 493 1072 647 q 1003 222 1072 339 q 815 40 933 104 q 557 -24 697 -24 m 581 221 q 763 657 581 483 l 763 765 l 353 765 l 353 644 l 617 644 q 476 443 528 557 q 424 221 424 329 l 581 221 z "},"❽":{"ha":1113,"x_min":40,"x_max":1072,"o":"m 557 -24 q 297 40 415 -24 q 110 222 179 104 q 40 493 40 339 q 110 765 40 647 q 297 946 179 882 q 557 1010 415 1010 q 815 946 697 1010 q 1003 765 933 882 q 1072 493 1072 647 q 1003 222 1072 339 q 815 40 933 104 q 557 -24 697 -24 m 556 210 q 727 256 663 210 q 792 376 792 301 q 765 466 792 431 q 685 522 739 501 q 767 636 767 557 q 708 740 767 701 q 553 778 650 778 q 398 735 457 778 q 339 624 339 693 q 360 548 339 579 q 422 496 381 517 q 345 449 369 481 q 321 365 321 417 q 386 253 321 296 q 556 210 451 210 m 560 558 q 497 585 518 569 q 476 624 476 600 q 496 665 476 650 q 551 679 515 679 q 610 663 589 679 q 631 618 631 647 q 588 553 631 575 l 560 558 m 558 314 q 492 334 518 314 q 465 385 465 354 q 477 431 465 414 q 518 463 489 449 l 565 449 q 649 379 649 425 q 624 332 649 350 q 558 314 599 314 z "},"❾":{"ha":1113,"x_min":40,"x_max":1072,"o":"m 557 -24 q 297 40 415 -24 q 110 222 179 104 q 40 493 40 339 q 110 765 40 647 q 297 946 179 882 q 557 1010 415 1010 q 815 946 697 1010 q 1003 765 933 882 q 1072 493 1072 647 q 1003 222 1072 339 q 815 40 933 104 q 557 -24 697 -24 m 553 210 q 726 288 669 210 q 783 504 783 365 q 726 707 783 636 q 556 778 668 778 q 398 726 457 778 q 339 590 339 674 q 391 463 339 510 q 529 415 443 415 q 646 450 599 415 q 619 351 640 383 q 557 319 597 319 q 482 382 496 319 l 344 354 q 413 247 358 285 q 553 210 467 210 m 556 519 q 498 540 521 519 q 475 593 475 561 q 497 650 475 629 q 557 671 519 671 q 619 644 599 671 q 646 560 640 618 q 556 519 608 519 z "},"⓪":{"ha":1113,"x_min":40,"x_max":1072,"o":"m 557 208 q 374 283 439 208 q 310 492 310 358 q 375 701 310 625 q 557 776 440 776 q 740 701 675 776 q 804 492 804 626 q 740 283 804 358 q 557 208 675 208 m 557 318 q 635 363 608 318 q 661 492 661 407 q 635 622 661 578 q 557 667 608 667 q 479 622 506 667 q 453 492 453 576 q 479 363 453 407 q 557 318 506 318 m 557 -24 q 297 40 415 -24 q 110 222 179 104 q 40 493 40 339 q 110 766 40 649 q 297 947 179 883 q 557 1010 415 1010 q 815 947 697 1010 q 1003 766 933 883 q 1072 493 1072 649 q 1003 222 1072 339 q 815 40 933 104 q 557 -24 697 -24 m 557 58 q 768 112 672 58 q 921 264 864 165 q 978 493 978 363 q 921 722 978 624 q 768 874 864 821 q 557 928 672 928 q 345 874 442 928 q 192 722 249 821 q 135 493 135 624 q 192 264 135 363 q 345 112 249 165 q 557 58 442 58 z "},"①":{"ha":1113,"x_min":40,"x_max":1072,"o":"m 507 576 q 417 558 482 558 l 389 558 l 389 682 l 408 682 q 487 701 457 682 q 532 764 517 721 l 642 764 l 642 221 l 507 221 l 507 576 m 557 -24 q 297 40 415 -24 q 110 222 179 104 q 40 493 40 339 q 110 766 40 649 q 297 947 179 883 q 557 1010 415 1010 q 815 947 697 1010 q 1003 766 933 883 q 1072 493 1072 649 q 1003 222 1072 339 q 815 40 933 104 q 557 -24 697 -24 m 557 58 q 768 112 672 58 q 921 264 864 165 q 978 493 978 363 q 921 722 978 624 q 768 874 864 821 q 557 928 672 928 q 345 874 442 928 q 192 722 249 821 q 135 493 135 624 q 192 264 135 363 q 345 112 249 165 q 557 58 442 58 z "},"②":{"ha":1113,"x_min":40,"x_max":1072,"o":"m 343 338 q 550 476 481 417 q 619 608 619 536 q 602 661 619 643 q 551 679 585 679 q 501 660 519 679 q 482 610 482 642 q 489 565 482 596 l 347 579 q 343 619 343 603 q 401 744 343 697 q 558 790 458 790 q 711 745 657 790 q 765 618 765 700 q 700 460 765 525 q 533 347 635 396 l 769 347 l 769 235 l 343 235 l 343 338 m 557 -24 q 297 40 415 -24 q 110 222 179 104 q 40 493 40 339 q 110 766 40 649 q 297 947 179 883 q 557 1010 415 1010 q 815 947 697 1010 q 1003 766 933 883 q 1072 493 1072 649 q 1003 222 1072 339 q 815 40 933 104 q 557 -24 697 -24 m 557 58 q 768 112 672 58 q 921 264 864 165 q 978 493 978 363 q 921 722 978 624 q 768 874 864 821 q 557 928 672 928 q 345 874 442 928 q 192 722 249 821 q 135 493 135 624 q 192 264 135 363 q 345 112 249 165 q 557 58 442 58 z "},"③":{"ha":1113,"x_min":40,"x_max":1072,"o":"m 560 208 q 395 256 457 208 q 333 385 333 304 l 472 400 q 497 338 472 360 q 561 317 521 317 q 636 383 636 317 q 613 431 636 415 q 539 446 590 446 l 508 446 l 508 546 l 540 546 q 622 611 622 546 q 553 669 622 669 q 495 646 515 669 q 475 578 475 622 l 340 600 q 400 728 340 681 q 561 776 460 776 q 710 737 657 776 q 764 628 764 697 q 735 550 764 583 q 656 504 706 517 q 781 375 781 481 q 721 253 781 299 q 560 208 661 208 m 557 -24 q 297 40 415 -24 q 110 222 179 104 q 40 493 40 339 q 110 766 40 649 q 297 947 179 883 q 557 1010 415 1010 q 815 947 697 1010 q 1003 766 933 883 q 1072 493 1072 649 q 1003 222 1072 339 q 815 40 933 104 q 557 -24 697 -24 m 557 58 q 768 112 672 58 q 921 264 864 165 q 978 493 978 363 q 921 722 978 624 q 768 874 864 821 q 557 928 672 928 q 345 874 442 928 q 192 722 249 821 q 135 493 135 624 q 192 264 135 363 q 345 112 249 165 q 557 58 442 58 z "},"④":{"ha":1113,"x_min":40,"x_max":1072,"o":"m 692 340 l 692 225 l 560 225 l 560 340 l 299 340 l 299 433 l 538 768 l 692 768 l 692 442 l 778 442 l 778 340 l 692 340 m 422 442 l 560 442 l 560 642 l 422 442 m 557 -24 q 297 40 415 -24 q 110 222 179 104 q 40 493 40 339 q 110 766 40 649 q 297 947 179 883 q 557 1010 415 1010 q 815 947 697 1010 q 1003 766 933 883 q 1072 493 1072 649 q 1003 222 1072 339 q 815 40 933 104 q 557 -24 697 -24 m 557 58 q 768 112 672 58 q 921 264 864 165 q 978 493 978 363 q 921 722 978 624 q 768 874 864 821 q 557 928 672 928 q 345 874 442 928 q 192 722 249 821 q 135 493 135 624 q 192 264 135 363 q 345 112 249 165 q 557 58 442 58 z "},"⑤":{"ha":1113,"x_min":40,"x_max":1072,"o":"m 554 215 q 409 256 467 215 q 339 368 351 297 l 475 389 q 503 342 483 360 q 554 325 522 325 q 615 347 593 325 q 636 407 636 368 q 615 475 636 450 q 556 500 594 500 q 505 486 524 500 q 476 443 486 472 l 351 454 l 388 771 l 743 771 l 743 660 l 489 660 l 474 556 q 593 603 513 603 q 726 552 678 603 q 774 413 774 501 q 715 269 774 322 q 554 215 656 215 m 557 -24 q 297 40 415 -24 q 110 222 179 104 q 40 493 40 339 q 110 766 40 649 q 297 947 179 883 q 557 1010 415 1010 q 815 947 697 1010 q 1003 766 933 883 q 1072 493 1072 649 q 1003 222 1072 339 q 815 40 933 104 q 557 -24 697 -24 m 557 58 q 768 112 672 58 q 921 264 864 165 q 978 493 978 363 q 921 722 978 624 q 768 874 864 821 q 557 928 672 928 q 345 874 442 928 q 192 722 249 821 q 135 493 135 624 q 192 264 135 363 q 345 112 249 165 q 557 58 442 58 z "},"⑥":{"ha":1113,"x_min":40,"x_max":1072,"o":"m 593 588 q 721 539 674 588 q 768 406 768 490 q 710 263 768 317 q 558 208 651 208 q 388 281 447 208 q 328 479 328 354 q 391 698 328 619 q 564 776 454 776 q 763 636 735 776 l 629 613 q 563 669 617 669 q 458 526 468 669 q 593 588 501 588 m 556 315 q 614 337 593 315 q 635 400 635 358 q 613 461 635 438 q 554 485 592 485 q 463 425 493 485 q 496 341 471 367 q 556 315 521 315 m 557 -24 q 297 40 415 -24 q 110 222 179 104 q 40 493 40 339 q 110 766 40 649 q 297 947 179 883 q 557 1010 415 1010 q 815 947 697 1010 q 1003 766 933 883 q 1072 493 1072 649 q 1003 222 1072 339 q 815 40 933 104 q 557 -24 697 -24 m 557 58 q 768 112 672 58 q 921 264 864 165 q 978 493 978 363 q 921 722 978 624 q 768 874 864 821 q 557 928 672 928 q 345 874 442 928 q 192 722 249 821 q 135 493 135 624 q 192 264 135 363 q 345 112 249 165 q 557 58 442 58 z "},"⑦":{"ha":1113,"x_min":40,"x_max":1072,"o":"m 353 764 l 760 764 l 760 658 q 625 467 672 575 q 576 235 578 358 l 576 221 l 424 221 l 424 226 q 478 446 425 332 q 618 646 532 560 l 353 646 l 353 764 m 557 -24 q 297 40 415 -24 q 110 222 179 104 q 40 493 40 339 q 110 766 40 649 q 297 947 179 883 q 557 1010 415 1010 q 815 947 697 1010 q 1003 766 933 883 q 1072 493 1072 649 q 1003 222 1072 339 q 815 40 933 104 q 557 -24 697 -24 m 557 58 q 768 112 672 58 q 921 264 864 165 q 978 493 978 363 q 921 722 978 624 q 768 874 864 821 q 557 928 672 928 q 345 874 442 928 q 192 722 249 821 q 135 493 135 624 q 192 264 135 363 q 345 112 249 165 q 557 58 442 58 z "},"⑧":{"ha":1113,"x_min":40,"x_max":1072,"o":"m 685 521 q 765 464 739 499 q 790 376 790 429 q 726 255 790 301 q 556 208 661 208 q 388 251 453 208 q 324 364 324 294 q 348 447 324 415 q 424 494 372 479 q 342 622 342 536 q 400 733 342 690 q 553 776 458 776 q 708 738 650 776 q 765 635 765 700 q 685 521 765 554 m 553 681 q 496 665 517 681 q 475 624 475 650 q 496 584 475 600 q 558 557 517 568 l 588 550 q 632 618 632 574 q 611 664 632 647 q 553 681 590 681 m 558 311 q 625 329 600 311 q 650 378 650 347 q 568 449 650 425 l 518 463 q 476 431 489 449 q 464 383 464 413 q 490 331 464 351 q 558 311 517 311 m 557 -24 q 297 40 415 -24 q 110 222 179 104 q 40 493 40 339 q 110 766 40 649 q 297 947 179 883 q 557 1010 415 1010 q 815 947 697 1010 q 1003 766 933 883 q 1072 493 1072 649 q 1003 222 1072 339 q 815 40 933 104 q 557 -24 697 -24 m 557 58 q 768 112 672 58 q 921 264 864 165 q 978 493 978 363 q 921 722 978 624 q 768 874 864 821 q 557 928 672 928 q 345 874 442 928 q 192 722 249 821 q 135 493 135 624 q 192 264 135 363 q 345 112 249 165 q 557 58 442 58 z "},"⑨":{"ha":1113,"x_min":40,"x_max":1072,"o":"m 551 776 q 721 706 664 776 q 778 503 778 635 q 721 286 778 364 q 549 208 664 208 q 409 246 463 208 q 342 354 356 283 l 475 381 q 553 317 490 317 q 616 350 594 317 q 643 451 638 383 q 526 414 596 414 q 388 461 440 414 q 336 589 336 508 q 394 724 336 672 q 551 776 453 776 m 551 517 q 602 528 578 517 q 642 561 626 540 q 615 645 636 618 q 553 672 594 672 q 492 651 515 672 q 469 593 469 629 q 492 538 469 560 q 551 517 514 517 m 557 -24 q 297 40 415 -24 q 110 222 179 104 q 40 493 40 339 q 110 766 40 649 q 297 947 179 883 q 557 1010 415 1010 q 815 947 697 1010 q 1003 766 933 883 q 1072 493 1072 649 q 1003 222 1072 339 q 815 40 933 104 q 557 -24 697 -24 m 557 58 q 768 112 672 58 q 921 264 864 165 q 978 493 978 363 q 921 722 978 624 q 768 874 864 821 q 557 928 672 928 q 345 874 442 928 q 192 722 249 821 q 135 493 135 624 q 192 264 135 363 q 345 112 249 165 q 557 58 442 58 z "},"฿":{"ha":921,"x_min":103,"x_max":876,"o":"m 676 504 q 824 431 772 490 q 876 276 876 372 q 788 72 876 143 q 546 0 700 0 l 500 0 l 500 -149 l 419 -149 l 419 0 l 103 0 l 103 965 l 419 965 l 419 1092 l 500 1092 l 500 965 l 529 965 q 767 901 682 965 q 851 711 851 836 q 806 579 851 633 q 676 504 760 525 m 313 560 l 419 560 l 419 813 l 313 813 l 313 560 m 628 690 q 500 811 628 803 l 500 561 q 628 690 628 569 m 419 151 l 419 428 l 313 428 l 313 151 l 419 151 m 500 151 q 614 190 574 153 q 654 294 654 228 q 614 393 654 358 q 501 428 574 428 l 500 428 l 500 151 z "},"Ƀ":{"ha":921,"x_min":103,"x_max":876,"o":"m 876 276 q 801 87 876 163 q 582 1 725 11 l 582 -149 l 500 -149 l 500 0 l 400 0 l 400 -149 l 318 -149 l 318 0 l 103 0 l 103 965 l 318 965 l 318 1090 l 400 1090 l 400 965 l 500 965 l 500 1090 l 582 1090 l 582 964 q 785 890 718 954 q 851 721 851 826 q 807 584 851 642 q 676 504 763 526 q 824 431 772 490 q 876 276 876 371 m 619 690 q 583 776 619 744 q 468 808 546 808 l 321 808 l 321 564 l 468 564 q 619 690 619 564 m 488 156 q 605 194 565 156 q 644 294 644 232 q 606 389 644 354 q 492 424 567 424 l 321 424 l 321 156 l 488 156 z "},"₺":{"ha":814,"x_min":24,"x_max":811,"o":"m 811 310 q 694 90 781 179 q 432 0 607 0 l 122 0 l 122 361 l 24 332 l 24 426 l 122 456 l 122 564 l 24 535 l 24 631 l 122 660 l 122 965 l 346 965 l 346 724 l 626 806 l 626 711 l 346 629 l 346 521 l 626 603 l 626 507 l 346 425 l 346 165 l 406 165 q 550 214 503 165 q 621 340 597 263 l 811 310 z "},"₽":{"ha":867,"x_min":3,"x_max":847,"o":"m 342 360 l 342 257 l 522 257 l 522 169 l 342 169 l 342 0 l 118 0 l 118 169 l 3 169 l 3 257 l 118 257 l 118 360 l 4 360 l 4 508 l 118 508 l 118 965 l 493 965 q 679 928 599 965 q 803 824 760 892 q 847 667 847 756 q 749 441 847 522 q 475 360 651 360 l 342 360 m 342 508 l 447 508 q 564 547 522 508 q 606 657 606 586 q 564 766 606 726 q 447 806 522 806 l 342 806 l 342 508 z "},"₹":{"ha":796,"x_min":89,"x_max":792,"o":"m 792 833 l 546 833 q 615 696 600 783 l 792 696 l 792 608 l 619 608 q 539 440 611 507 q 346 356 467 374 l 638 0 l 394 0 l 89 376 l 89 478 l 204 478 q 329 511 283 478 q 386 608 375 544 l 89 608 l 89 696 l 385 696 q 328 799 374 764 q 208 833 283 833 l 89 833 l 89 965 l 792 965 l 792 833 z "},"₩":{"ha":1286,"x_min":26,"x_max":1261,"o":"m 1158 553 l 1135 443 l 1261 443 l 1261 361 l 1115 361 l 1033 0 l 794 0 l 726 361 l 560 361 l 492 0 l 253 0 l 171 361 l 26 361 l 26 443 l 153 443 l 128 553 l 26 553 l 26 635 l 110 635 l 35 965 l 242 965 l 296 635 l 472 635 l 539 965 l 749 965 l 815 635 l 992 635 l 1046 965 l 1253 965 l 1178 635 l 1261 635 l 1261 553 l 1158 553 m 611 635 l 675 635 l 668 675 q 646 853 654 750 l 642 853 q 635 784 640 840 q 618 675 629 728 l 611 635 m 326 443 l 433 443 l 456 553 l 308 553 l 326 443 m 711 443 l 690 553 l 596 553 l 575 443 l 711 443 m 978 553 l 832 553 l 854 443 l 960 443 l 978 553 m 417 361 l 340 361 l 353 281 q 371 125 367 192 l 375 125 q 400 279 381 179 l 417 361 m 947 361 l 871 361 l 888 279 q 911 125 907 179 l 915 125 q 933 281 919 192 l 947 361 z "},"↑":{"ha":615,"x_min":103,"x_max":513,"o":"m 247 769 l 103 769 l 308 1042 l 513 769 l 369 769 l 369 -49 l 247 -49 l 247 769 z "},"↗":{"ha":1218,"x_min":103,"x_max":1115,"o":"m 185 -28 l 103 60 l 901 858 l 782 988 l 1115 988 l 1115 636 l 985 772 l 185 -28 z "},"→":{"ha":1424,"x_min":103,"x_max":1319,"o":"m 1047 515 l 1047 663 l 1319 458 l 1047 254 l 1047 401 l 103 401 l 103 515 l 1047 515 z "},"↘":{"ha":1218,"x_min":103,"x_max":1115,"o":"m 1115 367 l 1115 15 l 782 15 l 901 144 l 103 943 l 185 1031 l 985 231 l 1115 367 z "},"↓":{"ha":615,"x_min":103,"x_max":513,"o":"m 369 217 l 513 217 l 308 -56 l 103 217 l 247 217 l 247 1035 l 369 1035 l 369 217 z "},"↙":{"ha":1218,"x_min":103,"x_max":1115,"o":"m 1033 1031 l 1115 943 l 317 144 l 436 15 l 103 15 l 103 367 l 233 231 l 1033 1031 z "},"←":{"ha":1424,"x_min":103,"x_max":1319,"o":"m 375 401 l 375 254 l 103 458 l 375 663 l 375 515 l 1319 515 l 1319 401 l 375 401 z "},"↖":{"ha":1218,"x_min":103,"x_max":1115,"o":"m 103 635 l 103 986 l 436 986 l 317 857 l 1115 58 l 1033 -29 l 233 771 l 103 635 z "},"↔":{"ha":1424,"x_min":103,"x_max":1319,"o":"m 375 401 l 375 254 l 103 458 l 375 663 l 375 515 l 1047 515 l 1047 663 l 1319 458 l 1047 254 l 1047 401 l 375 401 z "},"↕":{"ha":615,"x_min":103,"x_max":513,"o":"m 247 217 l 247 769 l 103 769 l 308 1042 l 513 769 l 369 769 l 369 217 l 513 217 l 308 -56 l 103 217 l 247 217 z "},"↩":{"ha":1332,"x_min":103,"x_max":1229,"o":"m 103 458 l 375 663 l 375 515 l 906 515 q 1048 559 996 515 q 1100 685 1100 603 q 1048 811 1100 768 q 906 854 996 854 l 596 854 l 596 968 l 921 968 q 1147 895 1064 968 q 1229 686 1229 822 q 1147 476 1229 551 q 921 401 1064 401 l 375 401 l 375 254 l 103 458 z "},"↪":{"ha":1332,"x_min":103,"x_max":1229,"o":"m 956 401 l 411 401 q 185 476 268 401 q 103 686 103 551 q 185 895 103 822 q 411 968 267 968 l 736 968 l 736 854 l 426 854 q 283 811 335 854 q 232 685 232 768 q 283 559 232 603 q 426 515 335 515 l 956 515 l 956 663 l 1229 458 l 956 254 l 956 401 z "},"↰":{"ha":1126,"x_min":103,"x_max":1024,"o":"m 901 776 l 375 776 l 375 629 l 103 833 l 375 1038 l 375 890 l 1024 890 l 1024 0 l 901 0 l 901 776 z "},"↱":{"ha":1126,"x_min":103,"x_max":1024,"o":"m 103 0 l 103 890 l 751 890 l 751 1038 l 1024 833 l 751 629 l 751 776 l 225 776 l 225 0 l 103 0 z "},"↲":{"ha":1126,"x_min":103,"x_max":1024,"o":"m 1024 986 l 1024 96 l 375 96 l 375 -51 l 103 153 l 375 357 l 375 210 l 901 210 l 901 986 l 1024 986 z "},"↳":{"ha":1126,"x_min":103,"x_max":1024,"o":"m 225 210 l 751 210 l 751 357 l 1024 153 l 751 -51 l 751 96 l 103 96 l 103 986 l 225 986 l 225 210 z "},"↴":{"ha":1243,"x_min":103,"x_max":1140,"o":"m 999 231 l 1140 231 l 936 -42 l 732 231 l 876 231 l 876 890 l 103 890 l 103 1004 l 999 1004 l 999 231 z "},"↻":{"ha":1397,"x_min":103,"x_max":1294,"o":"m 885 533 l 1031 533 q 965 724 1021 642 q 822 850 910 806 q 631 894 735 894 q 429 845 519 894 q 286 704 339 796 q 233 493 233 613 q 286 281 233 374 q 430 138 339 189 q 631 88 521 88 q 797 122 717 88 q 940 224 878 157 l 1019 131 q 840 8 939 50 q 631 -33 742 -33 q 367 33 488 -33 q 174 218 246 99 q 103 490 103 338 q 174 764 103 644 q 365 949 244 883 q 631 1015 486 1015 q 883 956 767 1015 q 1071 786 999 896 q 1153 533 1143 676 l 1294 533 l 1090 261 l 885 533 z "},"⇄":{"ha":1468,"x_min":103,"x_max":1365,"o":"m 375 563 l 375 415 l 103 619 l 375 824 l 375 676 l 1251 676 l 1251 563 l 375 563 m 1093 501 l 1365 296 l 1093 92 l 1093 239 l 219 239 l 219 353 l 1093 353 l 1093 501 z "},"⇅":{"ha":953,"x_min":103,"x_max":849,"o":"m 583 769 l 440 769 l 644 1042 l 849 769 l 706 769 l 706 22 l 583 22 l 583 769 m 103 217 l 247 217 l 247 974 l 369 974 l 369 217 l 513 217 l 308 -56 l 103 217 z "},"●":{"ha":1113,"x_min":40,"x_max":1072,"o":"m 557 -24 q 297 40 415 -24 q 110 222 179 104 q 40 493 40 339 q 110 765 40 647 q 297 946 179 882 q 557 1010 415 1010 q 815 946 697 1010 q 1003 765 933 882 q 1072 493 1072 647 q 1003 222 1072 339 q 815 40 933 104 q 557 -24 697 -24 z "},"○":{"ha":1113,"x_min":40,"x_max":1072,"o":"m 557 -24 q 297 40 415 -24 q 110 222 179 104 q 40 493 40 339 q 110 766 40 649 q 297 947 179 883 q 557 1010 415 1010 q 815 947 697 1010 q 1003 766 933 883 q 1072 493 1072 649 q 1003 222 1072 339 q 815 40 933 104 q 557 -24 697 -24 m 557 58 q 768 112 672 58 q 921 264 864 165 q 978 493 978 363 q 921 722 978 624 q 768 874 864 821 q 557 928 672 928 q 345 874 442 928 q 192 722 249 821 q 135 493 135 624 q 192 264 135 363 q 345 112 249 165 q 557 58 442 58 z "},"℅":{"ha":1215,"x_min":1,"x_max":1204,"o":"m 144 -18 l 892 1021 l 1060 1021 l 313 -18 l 144 -18 m 1 753 q 70 947 1 874 q 268 1019 139 1019 q 439 968 375 1019 q 514 829 503 917 l 354 803 q 326 867 349 844 q 265 890 303 890 q 192 853 218 890 q 165 754 165 817 q 192 650 165 689 q 268 611 218 611 q 327 635 304 611 q 356 699 350 658 l 514 668 q 434 533 496 585 q 265 482 372 482 q 69 558 138 482 q 1 753 1 635 m 939 -18 q 745 56 818 -18 q 672 251 672 129 q 745 447 672 375 q 939 519 818 519 q 1132 447 1060 519 q 1204 251 1204 375 q 1132 55 1204 128 q 939 -18 1060 -18 m 1039 251 q 1012 355 1039 318 q 939 392 985 392 q 864 355 892 392 q 836 251 836 318 q 864 147 836 183 q 939 110 892 110 q 1012 147 985 110 q 1039 251 1039 183 z "},"":{"ha":1243,"x_min":103,"x_max":1140,"o":"m 1140 1004 l 1140 890 l 367 890 l 367 231 l 511 231 l 307 -42 l 103 231 l 244 231 l 244 1004 l 1140 1004 z "}}}
